P3
48 76
255
212 252 228 212 252 228 212 252 228 212 252 228 212 252 228 212 252 228 
212 252 228 212 252 228 212 252 228 212 252 228 212 252 228 212 252 228 
212 252 228 212 252 228 212 252 228 212 252 228 212 252 228 212 252 228 
212 252 228 212 252 228 212 252 228 212 252 228 212 252 228 212 252 228 
212 252 228 212 252 228 212 252 228 212 252 228 212 252 228 212 252 228 
212 252 228 212 252 228 212 252 228 212 252 228 212 252 228 212 252 228 
212 252 228 212 252 228 212 252 228 212 252 228 212 252 228 212 252 228 
212 252 228 212 252 228 212 252 228 212 252 228 212 252 228 212 252 228 
212 252 228 212 252 228 212 252 228 212 252 228 212 252 228 212 252 228 
212 252 228 212 252 228 212 252 228 212 252 228 212 252 228 212 252 228 
212 252 228 212 252 228 212 252 228 212 252 228 212 252 228 212 252 228 
212 252 228 212 252 228 212 252 228 212 252 228 212 252 228 212 252 228 
212 252 228 212 252 228 212 252 228 212 252 228 212 252 228 212 252 228 
212 252 228 212 252 228 212 252 228 212 252 228 212 252 228 212 252 228 
212 252 228 212 252 228 212 252 228 212 252 228 212 252 228 212 252 228 
212 252 228 212 252 228 212 252 228 212 252 228 212 252 228 212 252 228 
212 252 228 212 252 228 212 252 228 212 252 228 212 252 228 212 252 228 
212 252 228 212 252 228 212 252 228 212 252 228 212 252 228 212 252 228 
212 252 228 212 252 228 212 252 228 212 252 228 212 252 228 212 252 228 
212 252 228 212 252 228 212 252 228 212 252 228 212 252 228 212 252 228 
212 252 228 212 252 228 212 252 228 212 252 228 212 252 228 212 252 228 
212 252 228 212 252 228 212 252 228 212 252 228 212 252 228 212 252 228 
212 252 228 212 252 228 212 252 228 212 252 228 212 252 228 212 252 228 
212 252 228 212 252 228 212 252 228 212 252 228 212 252 228 212 252 228 
212 252 228 212 252 228 212 252 228 212 252 228 212 252 228 212 252 228 
212 252 228 212 252 228 212 252 228 212 252 228 212 252 228 212 252 228 
212 252 228 212 252 228 212 252 228 212 252 228 212 252 228 212 252 228 
212 252 228 212 252 228 212 252 228 212 252 228 212 252 228 212 252 228 
212 252 228 212 252 228 212 252 228 212 252 228 212 252 228 212 252 228 
212 252 228 212 252 228 212 252 228 212 252 228 212 252 228 212 252 228 
212 252 228 212 252 228 212 252 228 212 252 228 212 252 228 212 252 228 
212 252 228 212 252 228 212 252 228 212 252 228 212 252 228 212 252 228 
212 252 228 212 252 228 212 252 228 212 252 228 212 252 228 212 252 228 
212 252 228 212 252 228 212 252 228 212 252 228 212 252 228 212 252 228 
212 252 228 212 252 228 212 252 228 212 252 228 212 252 228 212 252 228 
212 252 228 212 252 228 212 252 228 212 252 228 212 252 228 212 252 228 
212 252 228 212 252 228 212 252 228 212 252 228 212 252 228 212 252 228 
212 252 228 212 252 228 212 252 228 212 252 228 212 252 228 212 252 228 
212 252 228 212 252 228 212 252 228 212 252 228 212 252 228 212 252 228 
212 252 228 212 252 228 212 252 228 212 252 228 212 252 228 212 252 228 
212 252 228 212 252 228 212 252 228 212 252 228 212 252 228 212 252 228 
212 252 228 212 252 228 212 252 228 212 252 228 212 252 228 212 252 228 
212 252 228 212 252 228 212 252 228 212 252 228 212 252 228 212 252 228 
212 252 228 212 252 228 212 252 228 212 252 228 212 252 228 212 252 228 
212 252 228 212 252 228 212 252 228 212 252 228 212 252 228 212 252 228 
212 252 228 212 252 228 212 252 228 212 252 228 212 252 228 212 252 228 
212 252 228 212 252 228 212 252 228 212 252 228 212 252 228 212 252 228 
212 252 228 212 252 228 212 252 228 212 252 228 212 252 228 212 252 228 
212 252 228 212 252 228 212 252 228 212 252 228 212 252 228 212 252 228 
212 252 228 212 252 228 212 252 228 212 252 228 197 236 220 108 132 124 
188 229 204 212 252 228 156 196 180 196 235 209 212 252 228 196 235 209 
156 196 180 212 252 228 212 252 228 140 173 156 212 252 228 212 252 228 
124 148 156 212 252 228 212 252 228 132 164 144 212 252 228 212 252 228 
140 173 156 120 164 164 212 252 228 212 252 228 108 132 124 108 132 124 
116 128 120 120 164 164 212 252 228 212 252 228 212 252 228 212 252 228 
212 252 228 212 252 228 212 252 228 212 252 228 212 252 228 212 252 228 
212 252 228 212 252 228 212 252 228 212 252 228 212 252 228 212 252 228 
212 252 228 212 252 228 212 252 228 156 196 180 84 99 88 156 196 180 
84 99 88 188 229 204 108 132 124 156 196 180 212 252 228 156 196 172 
108 132 124 212 252 228 148 178 158 28 36 36 204 249 221 212 252 228 
12 20 20 132 164 144 212 252 228 52 60 60 212 252 228 69 84 75 148 178 158 
148 178 158 94 116 100 212 252 228 42 50 44 156 196 172 164 196 180 
182 212 189 212 252 228 212 252 228 212 252 228 212 252 228 212 252 228 
212 252 228 212 252 228 212 252 228 212 252 228 212 252 228 212 252 228 
212 252 228 212 252 228 212 252 228 212 252 228 212 252 228 212 252 228 
212 252 228 212 252 228 84 99 88 196 244 220 212 252 228 196 244 220 
188 229 204 107 124 116 122 147 132 156 196 180 124 156 136 107 124 116 
212 252 228 84 99 88 148 178 158 133 155 141 212 252 228 52 60 60 69 84 75 
196 244 220 60 74 68 188 229 204 94 116 100 212 252 228 212 252 228 
182 212 189 212 252 228 42 50 44 164 204 179 156 188 172 188 229 204 
212 252 228 212 252 228 212 252 228 212 252 228 212 252 228 212 252 228 
212 252 228 212 252 228 212 252 228 212 252 228 212 252 228 212 252 228 
212 252 228 212 252 228 212 252 228 212 252 228 212 252 228 212 252 228 
212 252 228 52 60 60 212 252 228 212 252 228 204 249 221 188 229 204 
100 132 108 76 95 83 108 140 121 84 84 84 107 124 116 188 229 204 42 50 44 
107 124 116 69 84 75 212 252 228 52 68 60 188 229 204 94 116 100 52 60 60 
156 188 172 108 132 124 212 252 228 212 252 228 172 211 188 212 252 228 
28 36 36 108 126 108 108 140 121 156 196 180 212 252 228 212 252 228 
212 252 228 212 252 228 212 252 228 212 252 228 212 252 228 212 252 228 
212 252 228 212 252 228 212 252 228 212 252 228 212 252 228 212 252 228 
212 252 228 212 252 228 212 252 228 212 252 228 212 252 228 140 167 147 
124 156 136 212 252 228 116 141 124 156 188 172 108 140 121 164 188 172 
212 252 228 156 196 172 108 140 121 108 140 121 140 173 156 156 196 172 
69 84 75 204 249 221 44 60 52 212 252 228 108 140 121 28 36 28 212 252 228 
52 60 60 204 249 221 204 249 221 76 95 83 212 252 228 52 60 60 212 252 228 
212 252 228 212 252 228 212 252 228 212 252 228 212 252 228 212 252 228 
212 252 228 212 252 228 212 252 228 212 252 228 212 252 228 212 252 228 
212 252 228 212 252 228 212 252 228 212 252 228 212 252 228 212 252 228 
212 252 228 212 252 228 212 252 228 212 252 228 124 156 136 52 60 60 148 178 158 
212 252 228 140 167 147 172 211 188 212 252 228 182 212 189 124 156 136 
107 124 116 212 252 228 212 252 228 164 204 179 154 188 164 99 121 108 
212 252 228 196 244 220 69 84 75 212 252 228 182 212 189 84 99 88 76 95 83 
196 244 220 212 252 228 44 60 52 60 74 68 52 60 60 94 116 100 212 252 228 
212 252 228 212 252 228 212 252 228 212 252 228 212 252 228 212 252 228 
212 252 228 212 252 228 212 252 228 212 252 228 212 252 228 212 252 228 
212 252 228 212 252 228 212 252 228 212 252 228 212 252 228 212 252 228 
212 252 228 212 252 228 212 252 228 212 252 228 212 252 228 212 252 228 
212 252 228 212 252 228 212 252 228 212 252 228 212 252 228 212 252 228 
212 252 228 212 252 228 212 252 228 212 252 228 212 252 228 212 252 228 
212 252 228 212 252 228 212 252 228 212 252 228 212 252 228 212 252 228 
212 252 228 212 252 228 212 252 228 212 252 228 212 252 228 212 252 228 
212 252 228 212 252 228 212 252 228 212 252 228 212 252 228 212 252 228 
212 252 228 212 252 228 212 252 228 212 252 228 212 252 228 212 252 228 
212 252 228 212 252 228 212 252 228 212 252 228 212 252 228 212 252 228 
212 252 228 212 252 228 212 252 228 212 252 228 212 252 228 212 252 228 
212 252 228 212 252 228 212 252 228 212 252 228 212 252 228 212 252 228 
212 252 228 212 252 228 212 252 228 212 252 228 212 252 228 212 252 228 
212 252 228 212 252 228 212 252 228 212 252 228 212 252 228 212 252 228 
212 252 228 212 252 228 212 252 228 212 252 228 212 252 228 212 252 228 
212 252 228 212 252 228 212 252 228 212 252 228 212 252 228 212 252 228 
212 252 228 212 252 228 212 252 228 212 252 228 212 252 228 212 252 228 
212 252 228 212 252 228 212 252 228 212 252 228 212 252 228 212 252 228 
212 252 228 212 252 228 212 252 228 212 252 228 212 252 228 212 252 228 
212 252 228 212 252 228 212 252 228 212 252 228 212 252 228 212 252 228 
212 252 228 212 252 228 212 252 228 212 252 228 212 252 228 212 252 228 
212 252 228 212 252 228 212 252 228 212 252 228 212 252 228 212 252 228 
212 252 228 212 252 228 212 252 228 212 252 228 212 252 228 212 252 228 
212 252 228 212 252 228 212 252 228 212 252 228 212 252 228 212 252 228 
212 252 228 212 252 228 212 252 228 212 252 228 212 252 228 212 252 228 
212 252 228 212 252 228 212 252 228 212 252 228 212 252 228 212 252 228 
212 252 228 212 252 228 212 252 228 212 252 228 212 252 228 212 252 228 
212 252 228 212 252 228 212 252 228 212 252 228 204 249 221 156 196 180 
108 140 121 107 124 116 108 140 121 116 128 120 108 140 121 107 124 116 
140 173 156 156 196 180 212 252 228 212 252 228 212 252 228 212 252 228 
212 252 228 212 252 228 212 252 228 212 252 228 212 252 228 212 252 228 
212 252 228 212 252 228 212 252 228 212 252 228 212 252 228 212 252 228 
212 252 228 212 252 228 212 252 228 212 252 228 212 252 228 212 252 228 
212 252 228 212 252 228 212 252 228 212 252 228 212 252 228 212 252 228 
212 252 228 212 252 228 212 252 228 212 252 228 212 252 228 212 252 228 
212 252 228 156 188 172 84 99 88 28 36 28 21 12 20 85 27 45 133 37 65 
133 37 65 133 37 65 165 45 81 133 37 65 133 37 65 101 29 49 68 20 36 21 12 20 
69 84 75 132 164 144 204 249 221 212 252 228 212 252 228 212 252 228 
212 252 228 212 252 228 212 252 228 212 252 228 212 252 228 212 252 228 
212 252 228 212 252 228 212 252 228 212 252 228 212 252 228 212 252 228 
212 252 228 212 252 228 212 252 228 212 252 228 212 252 228 212 252 228 
212 252 228 212 252 228 212 252 228 212 252 228 212 252 228 212 252 228 
212 252 228 212 252 228 156 196 180 52 60 60 68 20 36 165 45 81 244 68 117 
244 68 117 244 68 117 252 74 125 252 74 125 252 74 125 244 68 117 252 74 125 
252 74 125 252 74 125 244 68 117 244 68 117 182 54 88 101 29 49 21 12 20 
140 173 156 212 252 228 212 252 228 212 252 228 212 252 228 212 252 228 
212 252 228 212 252 228 212 252 228 212 252 228 212 252 228 212 252 228 
212 252 228 212 252 228 212 252 228 212 252 228 212 252 228 212 252 228 
212 252 228 212 252 228 212 252 228 212 252 228 212 252 228 212 252 228 
212 252 228 212 252 228 212 252 228 204 249 221 84 99 88 68 20 36 196 57 92 
252 74 125 244 68 117 252 74 125 244 68 117 252 74 125 244 68 117 244 68 117 
252 74 125 252 74 125 244 68 117 252 74 125 244 68 117 252 74 125 252 74 125 
244 68 117 244 68 117 227 66 110 101 29 49 42 50 44 204 249 221 212 252 228 
212 252 228 212 252 228 212 252 228 212 252 228 212 252 228 212 252 228 
212 252 228 212 252 228 212 252 228 212 252 228 212 252 228 212 252 228 
212 252 228 212 252 228 212 252 228 212 252 228 212 252 228 212 252 228 
212 252 228 212 252 228 212 252 228 212 252 228 204 249 221 42 50 44 133 37 65 
252 74 125 244 68 117 252 74 125 252 74 125 252 74 125 252 74 125 244 68 117 
252 74 125 252 74 125 252 74 125 244 68 117 252 74 125 252 74 125 252 74 125 
252 74 125 244 68 117 252 74 125 252 74 125 244 68 117 244 68 117 165 45 81 
28 36 36 212 252 228 212 252 228 212 252 228 212 252 228 212 252 228 
212 252 228 212 252 228 212 252 228 212 252 228 212 252 228 212 252 228 
212 252 228 212 252 228 212 252 228 212 252 228 212 252 228 212 252 228 
212 252 228 212 252 228 212 252 228 212 252 228 212 252 228 204 249 221 
42 50 44 165 45 81 252 74 125 252 74 125 252 74 125 244 68 117 244 68 117 
252 74 125 244 68 117 208 60 101 148 44 71 133 37 65 116 30 56 85 27 45 
133 37 65 133 37 65 182 54 88 244 68 117 244 68 117 252 74 125 244 68 117 
252 74 125 252 74 125 252 74 125 165 45 81 42 50 44 197 236 220 212 252 228 
212 252 228 212 252 228 212 252 228 212 252 228 212 252 228 212 252 228 
212 252 228 212 252 228 212 252 228 212 252 228 212 252 228 212 252 228 
212 252 228 212 252 228 212 252 228 212 252 228 212 252 228 212 252 228 
212 252 228 84 99 88 133 37 65 244 68 117 252 74 125 244 68 117 252 74 125 
244 68 117 244 68 117 116 30 56 21 12 20 52 60 60 107 124 116 122 147 132 
156 188 172 156 188 172 148 178 158 107 124 116 84 84 84 11 11 42 101 29 49 
227 66 110 252 74 125 252 74 125 244 68 117 252 74 125 244 68 117 133 37 65 
108 132 124 212 252 228 212 252 228 212 252 228 212 252 228 212 252 228 
212 252 228 212 252 228 212 252 228 212 252 228 212 252 228 212 252 228 
212 252 228 212 252 228 212 252 228 212 252 228 212 252 228 212 252 228 
212 252 228 212 252 228 156 196 180 68 20 36 252 74 125 252 74 125 252 74 125 
244 68 117 252 74 125 165 45 81 36 10 44 107 124 116 197 236 220 212 252 228 
212 252 228 212 252 228 212 252 228 212 252 228 212 252 228 212 252 228 
212 252 228 212 252 228 132 164 144 36 10 44 165 45 81 252 74 125 252 74 125 
244 68 117 252 74 125 244 68 117 36 10 44 188 229 204 212 252 228 212 252 228 
212 252 228 212 252 228 212 252 228 212 252 228 212 252 228 212 252 228 
212 252 228 212 252 228 212 252 228 212 252 228 212 252 228 212 252 228 
212 252 228 212 252 228 212 252 228 212 252 228 52 60 60 196 57 92 252 74 125 
252 74 125 244 68 117 252 74 125 165 45 81 52 60 60 204 249 221 212 252 228 
212 252 228 212 252 228 212 252 228 212 252 228 212 252 228 212 252 228 
212 252 228 212 252 228 212 252 228 212 252 228 212 252 228 199 244 212 
42 50 44 165 45 81 252 74 125 252 74 125 244 68 117 244 68 117 133 37 65 
116 128 120 212 252 228 212 252 228 212 252 228 212 252 228 212 252 228 
212 252 228 212 252 228 212 252 228 212 252 228 212 252 228 212 252 228 
212 252 228 212 252 228 212 252 228 212 252 228 212 252 228 212 252 228 
183 223 195 52 16 27 244 68 117 252 74 125 252 74 125 252 74 125 182 54 88 
42 50 44 212 252 228 212 252 228 212 252 228 212 252 228 212 252 228 
212 252 228 212 252 228 212 252 228 212 252 228 212 252 228 212 252 228 
212 252 228 212 252 228 212 252 228 212 252 228 197 236 220 21 12 20 244 68 117 
252 74 125 252 74 125 244 68 117 227 66 110 42 50 44 212 252 228 212 252 228 
212 252 228 212 252 228 212 252 228 212 252 228 212 252 228 212 252 228 
212 252 228 212 252 228 212 252 228 212 252 228 212 252 228 212 252 228 
212 252 228 212 252 228 212 252 228 108 132 124 133 37 65 252 74 125 
252 74 125 244 68 117 244 68 117 21 12 20 183 223 195 212 252 228 212 252 228 
212 252 228 212 252 228 212 252 228 212 252 228 212 252 228 212 252 228 
212 252 228 212 252 228 212 252 228 212 252 228 212 252 228 212 252 228 
212 252 228 212 252 228 113 108 116 148 44 71 244 68 117 252 74 125 252 74 125 
244 68 117 21 12 20 204 249 221 212 252 228 212 252 228 212 252 228 
212 252 228 212 252 228 212 252 228 212 252 228 212 252 228 212 252 228 
212 252 228 212 252 228 212 252 228 212 252 228 212 252 228 212 252 228 
212 252 228 52 60 60 208 60 101 244 68 117 252 74 125 252 74 125 165 45 81 
84 99 88 212 252 228 212 252 228 212 252 228 212 252 228 212 252 228 
212 252 228 212 252 228 212 252 228 212 252 228 212 252 228 212 252 228 
212 252 228 212 252 228 212 252 228 212 252 228 212 252 228 212 252 228 
156 196 172 68 20 36 252 74 125 244 68 117 252 74 125 244 68 117 68 20 36 
172 195 180 212 252 228 212 252 228 212 252 228 212 252 228 212 252 228 
212 252 228 212 252 228 212 252 228 212 252 228 212 252 228 212 252 228 
212 252 228 212 252 228 212 252 228 212 252 228 212 252 228 4 4 12 252 74 125 
252 74 125 244 68 117 252 74 125 85 27 45 156 188 172 212 252 228 212 252 228 
212 252 228 212 252 228 212 252 228 212 252 228 212 252 228 212 252 228 
212 252 228 212 252 228 212 252 228 212 252 228 212 252 228 212 252 228 
212 252 228 212 252 228 212 252 228 212 252 228 36 10 44 244 68 117 252 74 125 
252 74 125 252 74 125 101 29 49 156 188 172 212 252 228 212 252 228 
212 252 228 212 252 228 212 252 228 212 252 228 212 252 228 212 252 228 
212 252 228 212 252 228 212 252 228 212 252 228 212 252 228 212 252 228 
212 252 228 212 252 228 10 11 20 244 68 117 244 68 117 252 74 125 244 68 117 
52 12 60 188 229 204 212 252 228 212 252 228 212 252 228 212 252 228 
212 252 228 212 252 228 212 252 228 212 252 228 212 252 228 212 252 228 
212 252 228 212 252 228 212 252 228 212 252 228 212 252 228 212 252 228 
212 252 228 212 252 228 68 20 28 252 74 125 244 68 117 252 74 125 252 74 125 
133 37 65 156 196 180 212 252 228 212 252 228 212 252 228 212 252 228 
212 252 228 212 252 228 212 252 228 212 252 228 212 252 228 212 252 228 
212 252 228 212 252 228 212 252 228 212 252 228 212 252 228 212 252 228 
68 20 28 252 74 125 252 74 125 252 74 125 252 74 125 42 5 6 212 252 228 
212 252 228 212 252 228 212 252 228 212 252 228 212 252 228 212 252 228 
212 252 228 212 252 228 212 252 228 212 252 228 212 252 228 212 252 228 
212 252 228 212 252 228 212 252 228 212 252 228 212 252 228 172 195 180 
68 20 36 244 68 117 252 74 125 252 74 125 244 68 117 68 20 36 172 195 180 
212 252 228 212 252 228 212 252 228 212 252 228 212 252 228 212 252 228 
212 252 228 212 252 228 212 252 228 212 252 228 212 252 228 212 252 228 
212 252 228 212 252 228 212 252 228 212 252 228 68 20 36 244 68 117 252 74 125 
244 68 117 252 74 125 68 20 36 172 211 188 212 252 228 236 244 244 212 252 228 
212 252 228 212 252 228 212 252 228 212 252 228 212 252 228 212 252 228 
212 252 228 212 252 228 212 252 228 212 252 228 212 252 228 212 252 228 
212 252 228 212 252 228 116 128 120 148 44 71 252 74 125 244 68 117 252 74 125 
252 74 125 68 20 36 172 195 180 212 252 228 212 252 228 212 252 228 
212 252 228 212 252 228 212 252 228 212 252 228 212 252 228 212 252 228 
212 252 228 212 252 228 212 252 228 212 252 228 212 252 228 212 252 228 
212 252 228 4 4 12 252 74 125 252 74 125 252 74 125 244 68 117 101 29 49 
140 167 147 212 252 228 212 252 228 212 252 228 212 252 228 212 252 228 
212 252 228 212 252 228 212 252 228 212 252 228 212 252 228 212 252 228 
212 252 228 212 252 228 212 252 228 212 252 228 212 252 228 212 252 228 
28 36 36 227 66 110 252 74 125 252 74 125 252 74 125 244 68 117 4 4 12 212 252 228 
212 252 228 212 252 228 212 252 228 212 252 228 212 252 228 212 252 228 
212 252 228 212 252 228 212 252 228 212 252 228 212 252 228 212 252 228 
212 252 228 212 252 228 212 252 228 212 252 228 28 36 36 244 68 117 252 74 125 
244 68 117 252 74 125 182 54 88 68 73 70 212 252 228 212 252 228 212 252 228 
212 252 228 212 252 228 212 252 228 212 252 228 212 252 228 212 252 228 
212 252 228 212 252 228 212 252 228 212 252 228 212 252 228 212 252 228 
212 252 228 124 148 156 101 29 49 244 68 117 244 68 117 252 74 125 244 68 117 
182 54 88 68 73 70 212 252 228 212 252 228 212 252 228 212 252 228 212 252 228 
212 252 228 212 252 228 212 252 228 212 252 228 212 252 228 212 252 228 
212 252 228 212 252 228 212 252 228 212 252 228 212 252 228 212 252 228 
68 73 70 188 60 100 244 68 117 252 74 125 165 45 81 36 10 44 76 95 83 212 252 228 
212 252 228 212 252 228 212 252 228 212 252 228 212 252 228 212 252 228 
212 252 228 212 252 228 212 252 228 212 252 228 212 252 228 212 252 228 
212 252 228 212 252 228 182 212 189 21 12 20 244 68 117 244 68 117 252 74 125 
252 74 125 252 74 125 101 29 49 140 173 156 212 252 228 212 252 228 
212 252 228 212 252 228 212 252 228 212 252 228 212 252 228 212 252 228 
212 252 228 212 252 228 212 252 228 212 252 228 212 252 228 212 252 228 
212 252 228 212 252 228 212 252 228 124 148 156 116 30 56 165 45 81 36 10 44 
84 84 84 183 223 195 212 252 228 212 252 228 212 252 228 212 252 228 
212 252 228 212 252 228 212 252 228 212 252 228 212 252 228 212 252 228 
212 252 228 212 252 228 212 252 228 212 252 228 212 252 228 183 223 195 
36 10 44 208 60 101 252 74 125 244 68 117 252 74 125 252 74 125 208 60 101 
23 22 42 212 252 228 212 252 228 212 252 228 212 252 228 212 252 228 
212 252 228 212 252 228 212 252 228 212 252 228 212 252 228 212 252 228 
212 252 228 212 252 228 212 252 228 212 252 228 212 252 228 212 252 228 
212 252 228 196 244 220 4 4 4 84 84 84 183 223 195 212 252 228 212 252 228 
212 252 228 212 252 228 212 252 228 212 252 228 212 252 228 212 252 228 
212 252 228 212 252 228 212 252 228 212 252 228 212 252 228 212 252 228 
212 252 228 212 252 228 172 211 188 37 26 26 208 60 101 244 68 117 252 74 125 
252 74 125 252 74 125 244 68 117 59 4 4 156 196 180 212 252 228 212 252 228 
212 252 228 212 252 228 212 252 228 212 252 228 212 252 228 212 252 228 
212 252 228 212 252 228 212 252 228 212 252 228 212 252 228 212 252 228 
212 252 228 212 252 228 212 252 228 212 252 228 212 252 228 204 249 221 
212 252 228 212 252 228 212 252 228 212 252 228 212 252 228 212 252 228 
212 252 228 212 252 228 212 252 228 212 252 228 212 252 228 212 252 228 
212 252 228 212 252 228 212 252 228 212 252 228 212 252 228 183 223 195 
23 22 42 196 57 92 244 68 117 252 74 125 252 74 125 244 68 117 244 68 117 
36 10 44 132 164 144 212 252 228 212 252 228 212 252 228 212 252 228 
212 252 228 212 252 228 212 252 228 212 252 228 212 252 228 212 252 228 
212 252 228 212 252 228 212 252 228 212 252 228 212 252 228 212 252 228 
212 252 228 212 252 228 212 252 228 212 252 228 212 252 228 212 252 228 
212 252 228 212 252 228 212 252 228 212 252 228 212 252 228 212 252 228 
212 252 228 212 252 228 212 252 228 212 252 228 212 252 228 212 252 228 
212 252 228 212 252 228 212 252 228 172 211 188 36 10 44 208 60 101 244 68 117 
244 68 117 252 74 125 244 68 117 252 74 125 68 20 36 140 167 147 212 252 228 
212 252 228 212 252 228 212 252 228 212 252 228 212 252 228 212 252 228 
212 252 228 212 252 228 212 252 228 212 252 228 212 252 228 212 252 228 
212 252 228 212 252 228 212 252 228 212 252 228 212 252 228 212 252 228 
212 252 228 212 252 228 212 252 228 212 252 228 212 252 228 212 252 228 
212 252 228 212 252 228 212 252 228 212 252 228 212 252 228 212 252 228 
212 252 228 212 252 228 212 252 228 212 252 228 212 252 228 212 252 228 
183 223 195 37 26 26 196 57 92 244 68 117 252 74 125 252 74 125 252 74 125 
252 74 125 101 29 49 133 155 141 212 252 228 212 252 228 212 252 228 
212 252 228 212 252 228 212 252 228 212 252 228 212 252 228 212 252 228 
212 252 228 212 252 228 212 252 228 212 252 228 212 252 228 212 252 228 
212 252 228 212 252 228 212 252 228 212 252 228 212 252 228 212 252 228 
212 252 228 212 252 228 212 252 228 212 252 228 212 252 228 212 252 228 
212 252 228 212 252 228 212 252 228 212 252 228 212 252 228 212 252 228 
212 252 228 212 252 228 212 252 228 212 252 228 172 211 188 36 10 44 208 60 101 
244 68 117 252 74 125 252 74 125 252 74 125 244 68 117 36 10 44 132 164 144 
212 252 228 212 252 228 212 252 228 212 252 228 212 252 228 212 252 228 
212 252 228 212 252 228 212 252 228 212 252 228 212 252 228 212 252 228 
212 252 228 212 252 228 212 252 228 212 252 228 212 252 228 212 252 228 
212 252 228 212 252 228 212 252 228 212 252 228 212 252 228 212 252 228 
212 252 228 212 252 228 212 252 228 212 252 228 212 252 228 212 252 228 
212 252 228 212 252 228 212 252 228 212 252 228 212 252 228 212 252 228 
212 252 228 183 223 195 23 22 42 208 60 101 244 68 117 252 74 125 252 74 125 
252 74 125 244 68 117 59 4 4 132 164 144 212 252 228 212 252 228 212 252 228 
212 252 228 212 252 228 212 252 228 212 252 228 212 252 228 212 252 228 
212 252 228 212 252 228 212 252 228 212 252 228 212 252 228 212 252 228 
212 252 228 212 252 228 212 252 228 212 252 228 212 252 228 212 252 228 
212 252 228 212 252 228 212 252 228 212 252 228 212 252 228 212 252 228 
212 252 228 212 252 228 212 252 228 212 252 228 212 252 228 212 252 228 
212 252 228 212 252 228 212 252 228 212 252 228 212 252 228 36 36 28 208 60 101 
244 68 117 252 74 125 252 74 125 244 68 117 244 68 117 52 16 27 120 164 164 
212 252 228 212 252 228 212 252 228 212 252 228 212 252 228 212 252 228 
212 252 228 212 252 228 212 252 228 212 252 228 212 252 228 212 252 228 
212 252 228 212 252 228 212 252 228 212 252 228 212 252 228 212 252 228 
212 252 228 212 252 228 212 252 228 212 252 228 212 252 228 212 252 228 
212 252 228 212 252 228 212 252 228 212 252 228 212 252 228 212 252 228 
212 252 228 212 252 228 212 252 228 212 252 228 212 252 228 212 252 228 
212 252 228 212 252 228 42 50 44 165 45 81 252 74 125 252 74 125 252 74 125 
252 74 125 244 68 117 52 12 60 133 155 141 212 252 228 212 252 228 212 252 228 
212 252 228 212 252 228 212 252 228 212 252 228 212 252 228 212 252 228 
212 252 228 212 252 228 212 252 228 212 252 228 212 252 228 212 252 228 
212 252 228 212 252 228 212 252 228 212 252 228 212 252 228 212 252 228 
212 252 228 212 252 228 212 252 228 212 252 228 212 252 228 212 252 228 
212 252 228 212 252 228 212 252 228 212 252 228 212 252 228 212 252 228 
212 252 228 212 252 228 212 252 228 212 252 228 212 252 228 94 116 100 
116 30 56 244 68 117 244 68 117 252 74 125 244 68 117 244 68 117 52 16 27 
133 155 141 212 252 228 212 252 228 212 252 228 212 252 228 212 252 228 
212 252 228 212 252 228 212 252 228 212 252 228 212 252 228 212 252 228 
212 252 228 212 252 228 212 252 228 212 252 228 212 252 228 212 252 228 
212 252 228 212 252 228 212 252 228 212 252 228 212 252 228 212 252 228 
212 252 228 212 252 228 212 252 228 212 252 228 212 252 228 212 252 228 
212 252 228 212 252 228 212 252 228 212 252 228 212 252 228 212 252 228 
212 252 228 212 252 228 236 244 244 156 196 180 52 22 44 244 68 117 252 74 125 
252 74 125 252 74 125 244 68 117 52 16 27 132 164 144 212 252 228 212 252 228 
236 244 244 212 252 228 212 252 228 212 252 228 212 252 228 212 252 228 
212 252 228 212 252 228 212 252 228 212 252 228 212 252 228 212 252 228 
212 252 228 212 252 228 212 252 228 212 252 228 212 252 228 212 252 228 
212 252 228 212 252 228 212 252 228 212 252 228 212 252 228 212 252 228 
212 252 228 212 252 228 212 252 228 212 252 228 212 252 228 212 252 228 
212 252 228 212 252 228 212 252 228 212 252 228 212 252 228 212 252 228 
212 252 228 28 36 36 208 60 101 252 74 125 252 74 125 252 74 125 244 68 117 
101 29 49 122 147 132 212 252 228 212 252 228 212 252 228 212 252 228 
212 252 228 212 252 228 212 252 228 212 252 228 212 252 228 212 252 228 
212 252 228 212 252 228 212 252 228 212 252 228 212 252 228 212 252 228 
212 252 228 212 252 228 212 252 228 212 252 228 212 252 228 212 252 228 
212 252 228 212 252 228 212 252 228 212 252 228 212 252 228 212 252 228 
212 252 228 212 252 228 212 252 228 212 252 228 212 252 228 212 252 228 
212 252 228 212 252 228 212 252 228 212 252 228 212 252 228 140 173 156 
101 29 49 244 68 117 252 74 125 252 74 125 244 68 117 148 44 71 68 73 70 
212 252 228 212 252 228 212 252 228 212 252 228 212 252 228 212 252 228 
212 252 228 212 252 228 212 252 228 212 252 228 212 252 228 212 252 228 
212 252 228 212 252 228 212 252 228 212 252 228 212 252 228 212 252 228 
212 252 228 212 252 228 212 252 228 212 252 228 212 252 228 212 252 228 
212 252 228 212 252 228 212 252 228 212 252 228 212 252 228 212 252 228 
212 252 228 212 252 228 212 252 228 212 252 228 212 252 228 212 252 228 
212 252 228 212 252 228 212 252 228 212 252 228 23 22 42 227 66 110 244 68 117 
252 74 125 244 68 117 244 68 117 36 10 44 204 249 221 212 252 228 236 244 244 
212 252 228 212 252 228 212 252 228 212 252 228 212 252 228 212 252 228 
212 252 228 212 252 228 212 252 228 212 252 228 212 252 228 212 252 228 
212 252 228 212 252 228 212 252 228 212 252 228 212 252 228 212 252 228 
212 252 228 212 252 228 212 252 228 212 252 228 212 252 228 212 252 228 
212 252 228 212 252 228 212 252 228 212 252 228 212 252 228 212 252 228 
212 252 228 212 252 228 212 252 228 212 252 228 212 252 228 212 252 228 
212 252 228 156 188 172 101 29 49 252 74 125 252 74 125 252 74 125 252 74 125 
133 37 65 107 124 116 212 252 228 212 252 228 212 252 228 212 252 228 
212 252 228 212 252 228 212 252 228 212 252 228 212 252 228 212 252 228 
212 252 228 212 252 228 212 252 228 212 252 228 212 252 228 212 252 228 
212 252 228 212 252 228 212 252 228 212 252 228 212 252 228 212 252 228 
212 252 228 212 252 228 212 252 228 212 252 228 212 252 228 212 252 228 
212 252 228 212 252 228 212 252 228 212 252 228 212 252 228 212 252 228 
212 252 228 212 252 228 212 252 228 212 252 228 212 252 228 212 252 228 
84 84 84 182 54 88 244 68 117 244 68 117 252 74 125 252 74 125 42 5 6 196 235 209 
212 252 228 212 252 228 212 252 228 132 164 144 197 236 220 212 252 228 
212 252 228 212 252 228 212 252 228 212 252 228 212 252 228 212 252 228 
212 252 228 212 252 228 212 252 228 212 252 228 212 252 228 212 252 228 
212 252 228 212 252 228 212 252 228 212 252 228 212 252 228 212 252 228 
212 252 228 212 252 228 212 252 228 212 252 228 212 252 228 212 252 228 
212 252 228 212 252 228 212 252 228 212 252 228 212 252 228 212 252 228 
212 252 228 212 252 228 212 252 228 212 252 228 52 60 60 227 66 110 244 68 117 
252 74 125 244 68 117 208 60 101 42 50 44 212 252 228 212 252 228 212 252 228 
84 99 88 84 99 88 212 252 228 212 252 228 212 252 228 212 252 228 212 252 228 
212 252 228 212 252 228 212 252 228 212 252 228 212 252 228 212 252 228 
212 252 228 212 252 228 212 252 228 212 252 228 212 252 228 212 252 228 
212 252 228 212 252 228 212 252 228 212 252 228 212 252 228 212 252 228 
212 252 228 212 252 228 212 252 228 212 252 228 212 252 228 212 252 228 
212 252 228 212 252 228 212 252 228 212 252 228 212 252 228 212 252 228 
212 252 228 12 20 20 252 74 125 252 74 125 244 68 117 252 74 125 227 66 110 
28 36 28 156 188 172 120 164 164 28 36 36 4 4 4 196 235 209 212 252 228 
212 252 228 212 252 228 212 252 228 212 252 228 212 252 228 212 252 228 
212 252 228 212 252 228 212 252 228 212 252 228 212 252 228 212 252 228 
212 252 228 212 252 228 212 252 228 212 252 228 212 252 228 212 252 228 
212 252 228 212 252 228 212 252 228 212 252 228 212 252 228 212 252 228 
212 252 228 212 252 228 212 252 228 212 252 228 212 252 228 212 252 228 
212 252 228 212 252 228 212 252 228 212 252 228 212 252 228 52 60 60 208 60 101 
252 74 125 252 74 125 252 74 125 244 68 117 182 54 88 85 27 45 133 37 65 
133 37 65 84 84 84 212 252 228 212 252 228 212 252 228 212 252 228 212 252 228 
212 252 228 212 252 228 212 252 228 212 252 228 212 252 228 212 252 228 
212 252 228 212 252 228 212 252 228 212 252 228 212 252 228 212 252 228 
212 252 228 212 252 228 212 252 228 212 252 228 212 252 228 212 252 228 
212 252 228 212 252 228 212 252 228 212 252 228 212 252 228 212 252 228 
212 252 228 212 252 228 212 252 228 212 252 228 212 252 228 212 252 228 
212 252 228 212 252 228 108 132 124 133 37 65 252 74 125 252 74 125 252 74 125 
244 68 117 252 74 125 244 68 117 244 68 117 22 8 6 188 229 204 212 252 228 
212 252 228 212 252 228 212 252 228 212 252 228 212 252 228 212 252 228 
212 252 228 212 252 228 212 252 228 212 252 228 212 252 228 212 252 228 
212 252 228 212 252 228 212 252 228 212 252 228 212 252 228 212 252 228 
212 252 228 212 252 228 212 252 228 212 252 228 212 252 228 212 252 228 
212 252 228 212 252 228 212 252 228 212 252 228 212 252 228 212 252 228 
212 252 228 212 252 228 212 252 228 212 252 228 212 252 228 212 252 228 
212 252 228 21 12 20 208 60 101 252 74 125 244 68 117 252 74 125 252 74 125 
244 68 117 165 45 81 84 99 88 212 252 228 212 252 228 212 252 228 212 252 228 
212 252 228 212 252 228 212 252 228 212 252 228 212 252 228 212 252 228 
212 252 228 212 252 228 212 252 228 212 252 228 212 252 228 212 252 228 
212 252 228 212 252 228 212 252 228 212 252 228 212 252 228 212 252 228 
212 252 228 212 252 228 212 252 228 212 252 228 212 252 228 212 252 228 
212 252 228 212 252 228 212 252 228 212 252 228 212 252 228 212 252 228 
212 252 228 212 252 228 212 252 228 212 252 228 212 252 228 182 212 189 
23 22 42 101 29 49 148 44 71 182 54 88 133 37 65 85 27 45 23 22 42 197 236 220 
212 252 228 212 252 228 212 252 228 212 252 228 212 252 228 212 252 228 
212 252 228 212 252 228 212 252 228 212 252 228 212 252 228 212 252 228 
212 252 228 212 252 228 212 252 228 212 252 228 212 252 228 212 252 228 
212 252 228 212 252 228 212 252 228 212 252 228 212 252 228 212 252 228 
212 252 228 212 252 228 212 252 228 212 252 228 212 252 228 212 252 228 
212 252 228 212 252 228 212 252 228 212 252 228 212 252 228 212 252 228 
212 252 228 212 252 228 212 252 228 212 252 228 212 252 228 148 178 158 
107 124 116 90 108 97 116 128 120 140 173 156 212 252 228 212 252 228 
212 252 228 212 252 228 212 252 228 212 252 228 212 252 228 212 252 228 
212 252 228 212 252 228 212 252 228 212 252 228 212 252 228 212 252 228 
212 252 228 212 252 228 212 252 228 212 252 228 212 252 228 212 252 228 
212 252 228 212 252 228 212 252 228 212 252 228 212 252 228 212 252 228 
212 252 228 212 252 228 212 252 228 212 252 228 212 252 228 212 252 228 
212 252 228 212 252 228 212 252 228 212 252 228 212 252 228 212 252 228 
212 252 228 212 252 228 212 252 228 212 252 228 212 252 228 212 252 228 
212 252 228 212 252 228 212 252 228 212 252 228 212 252 228 212 252 228 
212 252 228 212 252 228 212 252 228 212 252 228 212 252 228 212 252 228 
212 252 228 212 252 228 212 252 228 212 252 228 212 252 228 212 252 228 
212 252 228 212 252 228 212 252 228 212 252 228 212 252 228 212 252 228 
212 252 228 212 252 228 212 252 228 212 252 228 212 252 228 212 252 228 
212 252 228 212 252 228 212 252 228 212 252 228 212 252 228 212 252 228 
212 252 228 212 252 228 212 252 228 212 252 228 212 252 228 212 252 228 
212 252 228 212 252 228 212 252 228 212 252 228 212 252 228 212 252 228 
212 252 228 212 252 228 212 252 228 212 252 228 212 252 228 212 252 228 
212 252 228 212 252 228 212 252 228 212 252 228 212 252 228 212 252 228 
212 252 228 212 252 228 212 252 228 212 252 228 212 252 228 212 252 228 
212 252 228 212 252 228 212 252 228 212 252 228 212 252 228 212 252 228 
212 252 228 212 252 228 212 252 228 212 252 228 212 252 228 212 252 228 
212 252 228 212 252 228 212 252 228 212 252 228 212 252 228 212 252 228 
212 252 228 212 252 228 212 252 228 212 252 228 212 252 228 212 252 228 
212 252 228 212 252 228 212 252 228 212 252 228 212 252 228 212 252 228 
197 236 220 164 196 180 172 211 188 212 252 228 212 252 228 212 252 228 
212 252 228 212 252 228 212 252 228 212 252 228 212 252 228 212 252 228 
212 252 228 212 252 228 212 252 228 212 252 228 212 252 228 212 252 228 
212 252 228 212 252 228 212 252 228 212 252 228 212 252 228 212 252 228 
212 252 228 212 252 228 212 252 228 212 252 228 212 252 228 212 252 228 
212 252 228 212 252 228 212 252 228 212 252 228 212 252 228 212 252 228 
212 252 228 212 252 228 212 252 228 212 252 228 212 252 228 212 252 228 
212 252 228 212 252 228 212 252 228 212 252 228 183 223 195 52 60 60 21 12 20 
68 20 36 52 16 27 28 36 36 148 178 158 212 252 228 212 252 228 212 252 228 
212 252 228 212 252 228 212 252 228 212 252 228 212 252 228 212 252 228 
212 252 228 212 252 228 212 252 228 212 252 228 212 252 228 212 252 228 
212 252 228 212 252 228 212 252 228 212 252 228 212 252 228 212 252 228 
212 252 228 212 252 228 212 252 228 212 252 228 212 252 228 212 252 228 
212 252 228 212 252 228 212 252 228 212 252 228 212 252 228 212 252 228 
212 252 228 212 252 228 212 252 228 212 252 228 212 252 228 212 252 228 
212 252 228 148 178 158 21 12 20 196 57 92 252 74 125 252 74 125 244 68 117 
227 66 110 68 20 36 124 148 156 212 252 228 212 252 228 212 252 228 
212 252 228 212 252 228 212 252 228 212 252 228 212 252 228 212 252 228 
212 252 228 212 252 228 212 252 228 212 252 228 212 252 228 212 252 228 
212 252 228 212 252 228 212 252 228 212 252 228 212 252 228 212 252 228 
212 252 228 212 252 228 212 252 228 212 252 228 212 252 228 212 252 228 
212 252 228 212 252 228 212 252 228 212 252 228 212 252 228 212 252 228 
212 252 228 212 252 228 212 252 228 212 252 228 212 252 228 204 249 221 
23 22 42 244 68 117 244 68 117 244 68 117 252 74 125 252 74 125 244 68 117 
252 74 125 52 16 27 156 188 172 212 252 228 212 252 228 212 252 228 
212 252 228 212 252 228 212 252 228 212 252 228 212 252 228 212 252 228 
212 252 228 212 252 228 212 252 228 212 252 228 212 252 228 212 252 228 
212 252 228 212 252 228 212 252 228 212 252 228 212 252 228 212 252 228 
212 252 228 212 252 228 212 252 228 212 252 228 212 252 228 212 252 228 
212 252 228 212 252 228 212 252 228 212 252 228 212 252 228 212 252 228 
212 252 228 212 252 228 212 252 228 212 252 228 122 147 132 133 37 65 
244 68 117 244 68 117 252 74 125 252 74 125 244 68 117 252 74 125 244 68 117 
182 54 88 69 84 75 212 252 228 212 252 228 212 252 228 212 252 228 212 252 228 
212 252 228 212 252 228 212 252 228 212 252 228 212 252 228 212 252 228 
212 252 228 212 252 228 212 252 228 212 252 228 212 252 228 212 252 228 
212 252 228 212 252 228 212 252 228 212 252 228 212 252 228 212 252 228 
212 252 228 212 252 228 212 252 228 212 252 228 212 252 228 212 252 228 
212 252 228 212 252 228 212 252 228 212 252 228 212 252 228 212 252 228 
212 252 228 212 252 228 52 60 60 196 57 92 252 74 125 252 74 125 252 74 125 
244 68 117 252 74 125 252 74 125 244 68 117 252 74 125 4 4 4 212 252 228 
212 252 228 212 252 228 212 252 228 212 252 228 212 252 228 212 252 228 
212 252 228 212 252 228 212 252 228 212 252 228 212 252 228 212 252 228 
212 252 228 212 252 228 212 252 228 212 252 228 212 252 228 212 252 228 
212 252 228 212 252 228 212 252 228 212 252 228 212 252 228 212 252 228 
212 252 228 212 252 228 212 252 228 212 252 228 212 252 228 212 252 228 
212 252 228 212 252 228 212 252 228 212 252 228 212 252 228 212 252 228 
68 66 60 188 60 100 244 68 117 252 74 125 244 68 117 252 74 125 252 74 125 
252 74 125 252 74 125 244 68 117 4 4 12 212 252 228 212 252 228 212 252 228 
212 252 228 212 252 228 212 252 228 212 252 228 212 252 228 212 252 228 
212 252 228 212 252 228 212 252 228 212 252 228 212 252 228 212 252 228 
212 252 228 212 252 228 212 252 228 212 252 228 212 252 228 212 252 228 
212 252 228 212 252 228 212 252 228 212 252 228 212 252 228 212 252 228 
212 252 228 212 252 228 212 252 228 212 252 228 212 252 228 212 252 228 
212 252 228 212 252 228 212 252 228 212 252 228 84 99 88 165 45 81 244 68 117 
252 74 125 252 74 125 252 74 125 244 68 117 252 74 125 244 68 117 244 68 117 
42 50 44 212 252 228 212 252 228 212 252 228 212 252 228 212 252 228 
212 252 228 212 252 228 212 252 228 212 252 228 212 252 228 212 252 228 
212 252 228 212 252 228 212 252 228 212 252 228 212 252 228 212 252 228 
212 252 228 212 252 228 212 252 228 212 252 228 212 252 228 212 252 228 
212 252 228 212 252 228 212 252 228 212 252 228 212 252 228 212 252 228 
212 252 228 212 252 228 212 252 228 212 252 228 212 252 228 212 252 228 
212 252 228 212 252 228 172 195 180 36 10 44 252 74 125 252 74 125 244 68 117 
252 74 125 252 74 125 252 74 125 244 68 117 101 29 49 108 132 124 212 252 228 
212 252 228 212 252 228 212 252 228 212 252 228 212 252 228 212 252 228 
212 252 228 212 252 228 212 252 228 212 252 228 212 252 228 212 252 228 
212 252 228 212 252 228 212 252 228 212 252 228 212 252 228 212 252 228 
212 252 228 212 252 228 212 252 228 212 252 228 212 252 228 212 252 228 
212 252 228 212 252 228 212 252 228 212 252 228 212 252 228 212 252 228 
212 252 228 212 252 228 212 252 228 212 252 228 212 252 228 212 252 228 
212 252 228 84 99 88 101 29 49 244 68 117 252 74 125 244 68 117 252 74 125 
252 74 125 148 44 71 42 50 44 212 252 228 212 252 228 212 252 228 212 252 228 
212 252 228 212 252 228 212 252 228 212 252 228 212 252 228 212 252 228 
212 252 228 212 252 228 212 252 228 212 252 228 212 252 228 212 252 228 
212 252 228 212 252 228 212 252 228 212 252 228 212 252 228 212 252 228 
212 252 228 212 252 228 212 252 228 212 252 228 212 252 228 212 252 228 
212 252 228 212 252 228 212 252 228 212 252 228 212 252 228 212 252 228 
212 252 228 212 252 228 212 252 228 212 252 228 212 252 228 212 252 228 
100 100 100 36 10 44 116 30 56 133 37 65 133 37 65 36 10 44 68 73 70 197 236 220 
212 252 228 212 252 228 212 252 228 212 252 228 212 252 228 212 252 228 
212 252 228 212 252 228 212 252 228 212 252 228 212 252 228 212 252 228 
212 252 228 212 252 228 212 252 228 212 252 228 212 252 228 212 252 228 
212 252 228 212 252 228 212 252 228 212 252 228 212 252 228 212 252 228 
212 252 228 212 252 228 212 252 228 212 252 228 212 252 228 212 252 228 
212 252 228 212 252 228 212 252 228 212 252 228 212 252 228 212 252 228 
212 252 228 212 252 228 212 252 228 212 252 228 212 252 228 188 229 204 
122 147 132 107 124 116 116 128 120 172 207 180 212 252 228 212 252 228 
212 252 228 212 252 228 212 252 228 212 252 228 212 252 228 212 252 228 
212 252 228 212 252 228 212 252 228 212 252 228 212 252 228 212 252 228 
212 252 228 212 252 228 212 252 228 212 252 228 212 252 228 212 252 228 
212 252 228 212 252 228 212 252 228 212 252 228 212 252 228 212 252 228 
212 252 228 212 252 228 212 252 228 212 252 228 212 252 228 212 252 228 
212 252 228 212 252 228 212 252 228 212 252 228 212 252 228 212 252 228 
212 252 228 212 252 228 212 252 228 212 252 228 212 252 228 212 252 228 
212 252 228 212 252 228 212 252 228 212 252 228 212 252 228 212 252 228 
212 252 228 212 252 228 212 252 228 212 252 228 212 252 228 212 252 228 
212 252 228 212 252 228 212 252 228 212 252 228 212 252 228 212 252 228 
212 252 228 212 252 228 212 252 228 212 252 228 212 252 228 212 252 228 
212 252 228 212 252 228 212 252 228 212 252 228 212 252 228 212 252 228 
212 252 228 212 252 228 212 252 228 212 252 228 212 252 228 212 252 228 
212 252 228 212 252 228 212 252 228 212 252 228 212 252 228 212 252 228 
212 252 228 212 252 228 212 252 228 212 252 228 212 252 228 212 252 228 
212 252 228 212 252 228 212 252 228 212 252 228 212 252 228 212 252 228 
212 252 228 212 252 228 212 252 228 212 252 228 212 252 228 212 252 228 
212 252 228 212 252 228 212 252 228 212 252 228 212 252 228 212 252 228 
212 252 228 212 252 228 212 252 228 212 252 228 212 252 228 212 252 228 
212 252 228 212 252 228 212 252 228 212 252 228 212 252 228 212 252 228 
212 252 228 212 252 228 212 252 228 212 252 228 212 252 228 212 252 228 
212 252 228 212 252 228 212 252 228 212 252 228 212 252 228 212 252 228 
212 252 228 212 252 228 212 252 228 212 252 228 212 252 228 212 252 228 
212 252 228 212 252 228 212 252 228 212 252 228 212 252 228 212 252 228 
212 252 228 212 252 228 212 252 228 212 252 228 212 252 228 212 252 228 
212 252 228 212 252 228 212 252 228 212 252 228 212 252 228 212 252 228 
212 252 228 212 252 228 212 252 228 212 252 228 212 252 228 212 252 228 
212 252 228 212 252 228 212 252 228 212 252 228 212 252 228 212 252 228 
212 252 228 212 252 228 212 252 228 212 252 228 212 252 228 212 252 228 
212 252 228 212 252 228 212 252 228 212 252 228 212 252 228 212 252 228 
212 252 228 212 252 228 212 252 228 212 252 228 212 252 228 212 252 228 
212 252 228 212 252 228 212 252 228 212 252 228 212 252 228 212 252 228 
212 252 228 212 252 228 212 252 228 212 252 228 212 252 228 212 252 228 
212 252 228 212 252 228 212 252 228 212 252 228 212 252 228 212 252 228 
212 252 228 212 252 228 212 252 228 212 252 228 212 252 228 212 252 228 
212 252 228 212 252 228 212 252 228 212 252 228 212 252 228 212 252 228 
212 252 228 212 252 228 212 252 228 212 252 228 212 252 228 212 252 228 
212 252 228 212 252 228 212 252 228 212 252 228 212 252 228 212 252 228 
212 252 228 212 252 228 212 252 228 212 252 228 212 252 228 212 252 228 
212 252 228 212 252 228 212 252 228 212 252 228 212 252 228 212 252 228 
212 252 228 212 252 228 212 252 228 212 252 228 212 252 228 212 252 228 
212 252 228 212 252 228 212 252 228 212 252 228 212 252 228 212 252 228 
212 252 228 212 252 228 212 252 228 212 252 228 212 252 228 212 252 228 
212 252 228 212 252 228 
