P3
48 76
255
212 252 228 212 252 228 212 252 228 212 252 228 212 252 228 212 252 228 
212 252 228 212 252 228 212 252 228 212 252 228 212 252 228 212 252 228 
212 252 228 212 252 228 212 252 228 212 252 228 212 252 228 212 252 228 
212 252 228 212 252 228 212 252 228 212 252 228 212 252 228 212 252 228 
212 252 228 212 252 228 212 252 228 212 252 228 212 252 228 212 252 228 
212 252 228 212 252 228 212 252 228 212 252 228 212 252 228 212 252 228 
212 252 228 212 252 228 212 252 228 212 252 228 212 252 228 212 252 228 
212 252 228 212 252 228 212 252 228 212 252 228 212 252 228 212 252 228 
212 252 228 212 252 228 212 252 228 212 252 228 212 252 228 212 252 228 
212 252 228 212 252 228 212 252 228 212 252 228 212 252 228 212 252 228 
212 252 228 212 252 228 212 252 228 212 252 228 212 252 228 212 252 228 
212 252 228 212 252 228 212 252 228 212 252 228 212 252 228 212 252 228 
212 252 228 212 252 228 212 252 228 212 252 228 212 252 228 212 252 228 
212 252 228 212 252 228 212 252 228 212 252 228 212 252 228 212 252 228 
212 252 228 212 252 228 212 252 228 212 252 228 212 252 228 212 252 228 
212 252 228 212 252 228 212 252 228 212 252 228 212 252 228 212 252 228 
212 252 228 212 252 228 212 252 228 212 252 228 212 252 228 212 252 228 
212 252 228 212 252 228 212 252 228 212 252 228 212 252 228 212 252 228 
212 252 228 212 252 228 212 252 228 212 252 228 212 252 228 212 252 228 
212 252 228 212 252 228 212 252 228 212 252 228 212 252 228 212 252 228 
212 252 228 212 252 228 212 252 228 212 252 228 212 252 228 212 252 228 
212 252 228 212 252 228 212 252 228 212 252 228 212 252 228 212 252 228 
212 252 228 212 252 228 212 252 228 212 252 228 212 252 228 212 252 228 
212 252 228 212 252 228 212 252 228 212 252 228 212 252 228 212 252 228 
212 252 228 212 252 228 212 252 228 212 252 228 212 252 228 212 252 228 
212 252 228 212 252 228 212 252 228 212 252 228 212 252 228 212 252 228 
212 252 228 212 252 228 212 252 228 212 252 228 212 252 228 212 252 228 
212 252 228 212 252 228 212 252 228 212 252 228 212 252 228 212 252 228 
212 252 228 212 252 228 212 252 228 212 252 228 212 252 228 212 252 228 
212 252 228 212 252 228 212 252 228 212 252 228 212 252 228 212 252 228 
212 252 228 212 252 228 212 252 228 212 252 228 212 252 228 212 252 228 
212 252 228 212 252 228 212 252 228 212 252 228 212 252 228 212 252 228 
212 252 228 212 252 228 212 252 228 212 252 228 212 252 228 212 252 228 
212 252 228 212 252 228 212 252 228 212 252 228 212 252 228 212 252 228 
212 252 228 212 252 228 212 252 228 212 252 228 212 252 228 212 252 228 
212 252 228 212 252 228 212 252 228 212 252 228 212 252 228 212 252 228 
212 252 228 212 252 228 212 252 228 212 252 228 212 252 228 212 252 228 
212 252 228 212 252 228 212 252 228 212 252 228 212 252 228 212 252 228 
212 252 228 212 252 228 212 252 228 212 252 228 212 252 228 212 252 228 
212 252 228 212 252 228 212 252 228 212 252 228 212 252 228 212 252 228 
212 252 228 212 252 228 212 252 228 212 252 228 212 252 228 212 252 228 
212 252 228 212 252 228 212 252 228 212 252 228 212 252 228 212 252 228 
212 252 228 212 252 228 212 252 228 212 252 228 212 252 228 212 252 228 
212 252 228 212 252 228 212 252 228 212 252 228 212 252 228 212 252 228 
212 252 228 212 252 228 212 252 228 212 252 228 212 252 228 212 252 228 
212 252 228 212 252 228 212 252 228 212 252 228 212 252 228 212 252 228 
212 252 228 212 252 228 212 252 228 212 252 228 212 252 228 212 252 228 
212 252 228 212 252 228 212 252 228 212 252 228 212 252 228 212 252 228 
212 252 228 212 252 228 212 252 228 212 252 228 212 252 228 212 252 228 
212 252 228 212 252 228 212 252 228 212 252 228 212 252 228 212 252 228 
212 252 228 212 252 228 212 252 228 212 252 228 212 252 228 212 252 228 
212 252 228 212 252 228 212 252 228 212 252 228 212 252 228 212 252 228 
212 252 228 212 252 228 212 252 228 212 252 228 212 252 228 212 252 228 
212 252 228 212 252 228 212 252 228 212 252 228 212 252 228 212 252 228 
212 252 228 212 252 228 212 252 228 212 252 228 212 252 228 212 252 228 
212 252 228 212 252 228 212 252 228 212 252 228 212 252 228 212 252 228 
212 252 228 212 252 228 212 252 228 212 252 228 212 252 228 212 252 228 
212 252 228 212 252 228 212 252 228 212 252 228 212 252 228 212 252 228 
212 252 228 212 252 228 212 252 228 212 252 228 212 252 228 212 252 228 
212 252 228 212 252 228 212 252 228 212 252 228 212 252 228 212 252 228 
212 252 228 212 252 228 212 252 228 212 252 228 212 252 228 212 252 228 
212 252 228 212 252 228 212 252 228 212 252 228 212 252 228 212 252 228 
212 252 228 212 252 228 212 252 228 212 252 228 212 252 228 212 252 228 
212 252 228 212 252 228 212 252 228 212 252 228 212 252 228 212 252 228 
212 252 228 212 252 228 212 252 228 212 252 228 212 252 228 212 252 228 
212 252 228 212 252 228 212 252 228 212 252 228 212 252 228 212 252 228 
212 252 228 212 252 228 212 252 228 212 252 228 212 252 228 212 252 228 
212 252 228 212 252 228 212 252 228 212 252 228 212 252 228 212 252 228 
212 252 228 212 252 228 212 252 228 212 252 228 212 252 228 212 252 228 
212 252 228 212 252 228 212 252 228 212 252 228 212 252 228 212 252 228 
212 252 228 212 252 228 212 252 228 212 252 228 212 252 228 212 252 228 
212 252 228 212 252 228 212 252 228 212 252 228 212 252 228 212 252 228 
212 252 228 212 252 228 212 252 228 212 252 228 212 252 228 212 252 228 
212 252 228 212 252 228 212 252 228 212 252 228 212 252 228 212 252 228 
212 252 228 212 252 228 212 252 228 212 252 228 212 252 228 212 252 228 
212 252 228 212 252 228 212 252 228 212 252 228 212 252 228 212 252 228 
212 252 228 212 252 228 212 252 228 212 252 228 212 252 228 212 252 228 
212 252 228 212 252 228 212 252 228 212 252 228 212 252 228 212 252 228 
212 252 228 212 252 228 212 252 228 212 252 228 212 252 228 212 252 228 
212 252 228 212 252 228 212 252 228 212 252 228 212 252 228 212 252 228 
212 252 228 212 252 228 212 252 228 212 252 228 212 252 228 212 252 228 
212 252 228 212 252 228 212 252 228 212 252 228 212 252 228 212 252 228 
212 252 228 212 252 228 212 252 228 212 252 228 212 252 228 212 252 228 
212 252 228 212 252 228 212 252 228 212 252 228 212 252 228 212 252 228 
212 252 228 212 252 228 212 252 228 212 252 228 212 252 228 212 252 228 
212 252 228 212 252 228 212 252 228 212 252 228 212 252 228 212 252 228 
212 252 228 212 252 228 212 252 228 212 252 228 212 252 228 212 252 228 
212 252 228 212 252 228 212 252 228 212 252 228 212 252 228 212 252 228 
212 252 228 212 252 228 212 252 228 212 252 228 212 252 228 212 252 228 
212 252 228 212 252 228 212 252 228 212 252 228 212 252 228 212 252 228 
212 252 228 212 252 228 212 252 228 212 252 228 212 252 228 212 252 228 
212 252 228 212 252 228 212 252 228 212 252 228 212 252 228 212 252 228 
212 252 228 212 252 228 212 252 228 212 252 228 212 252 228 212 252 228 
212 252 228 212 252 228 212 252 228 212 252 228 212 252 228 212 252 228 
212 252 228 212 252 228 212 252 228 212 252 228 212 252 228 212 252 228 
212 252 228 212 252 228 212 252 228 212 252 228 212 252 228 212 252 228 
212 252 228 212 252 228 212 252 228 212 252 228 212 252 228 212 252 228 
212 252 228 212 252 228 204 249 221 105 135 151 172 207 180 212 252 228 
188 229 204 122 147 132 172 211 188 212 252 228 156 196 180 212 252 228 
204 249 221 164 204 179 156 196 180 212 252 228 212 252 228 156 196 180 
188 229 204 196 244 220 212 252 228 188 229 204 188 196 212 196 244 220 
212 252 228 188 229 204 156 196 180 156 196 180 140 173 156 140 173 156 
156 196 180 204 249 221 212 252 228 183 223 195 212 252 228 212 252 228 
212 252 228 212 252 228 212 252 228 212 252 228 212 252 228 212 252 228 
212 252 228 212 252 228 212 252 228 212 252 228 212 252 228 212 252 228 
212 252 228 212 252 228 100 100 100 204 249 221 122 147 132 183 223 195 
94 116 100 212 252 228 116 141 124 172 195 180 28 36 28 196 244 220 
132 164 144 90 108 97 84 99 88 132 164 144 199 244 212 23 22 42 140 173 156 
161 169 163 212 252 228 100 132 116 94 116 100 99 121 108 212 252 228 
107 124 116 90 108 97 197 236 220 94 116 100 183 223 195 182 212 189 
116 128 120 154 188 164 139 163 191 212 252 228 212 252 228 212 252 228 
212 252 228 212 252 228 212 252 228 212 252 228 212 252 228 212 252 228 
212 252 228 212 252 228 212 252 228 212 252 228 212 252 228 212 252 228 
212 252 228 94 116 100 212 252 228 212 252 228 148 178 158 148 178 158 
212 252 228 188 229 204 122 147 132 76 95 83 132 164 144 122 147 132 
99 121 108 94 116 100 116 128 120 140 173 156 76 95 83 140 167 147 156 188 172 
212 252 228 108 132 124 94 116 100 133 155 141 154 188 164 108 140 121 
76 95 83 212 252 228 108 132 124 196 244 220 212 252 228 116 141 124 
90 108 97 212 252 228 212 252 228 212 252 228 212 252 228 212 252 228 
212 252 228 212 252 228 212 252 228 212 252 228 212 252 228 212 252 228 
212 252 228 212 252 228 212 252 228 212 252 228 212 252 228 212 252 228 
76 95 83 212 252 228 122 147 132 172 211 188 94 116 100 212 252 228 
122 147 132 156 196 180 100 132 108 90 108 97 124 148 156 94 116 100 
99 121 108 124 156 136 90 108 97 100 132 108 148 178 158 140 173 156 
212 244 221 108 132 124 90 108 97 204 249 221 76 95 83 108 140 121 84 99 88 
212 252 228 108 126 108 212 244 221 212 252 228 183 223 195 140 167 147 
212 252 228 212 252 228 212 252 228 212 252 228 212 252 228 212 252 228 
212 252 228 212 252 228 212 252 228 212 252 228 212 252 228 212 252 228 
212 252 228 212 252 228 212 252 228 212 252 228 212 252 228 197 236 220 
108 132 124 156 188 172 212 252 228 172 211 188 116 141 124 156 188 172 
212 252 228 156 188 172 164 204 179 199 244 212 156 188 172 156 196 180 
197 236 220 164 204 179 172 195 180 204 249 221 132 164 144 116 141 124 
188 229 204 156 188 172 212 244 221 196 235 209 156 196 172 154 188 164 
212 252 228 164 196 180 204 249 221 212 252 228 196 244 220 172 211 188 
212 252 228 212 252 228 212 252 228 212 252 228 212 252 228 212 252 228 
212 252 228 212 252 228 212 252 228 212 252 228 212 252 228 212 252 228 
212 252 228 212 252 228 212 252 228 212 252 228 212 252 228 212 252 228 
212 252 228 212 252 228 212 252 228 212 252 228 212 252 228 212 252 228 
212 252 228 212 252 228 212 252 228 212 252 228 212 252 228 212 252 228 
212 252 228 212 252 228 212 252 228 212 252 228 212 252 228 212 252 228 
212 252 228 212 252 228 212 252 228 212 252 228 212 252 228 212 252 228 
212 252 228 212 252 228 212 252 228 212 252 228 212 252 228 212 252 228 
212 252 228 212 252 228 212 252 228 212 252 228 212 252 228 212 252 228 
212 252 228 212 252 228 212 252 228 212 252 228 212 252 228 212 252 228 
212 252 228 212 252 228 212 252 228 212 252 228 212 252 228 212 252 228 
212 252 228 212 252 228 212 252 228 212 252 228 212 252 228 212 252 228 
204 249 221 116 128 120 108 140 121 204 249 221 140 167 147 212 252 228 
172 211 188 183 223 195 99 121 108 122 147 132 154 188 164 164 196 180 
108 132 124 116 141 124 172 207 180 107 124 116 108 132 124 156 196 180 
212 252 228 212 252 228 212 252 228 212 252 228 212 252 228 212 252 228 
212 252 228 212 252 228 212 252 228 212 252 228 212 252 228 212 252 228 
212 252 228 212 252 228 212 252 228 212 252 228 212 252 228 212 252 228 
212 252 228 212 252 228 212 252 228 212 252 228 212 252 228 212 252 228 
212 252 228 212 252 228 212 252 228 212 252 228 212 252 228 212 252 228 
90 108 97 204 249 221 188 229 204 172 207 180 84 99 88 212 252 228 148 178 158 
172 195 180 100 132 108 212 252 228 212 252 228 94 116 100 199 244 212 
156 196 180 204 249 221 156 196 172 154 188 164 212 252 228 212 252 228 
212 252 228 212 252 228 212 252 228 212 252 228 212 252 228 212 252 228 
212 252 228 212 252 228 212 252 228 212 252 228 212 252 228 212 252 228 
212 252 228 212 252 228 212 252 228 212 252 228 212 252 228 212 252 228 
212 252 228 212 252 228 212 252 228 212 252 228 212 252 228 212 252 228 
212 252 228 212 252 228 212 252 228 212 252 228 212 252 228 84 99 88 212 252 228 
212 252 228 188 229 204 68 73 70 108 132 124 76 95 83 164 204 179 44 60 52 
108 132 124 164 204 179 183 223 195 116 141 124 90 108 97 199 244 212 
164 204 179 140 167 147 212 252 228 212 252 228 212 252 228 212 252 228 
212 252 228 212 252 228 212 252 228 212 252 228 212 252 228 212 252 228 
212 252 228 212 252 228 212 252 228 212 252 228 212 252 228 212 252 228 
212 252 228 212 252 228 212 252 228 212 252 228 212 252 228 212 252 228 
212 252 228 212 252 228 212 252 228 212 252 228 212 252 228 212 252 228 
212 252 228 212 252 228 212 252 228 124 148 156 140 173 156 122 147 132 
164 204 179 84 99 88 212 252 228 154 188 164 156 196 180 84 84 84 164 204 179 
182 212 189 99 121 108 172 207 180 99 121 108 188 229 204 156 188 172 
154 188 164 212 252 228 212 252 228 212 252 228 212 252 228 212 252 228 
212 252 228 212 252 228 212 252 228 212 252 228 212 252 228 212 252 228 
212 252 228 212 252 228 212 252 228 212 252 228 212 252 228 212 252 228 
212 252 228 212 252 228 212 252 228 212 252 228 212 252 228 212 252 228 
212 252 228 212 252 228 212 252 228 212 252 228 212 252 228 212 252 228 
212 252 228 212 252 228 212 252 228 172 207 180 182 212 189 212 252 228 
196 235 209 212 252 228 199 244 212 204 249 221 172 207 180 164 204 179 
172 211 188 212 244 221 156 196 172 196 235 209 204 249 221 204 249 221 
199 244 212 212 252 228 212 252 228 212 252 228 212 252 228 212 252 228 
212 252 228 212 252 228 212 252 228 212 252 228 212 252 228 212 252 228 
212 252 228 212 252 228 212 252 228 212 252 228 212 252 228 212 252 228 
212 252 228 212 252 228 212 252 228 212 252 228 212 252 228 212 252 228 
212 252 228 212 252 228 212 252 228 212 252 228 212 252 228 212 252 228 
212 252 228 212 252 228 212 252 228 212 252 228 212 252 228 212 252 228 
212 252 228 212 252 228 212 252 228 212 252 228 212 252 228 212 252 228 
212 252 228 212 252 228 212 252 228 212 252 228 212 252 228 212 252 228 
212 252 228 212 252 228 212 252 228 212 252 228 212 252 228 212 252 228 
212 252 228 212 252 228 212 252 228 212 252 228 212 252 228 212 252 228 
212 252 228 212 252 228 212 252 228 212 252 228 212 252 228 212 252 228 
212 252 228 212 252 228 212 252 228 212 252 228 212 252 228 212 252 228 
212 252 228 212 252 228 212 252 228 212 252 228 212 252 228 212 252 228 
212 252 228 212 252 228 212 252 228 212 252 228 212 252 228 212 252 228 
212 252 228 212 252 228 212 252 228 212 252 228 212 252 228 212 252 228 
212 252 228 212 252 228 212 252 228 212 252 228 212 252 228 212 252 228 
212 252 228 212 252 228 212 252 228 212 252 228 212 252 228 212 252 228 
212 252 228 212 252 228 212 252 228 212 252 228 212 252 228 212 252 228 
212 252 228 212 252 228 212 252 228 212 252 228 212 252 228 212 252 228 
212 252 228 212 252 228 212 252 228 212 252 228 212 252 228 212 252 228 
212 252 228 212 252 228 212 252 228 212 252 228 212 252 228 212 252 228 
212 252 228 212 252 228 212 252 228 212 252 228 212 252 228 212 252 228 
212 252 228 212 252 228 212 252 228 212 252 228 212 252 228 212 252 228 
212 252 228 212 252 228 212 252 228 212 252 228 212 252 228 212 252 228 
212 252 228 212 252 228 212 252 228 212 252 228 212 252 228 212 252 228 
212 252 228 212 252 228 212 252 228 212 252 228 212 252 228 212 252 228 
212 252 228 212 252 228 212 252 228 212 252 228 212 252 228 212 252 228 
212 252 228 212 252 228 212 252 228 212 252 228 212 252 228 212 252 228 
212 252 228 212 252 228 212 252 228 212 252 228 212 252 228 212 252 228 
212 252 228 212 252 228 212 252 228 212 252 228 212 252 228 212 252 228 
212 252 228 212 252 228 212 252 228 212 252 228 212 252 228 212 252 228 
212 252 228 212 252 228 212 252 228 212 252 228 212 252 228 212 252 228 
212 252 228 212 252 228 212 252 228 212 252 228 212 252 228 212 252 228 
212 252 228 212 252 228 212 252 228 212 252 228 212 252 228 212 252 228 
212 252 228 212 252 228 212 252 228 212 252 228 212 252 228 212 252 228 
212 252 228 212 252 228 212 252 228 212 252 228 212 252 228 212 252 228 
212 252 228 212 252 228 212 252 228 212 252 228 212 252 228 212 252 228 
212 252 228 212 252 228 212 252 228 212 252 228 212 252 228 212 252 228 
212 252 228 212 252 228 212 252 228 212 252 228 212 252 228 212 252 228 
212 252 228 212 252 228 212 252 228 212 252 228 212 252 228 212 252 228 
212 252 228 212 252 228 212 252 228 212 252 228 212 252 228 212 252 228 
212 252 228 212 252 228 212 252 228 212 252 228 212 252 228 212 252 228 
212 252 228 212 252 228 212 252 228 212 252 228 212 252 228 212 252 228 
212 252 228 212 252 228 212 252 228 212 252 228 212 252 228 212 252 228 
212 252 228 212 252 228 212 252 228 212 252 228 212 252 228 212 252 228 
212 252 228 212 252 228 212 252 228 212 252 228 212 252 228 212 252 228 
212 252 228 212 252 228 212 252 228 212 252 228 212 252 228 212 252 228 
212 252 228 212 252 228 212 252 228 212 252 228 212 252 228 212 252 228 
212 252 228 212 252 228 212 252 228 212 252 228 212 252 228 212 252 228 
212 252 228 212 252 228 212 252 228 212 252 228 212 252 228 212 252 228 
212 252 228 212 252 228 212 252 228 212 252 228 212 252 228 212 252 228 
212 252 228 212 252 228 212 252 228 212 252 228 212 252 228 212 252 228 
212 252 228 212 252 228 212 252 228 212 252 228 212 252 228 212 252 228 
212 252 228 212 252 228 212 252 228 212 252 228 212 252 228 212 252 228 
212 252 228 212 252 228 212 252 228 212 252 228 212 252 228 212 252 228 
212 252 228 212 252 228 212 252 228 212 252 228 212 252 228 212 252 228 
212 252 228 212 252 228 212 252 228 212 252 228 212 252 228 212 252 228 
212 252 228 212 252 228 212 252 228 212 252 228 212 252 228 212 252 228 
212 252 228 212 252 228 212 252 228 212 252 228 212 252 228 212 252 228 
212 252 228 212 252 228 212 252 228 212 252 228 212 252 228 212 252 228 
212 252 228 212 252 228 212 252 228 212 252 228 212 252 228 212 252 228 
212 252 228 212 252 228 212 252 228 212 252 228 212 252 228 212 252 228 
212 252 228 212 252 228 212 252 228 212 252 228 212 252 228 212 252 228 
212 252 228 212 252 228 212 252 228 212 252 228 212 252 228 212 252 228 
212 252 228 212 252 228 212 252 228 212 252 228 212 252 228 212 252 228 
212 252 228 212 252 228 212 252 228 212 252 228 212 252 228 212 252 228 
212 252 228 212 252 228 212 252 228 212 252 228 212 252 228 212 252 228 
212 252 228 212 252 228 212 252 228 212 252 228 212 252 228 212 252 228 
212 252 228 212 252 228 212 252 228 212 252 228 212 252 228 212 252 228 
212 252 228 212 252 228 212 252 228 212 252 228 212 252 228 212 252 228 
212 252 228 212 252 228 212 252 228 212 252 228 212 252 228 212 252 228 
212 252 228 212 252 228 212 252 228 212 252 228 212 252 228 212 252 228 
212 252 228 212 252 228 212 252 228 212 252 228 212 252 228 212 252 228 
212 252 228 212 252 228 212 252 228 212 252 228 212 252 228 212 252 228 
212 252 228 212 252 228 212 252 228 212 252 228 212 252 228 212 252 228 
212 252 228 212 252 228 212 252 228 212 252 228 212 252 228 212 252 228 
212 252 228 212 252 228 212 252 228 212 252 228 212 252 228 212 252 228 
212 252 228 212 252 228 212 252 228 212 252 228 212 252 228 212 252 228 
212 252 228 212 252 228 212 252 228 212 252 228 212 252 228 212 252 228 
212 252 228 212 252 228 212 252 228 212 252 228 212 252 228 212 252 228 
212 252 228 212 252 228 212 252 228 212 252 228 212 252 228 212 252 228 
212 252 228 212 252 228 212 252 228 212 252 228 212 252 228 212 252 228 
212 252 228 212 252 228 212 252 228 212 252 228 212 252 228 212 252 228 
212 252 228 185 194 190 164 196 180 164 196 180 139 163 191 124 171 180 
124 171 180 140 172 196 124 171 180 124 171 180 124 171 180 124 171 180 
124 171 180 140 172 196 124 171 180 124 171 180 140 172 196 124 171 180 
140 172 196 124 171 180 164 196 180 185 194 190 185 194 190 164 196 180 
185 194 190 185 194 190 124 171 180 124 171 180 140 172 196 124 171 180 
124 171 180 124 171 180 124 171 180 140 172 196 124 171 180 140 172 196 
124 171 180 140 172 196 124 171 180 124 171 180 140 172 196 124 148 156 
188 196 212 188 196 212 164 196 180 212 252 228 212 252 228 212 252 228 
212 252 228 185 194 190 247 244 244 247 244 244 100 147 196 60 164 252 
60 164 252 60 164 252 60 164 252 60 164 252 60 164 252 60 164 252 60 164 252 
60 164 252 60 164 252 60 164 252 60 164 252 60 164 252 60 164 252 46 123 196 
247 244 244 178 178 178 207 211 207 188 196 212 196 196 195 247 244 244 
46 123 196 60 164 252 60 164 252 60 164 252 60 164 252 60 164 252 60 164 252 
60 164 252 60 164 252 60 164 252 60 164 252 60 164 252 60 164 252 60 164 252 
60 164 252 85 147 188 247 244 244 247 244 244 172 195 180 212 252 228 
212 252 228 212 252 228 212 252 228 172 195 180 236 236 237 247 244 244 
85 147 188 60 164 252 60 164 252 60 164 252 60 164 252 60 164 252 60 164 252 
60 164 252 60 164 252 60 164 252 60 164 252 60 164 252 60 164 252 60 164 252 
60 164 252 46 123 196 196 188 193 133 155 141 132 124 126 132 124 126 
161 169 163 188 196 212 46 123 196 60 164 252 60 164 252 60 164 252 60 164 252 
60 164 252 60 164 252 60 164 252 60 164 252 60 164 252 60 164 252 60 164 252 
60 164 252 60 164 252 60 164 252 91 146 196 236 236 237 247 244 244 
172 195 180 212 252 228 212 252 228 212 252 228 212 252 228 196 196 195 
52 52 51 84 84 84 91 146 196 60 164 252 60 164 252 60 164 252 60 164 252 
60 164 252 60 164 252 60 164 252 60 164 252 60 164 252 60 164 252 60 164 252 
60 164 252 60 164 252 60 164 252 46 123 196 188 196 212 196 188 193 
42 50 44 84 84 84 196 196 195 196 196 195 46 123 196 60 164 252 60 164 252 
60 164 252 60 164 252 60 164 252 60 164 252 60 164 252 4 177 240 60 164 252 
60 164 252 60 164 252 60 164 252 60 164 252 60 164 252 85 147 188 52 52 51 
68 73 70 172 195 180 212 252 228 212 252 228 212 252 228 212 252 228 
185 194 190 178 178 178 188 229 204 91 146 196 60 164 252 60 164 252 
60 164 252 4 177 240 60 164 252 60 164 252 60 164 252 4 177 240 60 164 252 
60 164 252 4 177 240 60 164 252 60 164 252 60 164 252 46 123 196 196 196 195 
196 196 195 178 178 178 207 211 207 185 194 190 196 196 195 46 123 196 
60 164 252 60 164 252 60 164 252 4 177 240 60 164 252 60 164 252 60 164 252 
60 164 252 60 164 252 60 164 252 60 164 252 60 164 252 60 164 252 60 164 252 
91 146 196 178 178 178 196 196 195 172 195 180 212 252 228 212 252 228 
212 252 228 212 252 228 185 194 190 247 244 244 247 244 244 100 147 196 
60 164 252 60 164 252 60 164 252 60 164 252 60 164 252 60 164 252 60 164 252 
60 164 252 60 164 252 60 164 252 60 164 252 60 164 252 60 164 252 60 164 252 
46 123 196 185 194 190 162 156 162 196 196 195 196 196 195 178 178 178 
196 188 193 46 123 196 60 164 252 60 164 252 60 164 252 60 164 252 60 164 252 
60 164 252 60 164 252 60 164 252 60 164 252 60 164 252 4 177 240 60 164 252 
60 164 252 60 164 252 85 147 188 247 244 244 247 244 244 172 195 180 
212 252 228 212 252 228 212 252 228 212 252 228 161 169 163 207 211 207 
196 196 195 72 108 140 4 142 195 46 123 196 46 123 196 46 123 196 46 123 196 
46 123 196 46 123 196 46 123 196 46 123 196 46 123 196 46 123 196 46 123 196 
46 123 196 4 132 180 36 92 145 161 169 163 247 244 244 247 244 244 247 244 244 
247 244 244 133 155 141 4 95 132 46 123 196 46 123 196 46 123 196 46 123 196 
46 123 196 46 123 196 46 123 196 46 123 196 46 123 196 46 123 196 46 123 196 
46 123 196 46 123 196 46 123 196 73 119 156 196 196 195 207 211 207 
161 169 163 212 252 228 212 252 228 212 252 228 212 252 228 172 195 180 
148 140 146 178 178 178 91 146 196 60 156 252 60 164 252 60 156 252 60 164 252 
60 156 252 60 164 252 60 156 252 60 164 252 60 156 252 60 164 252 60 156 252 
60 164 252 60 156 252 60 164 252 46 123 196 196 196 195 247 244 244 
185 194 190 178 178 178 247 244 244 207 211 207 46 123 196 60 156 252 
60 164 252 60 156 252 60 156 252 60 164 252 60 156 252 60 156 252 60 164 252 
60 156 252 60 156 252 60 164 252 60 156 252 60 156 252 60 164 252 148 170 195 
247 244 244 247 244 244 172 195 180 212 252 228 212 252 228 212 252 228 
212 252 228 185 194 190 28 36 28 84 84 84 100 147 196 60 164 252 60 156 252 
60 164 252 60 156 252 60 164 252 60 156 252 60 164 252 60 156 252 60 164 252 
60 156 252 60 164 252 60 156 252 60 164 252 60 156 252 46 123 196 196 196 195 
196 196 195 196 196 195 178 178 178 220 223 224 196 188 193 46 123 196 
60 164 252 60 156 252 60 164 252 60 164 252 60 156 252 60 164 252 4 177 240 
60 156 252 60 164 252 60 164 252 60 156 252 60 164 252 60 164 252 60 156 252 
140 172 196 247 244 244 247 244 244 172 195 180 212 252 228 212 252 228 
212 252 228 212 252 228 196 196 195 247 244 244 247 244 244 100 147 196 
60 156 252 60 164 252 60 156 252 60 164 252 60 164 252 60 164 252 60 156 252 
60 164 252 60 156 252 60 164 252 60 156 252 60 164 252 60 156 252 60 164 252 
46 123 196 178 178 178 247 244 244 196 196 195 196 188 193 247 244 244 
188 196 212 46 123 196 60 156 252 60 164 252 60 156 252 60 164 252 60 156 252 
60 164 252 68 160 252 60 164 252 60 156 252 60 156 252 60 164 252 60 156 252 
60 164 252 60 156 252 140 172 196 247 244 244 247 244 244 172 211 188 
212 252 228 212 252 228 212 252 228 212 252 228 182 212 189 247 244 244 
247 244 244 91 146 196 60 156 252 60 164 252 60 164 252 60 156 252 60 164 252 
60 156 252 4 177 240 60 156 252 60 164 252 60 156 252 60 164 252 60 156 252 
60 164 252 60 156 252 46 123 196 196 196 195 196 196 195 162 156 162 
161 169 163 207 211 207 196 188 193 46 123 196 60 164 252 60 156 252 
60 164 252 60 156 252 60 164 252 60 156 252 60 164 252 60 156 252 60 164 252 
60 164 252 60 156 252 60 164 252 60 156 252 60 164 252 140 172 196 247 244 244 
247 244 244 172 195 180 212 252 228 212 252 228 212 252 228 212 252 228 
185 194 190 247 244 244 247 244 244 100 147 196 60 164 252 60 156 252 
60 156 252 60 164 252 60 156 252 60 164 252 68 160 252 60 164 252 60 156 252 
60 164 252 60 156 252 60 164 252 60 156 252 60 164 252 46 123 196 236 244 244 
132 132 133 132 132 124 132 132 133 162 156 162 196 196 195 46 123 196 
60 156 252 60 164 252 60 156 252 60 164 252 60 156 252 60 164 252 60 156 252 
60 164 252 60 156 252 60 164 252 60 164 252 60 164 252 60 164 252 60 156 252 
140 172 196 247 244 244 247 244 244 172 195 180 212 252 228 212 252 228 
212 252 228 212 252 228 196 196 195 247 244 244 247 244 244 92 124 164 
46 123 196 46 123 196 46 123 196 46 123 196 46 123 196 46 123 196 46 123 196 
46 123 196 46 123 196 4 132 180 46 123 196 46 123 196 46 123 196 46 123 196 
100 140 169 196 188 193 236 236 237 228 227 227 247 244 244 228 227 227 
161 169 163 85 147 188 46 123 196 46 123 196 46 123 196 46 123 196 46 123 196 
46 123 196 46 123 196 46 123 196 46 123 196 46 123 196 46 123 196 46 123 196 
46 123 196 46 123 196 148 170 195 247 244 244 247 244 244 172 195 180 
212 252 228 212 252 228 212 252 228 212 252 228 172 195 180 207 211 207 
220 223 224 247 244 244 247 244 244 247 244 244 236 244 244 247 244 244 
247 244 244 133 155 141 236 244 244 247 244 244 247 244 244 247 244 244 
247 244 244 236 244 244 236 244 244 132 132 133 247 244 244 247 244 244 
247 244 244 28 36 36 100 100 100 247 244 244 247 244 244 247 244 244 
132 132 133 236 244 244 236 244 244 247 244 244 236 244 244 247 244 244 
247 244 244 228 227 227 140 173 156 247 244 244 236 244 244 247 244 244 
247 244 244 247 244 244 247 244 244 196 196 195 207 211 207 172 195 180 
212 252 228 212 252 228 212 252 228 212 252 228 185 194 190 28 36 28 84 84 84 
247 244 244 247 244 244 247 244 244 247 244 244 247 244 244 220 223 224 
4 4 4 162 156 162 247 244 244 247 244 244 247 244 244 247 244 244 247 244 244 
132 132 133 132 132 133 247 244 244 247 244 244 247 244 244 116 128 120 
162 156 162 247 244 244 247 244 244 247 244 244 60 74 68 196 188 193 
247 244 244 247 244 244 247 244 244 247 244 244 247 244 244 107 124 116 
4 4 4 247 244 244 247 244 244 247 244 244 247 244 244 247 244 244 247 244 244 
52 52 51 68 66 60 185 194 190 212 252 228 212 252 228 212 252 228 212 252 228 
196 196 195 220 223 224 247 244 244 236 236 237 196 196 195 207 211 207 
196 196 195 196 196 195 196 196 195 122 147 132 196 188 193 196 196 195 
196 196 195 207 211 207 196 196 195 207 211 207 196 196 195 148 140 146 
247 244 244 247 244 244 247 244 244 36 36 28 100 100 100 247 244 244 
247 244 244 247 244 244 116 128 120 196 196 195 196 196 195 207 211 207 
196 196 195 207 211 207 196 196 195 178 178 178 148 140 146 196 196 195 
207 211 207 196 196 195 207 211 207 196 196 195 236 236 237 236 236 237 
236 236 237 164 196 180 212 252 228 212 252 228 212 252 228 212 252 228 
185 194 190 247 244 244 247 244 244 91 146 196 60 156 252 60 156 252 
60 164 252 60 156 252 68 160 252 60 164 252 60 164 252 60 156 252 60 164 252 
60 156 252 60 164 252 60 156 252 60 156 252 60 156 252 156 196 180 247 244 244 
247 244 244 247 244 244 247 244 244 247 244 244 236 236 237 124 156 196 
60 156 252 60 156 252 60 164 252 60 156 252 60 156 252 60 164 252 60 156 252 
60 156 252 60 164 252 60 156 252 60 164 252 60 156 252 60 164 252 60 156 252 
140 172 196 247 244 244 247 244 244 172 195 180 212 252 228 212 252 228 
212 252 228 212 252 228 172 195 180 247 244 244 247 244 244 100 147 196 
60 156 252 60 164 252 60 156 252 60 164 252 60 164 252 68 160 252 60 156 252 
60 164 252 68 160 252 60 164 252 60 156 252 60 164 252 60 156 252 60 164 252 
60 156 252 52 134 216 46 123 196 100 147 196 91 146 196 52 134 216 52 134 216 
60 164 252 60 156 252 60 164 252 60 156 252 60 164 252 60 164 252 60 156 252 
60 164 252 60 164 252 60 156 252 60 164 252 60 156 252 60 164 252 60 156 252 
60 164 252 140 172 196 247 244 244 247 244 244 172 195 180 212 252 228 
212 252 228 212 252 228 212 252 228 182 212 189 247 244 244 247 244 244 
100 147 196 60 164 252 60 156 252 60 164 252 60 156 252 60 164 252 60 156 252 
60 164 252 60 156 252 60 164 252 60 156 252 60 164 252 60 156 252 60 164 252 
60 156 252 60 164 252 60 156 252 60 164 252 60 156 252 60 164 252 60 156 252 
60 164 252 60 156 252 60 164 252 60 156 252 60 164 252 60 156 252 60 164 252 
60 156 252 60 164 252 60 156 252 60 164 252 60 156 252 60 164 252 60 156 252 
60 164 252 68 160 252 140 172 196 247 244 244 247 244 244 172 195 180 
212 252 228 212 252 228 212 252 228 212 252 228 185 194 190 247 244 244 
247 244 244 91 146 196 60 156 252 60 164 252 60 156 252 60 164 252 60 156 252 
60 164 252 60 156 252 60 164 252 60 156 252 60 164 252 60 156 252 60 164 252 
60 156 252 60 164 252 60 156 252 60 164 252 60 156 252 60 164 252 60 156 252 
60 164 252 60 156 252 60 164 252 60 156 252 60 164 252 60 156 252 60 164 252 
60 156 252 60 164 252 60 156 252 60 164 252 60 156 252 60 164 252 60 156 252 
60 164 252 60 156 252 60 164 252 148 170 195 247 244 244 247 244 244 
172 211 188 212 252 228 212 252 228 212 252 228 212 252 228 182 212 189 
247 244 244 247 244 244 100 147 196 60 156 252 60 164 252 60 164 252 
60 156 252 60 164 252 60 156 252 60 164 252 60 156 252 60 164 252 60 156 252 
60 164 252 60 156 252 60 164 252 60 156 252 60 164 252 60 156 252 60 164 252 
60 156 252 60 164 252 60 156 252 60 164 252 60 156 252 60 164 252 60 156 252 
60 164 252 60 156 252 60 164 252 60 156 252 60 164 252 60 156 252 60 164 252 
60 156 252 60 164 252 60 156 252 60 164 252 60 156 252 148 170 195 247 244 244 
247 244 244 172 195 180 212 252 228 212 252 228 212 252 228 212 252 228 
196 196 195 107 124 116 161 169 163 91 146 196 60 164 252 60 156 252 
60 164 252 60 164 252 60 156 252 60 164 252 60 156 252 60 164 252 60 156 252 
60 164 252 60 156 252 60 164 252 60 156 252 60 164 252 60 156 252 60 164 252 
60 156 252 60 164 252 60 156 252 60 164 252 60 156 252 60 164 252 60 156 252 
60 164 252 60 156 252 60 164 252 60 156 252 60 164 252 60 156 252 60 164 252 
60 156 252 60 164 252 60 156 252 60 164 252 60 156 252 60 164 252 140 172 196 
132 132 133 162 156 162 164 196 180 212 252 228 212 252 228 212 252 228 
212 252 228 185 194 190 84 84 84 113 108 116 85 147 188 60 156 252 60 164 252 
60 156 252 60 164 252 60 164 252 60 156 252 60 164 252 60 156 252 60 164 252 
60 156 252 60 164 252 60 156 252 60 164 252 60 156 252 60 164 252 60 156 252 
60 164 252 60 156 252 60 164 252 60 156 252 60 164 252 60 156 252 60 164 252 
60 156 252 60 164 252 60 156 252 60 164 252 60 156 252 60 164 252 60 156 252 
60 164 252 60 156 252 60 164 252 60 156 252 60 164 252 60 156 252 140 172 196 
84 84 84 100 100 100 172 195 180 212 252 228 212 252 228 212 252 228 
212 252 228 172 195 180 247 244 244 247 244 244 100 147 196 60 164 252 
60 156 252 60 164 252 60 156 252 60 164 252 60 164 252 60 156 252 60 164 252 
60 156 252 60 164 252 60 156 252 60 164 252 60 156 252 60 164 252 60 156 252 
60 164 252 60 156 252 60 164 252 60 156 252 60 164 252 60 156 252 60 164 252 
60 156 252 60 164 252 60 156 252 60 164 252 60 156 252 60 164 252 60 156 252 
60 164 252 60 156 252 60 164 252 60 156 252 60 164 252 60 156 252 60 164 252 
140 172 196 247 244 244 247 244 244 172 195 180 212 252 228 212 252 228 
212 252 228 212 252 228 182 212 189 247 244 244 247 244 244 100 147 196 
60 156 252 60 164 252 60 156 252 60 164 252 60 156 252 60 164 252 60 164 252 
60 156 252 60 164 252 60 156 252 60 164 252 60 156 252 60 164 252 60 156 252 
60 164 252 60 156 252 60 164 252 60 156 252 60 164 252 60 156 252 60 164 252 
60 156 252 60 164 252 60 164 252 60 164 252 60 156 252 60 164 252 60 156 252 
60 164 252 60 156 252 60 164 252 60 156 252 60 164 252 60 156 252 60 164 252 
60 156 252 148 170 195 247 244 244 247 244 244 172 195 180 212 252 228 
212 252 228 212 252 228 212 252 228 185 194 190 247 244 244 247 244 244 
91 146 196 60 164 252 60 164 252 60 164 252 60 164 252 60 164 252 60 156 252 
4 177 240 60 164 252 60 156 252 60 164 252 60 156 252 4 177 240 68 160 252 
60 164 252 60 156 252 60 164 252 60 156 252 60 164 252 60 164 252 60 164 252 
60 156 252 60 164 252 60 156 252 60 164 252 60 156 252 4 177 240 68 160 252 
60 164 252 60 156 252 4 177 240 68 160 252 60 164 252 60 156 252 60 164 252 
60 156 252 60 164 252 140 172 196 247 244 244 247 244 244 172 211 188 
212 252 228 212 252 228 212 252 228 212 252 228 182 212 189 247 244 244 
247 244 244 91 146 196 60 164 252 60 156 252 60 156 252 60 164 252 60 156 252 
60 164 252 68 160 252 60 164 252 60 164 252 60 156 252 60 164 252 68 160 252 
60 164 252 60 156 252 60 164 252 60 156 252 60 164 252 60 156 252 60 164 252 
68 160 252 4 177 240 60 156 252 60 164 252 60 156 252 60 164 252 60 156 252 
60 164 252 60 156 252 60 164 252 68 160 252 60 164 252 60 156 252 60 164 252 
60 156 252 60 164 252 60 164 252 148 170 195 247 244 244 247 244 244 
172 195 180 212 252 228 212 252 228 212 252 228 212 252 228 196 196 195 
247 244 244 247 244 244 100 147 196 60 156 252 60 164 252 60 164 252 
60 156 252 60 164 252 60 156 252 60 164 252 60 156 252 60 164 252 60 164 252 
60 156 252 60 164 252 60 156 252 60 164 252 60 156 252 60 164 252 60 156 252 
60 164 252 60 156 252 60 164 252 60 156 252 60 164 252 60 156 252 60 164 252 
60 156 252 60 164 252 60 156 252 60 164 252 60 156 252 60 164 252 60 156 252 
60 164 252 60 156 252 60 164 252 60 156 252 60 164 252 140 172 196 247 244 244 
247 244 244 172 195 180 212 252 228 212 252 228 212 252 228 212 252 228 
185 194 190 247 244 244 247 244 244 188 196 212 140 172 196 140 172 196 
140 172 196 140 172 196 140 172 196 140 172 196 140 172 196 140 172 196 
140 172 196 140 172 196 140 172 196 140 172 196 140 172 196 140 172 196 
140 172 196 140 172 196 124 171 180 140 172 196 140 172 196 148 170 195 
140 172 196 140 172 196 140 172 196 140 172 196 140 172 196 140 172 196 
140 172 196 148 170 195 140 172 196 140 172 196 140 172 196 140 172 196 
140 172 196 140 172 196 140 172 196 140 172 196 207 211 207 247 244 244 
247 244 244 172 195 180 212 252 228 212 252 228 212 252 228 212 252 228 
185 194 190 44 60 52 84 84 84 247 244 244 247 244 244 247 244 244 247 244 244 
247 244 244 236 236 237 4 4 4 161 169 163 247 244 244 247 244 244 247 244 244 
247 244 244 247 244 244 133 155 141 12 20 20 228 227 227 247 244 244 
247 244 244 247 244 244 247 244 244 247 244 244 247 244 244 220 223 224 
4 4 4 178 178 178 247 244 244 247 244 244 247 244 244 247 244 244 247 244 244 
162 156 162 10 11 20 247 244 244 247 244 244 247 244 244 247 244 244 
247 244 244 247 244 244 68 73 70 84 84 84 172 195 180 212 252 228 212 252 228 
212 252 228 212 252 228 196 196 195 148 140 146 178 178 178 247 244 244 
247 244 244 247 244 244 247 244 244 247 244 244 236 244 244 113 108 116 
207 211 207 247 244 244 247 244 244 247 244 244 247 244 244 247 244 244 
207 211 207 116 128 120 247 244 244 247 244 244 247 244 244 247 244 244 
247 244 244 247 244 244 247 244 244 247 244 244 113 108 116 212 244 221 
247 244 244 247 244 244 247 244 244 247 244 244 247 244 244 196 196 195 
100 100 100 247 244 244 247 244 244 247 244 244 247 244 244 247 244 244 
247 244 244 162 156 162 178 178 178 185 194 190 212 252 228 212 252 228 
212 252 228 212 252 228 164 204 179 172 195 180 172 195 180 172 195 180 
172 211 188 172 195 180 172 211 188 172 195 180 172 195 180 172 195 180 
172 195 180 172 195 180 172 211 188 172 195 180 172 211 188 172 195 180 
185 194 190 172 195 180 172 195 180 172 195 180 172 211 188 172 195 180 
172 211 188 172 195 180 172 207 180 172 195 180 172 195 180 185 194 190 
172 195 180 172 207 180 172 195 180 172 211 188 172 195 180 172 195 180 
172 195 180 172 195 180 172 211 188 172 195 180 172 207 180 172 195 180 
172 211 188 172 195 180 172 195 180 172 211 188 212 252 228 212 252 228 
212 252 228 212 252 228 212 252 228 212 252 228 212 252 228 212 252 228 
212 252 228 212 252 228 212 252 228 212 252 228 212 252 228 212 252 228 
212 252 228 212 252 228 212 252 228 212 252 228 212 252 228 212 252 228 
212 252 228 212 252 228 212 252 228 212 252 228 212 252 228 212 252 228 
212 252 228 212 252 228 212 252 228 212 252 228 212 252 228 212 252 228 
212 252 228 212 252 228 212 252 228 212 252 228 212 252 228 212 252 228 
212 252 228 212 252 228 212 252 228 212 252 228 212 252 228 212 252 228 
212 252 228 212 252 228 212 252 228 212 252 228 212 252 228 212 252 228 
212 252 228 212 252 228 212 252 228 212 252 228 212 252 228 212 252 228 
212 252 228 212 252 228 212 252 228 212 252 228 212 252 228 212 252 228 
212 252 228 212 252 228 212 252 228 212 252 228 212 252 228 212 252 228 
212 252 228 212 252 228 212 252 228 212 252 228 212 252 228 212 252 228 
212 252 228 212 252 228 212 252 228 212 252 228 212 252 228 212 252 228 
212 252 228 212 252 228 212 252 228 212 252 228 212 252 228 212 252 228 
212 252 228 212 252 228 212 252 228 212 252 228 212 252 228 212 252 228 
212 252 228 212 252 228 212 252 228 212 252 228 212 252 228 212 252 228 
212 252 228 212 252 228 212 252 228 212 252 228 212 252 228 212 252 228 
212 252 228 212 252 228 212 252 228 212 252 228 212 252 228 212 252 228 
212 252 228 212 252 228 212 252 228 212 252 228 212 252 228 212 252 228 
212 252 228 212 252 228 212 252 228 212 252 228 212 252 228 212 252 228 
212 252 228 212 252 228 212 252 228 212 252 228 212 252 228 212 252 228 
212 252 228 212 252 228 212 252 228 212 252 228 212 252 228 212 252 228 
212 252 228 212 252 228 212 252 228 212 252 228 212 252 228 212 252 228 
212 252 228 212 252 228 212 252 228 212 252 228 212 252 228 212 252 228 
212 252 228 212 252 228 212 252 228 212 252 228 212 252 228 212 252 228 
212 252 228 212 252 228 212 252 228 212 252 228 212 252 228 212 252 228 
212 252 228 212 252 228 212 252 228 212 252 228 212 252 228 212 252 228 
212 252 228 212 252 228 212 252 228 212 252 228 212 252 228 212 252 228 
212 252 228 212 252 228 212 252 228 212 252 228 212 252 228 212 252 228 
212 252 228 212 252 228 212 252 228 212 252 228 212 252 228 212 252 228 
212 252 228 212 252 228 212 252 228 212 252 228 212 252 228 212 252 228 
212 252 228 212 252 228 212 252 228 212 252 228 212 252 228 212 252 228 
212 252 228 212 252 228 212 252 228 212 252 228 212 252 228 212 252 228 
212 252 228 212 252 228 212 252 228 212 252 228 212 252 228 212 252 228 
212 252 228 212 252 228 212 252 228 212 252 228 212 252 228 212 252 228 
212 252 228 212 252 228 212 252 228 212 252 228 212 252 228 212 252 228 
212 252 228 212 252 228 212 252 228 212 252 228 212 252 228 212 252 228 
212 252 228 212 252 228 212 252 228 212 252 228 212 252 228 212 252 228 
212 252 228 212 252 228 212 252 228 212 252 228 212 252 228 212 252 228 
212 252 228 212 252 228 212 252 228 212 252 228 212 252 228 212 252 228 
212 252 228 212 252 228 212 252 228 212 252 228 212 252 228 212 252 228 
212 252 228 212 252 228 212 252 228 212 252 228 212 252 228 212 252 228 
212 252 228 212 252 228 212 252 228 212 252 228 212 252 228 212 252 228 
212 252 228 212 252 228 212 252 228 212 252 228 212 252 228 212 252 228 
212 252 228 212 252 228 212 252 228 212 252 228 212 252 228 212 252 228 
212 252 228 212 252 228 212 252 228 212 252 228 212 252 228 212 252 228 
212 252 228 212 252 228 212 252 228 212 252 228 212 252 228 212 252 228 
212 252 228 212 252 228 212 252 228 212 252 228 212 252 228 212 252 228 
212 252 228 212 252 228 212 252 228 212 252 228 212 252 228 212 252 228 
212 252 228 212 252 228 212 252 228 212 252 228 212 252 228 212 252 228 
212 252 228 212 252 228 212 252 228 212 252 228 212 252 228 212 252 228 
212 252 228 212 252 228 212 252 228 212 252 228 212 252 228 212 252 228 
212 252 228 212 252 228 212 252 228 212 252 228 212 252 228 212 252 228 
212 252 228 212 252 228 212 252 228 212 252 228 212 252 228 212 252 228 
212 252 228 212 252 228 212 252 228 212 252 228 212 252 228 212 252 228 
212 252 228 212 252 228 212 252 228 212 252 228 212 252 228 212 252 228 
212 252 228 212 252 228 212 252 228 212 252 228 212 252 228 212 252 228 
212 252 228 212 252 228 212 252 228 212 252 228 212 252 228 212 252 228 
212 252 228 212 252 228 212 252 228 212 252 228 212 252 228 212 252 228 
212 252 228 212 252 228 212 252 228 212 252 228 212 252 228 212 252 228 
212 252 228 212 252 228 212 252 228 212 252 228 212 252 228 212 252 228 
212 252 228 212 252 228 212 252 228 212 252 228 212 252 228 212 252 228 
212 252 228 212 252 228 212 252 228 212 252 228 212 252 228 212 252 228 
212 252 228 212 252 228 212 252 228 212 252 228 212 252 228 212 252 228 
212 252 228 212 252 228 212 252 228 212 252 228 212 252 228 212 252 228 
212 252 228 212 252 228 212 252 228 212 252 228 212 252 228 212 252 228 
212 252 228 212 252 228 212 252 228 212 252 228 212 252 228 212 252 228 
212 252 228 212 252 228 212 252 228 212 252 228 212 252 228 212 252 228 
212 252 228 212 252 228 212 252 228 212 252 228 212 252 228 212 252 228 
212 252 228 212 252 228 212 252 228 212 252 228 212 252 228 212 252 228 
212 252 228 212 252 228 212 252 228 212 252 228 212 252 228 212 252 228 
212 252 228 212 252 228 212 252 228 212 252 228 212 252 228 212 252 228 
212 252 228 212 252 228 212 252 228 212 252 228 212 252 228 212 252 228 
212 252 228 212 252 228 212 252 228 212 252 228 212 252 228 212 252 228 
212 252 228 212 252 228 212 252 228 212 252 228 212 252 228 212 252 228 
212 252 228 212 252 228 212 252 228 212 252 228 212 252 228 212 252 228 
212 252 228 212 252 228 212 252 228 212 252 228 212 252 228 212 252 228 
212 252 228 212 252 228 212 252 228 212 252 228 212 252 228 212 252 228 
212 252 228 212 252 228 212 252 228 212 252 228 212 252 228 212 252 228 
212 252 228 212 252 228 212 252 228 212 252 228 212 252 228 212 252 228 
212 252 228 212 252 228 212 252 228 212 252 228 212 252 228 212 252 228 
212 252 228 212 252 228 212 252 228 212 252 228 212 252 228 212 252 228 
212 252 228 212 252 228 212 252 228 212 252 228 212 252 228 212 252 228 
212 252 228 212 252 228 212 252 228 212 252 228 212 252 228 212 252 228 
212 252 228 212 252 228 212 252 228 212 252 228 212 252 228 212 252 228 
212 252 228 212 252 228 212 252 228 212 252 228 212 252 228 212 252 228 
212 252 228 212 252 228 212 252 228 212 252 228 212 252 228 212 252 228 
212 252 228 212 252 228 212 252 228 212 252 228 212 252 228 212 252 228 
