P3
48 76
255
212 252 228 212 252 228 212 252 228 212 252 228 212 252 228 212 252 228 
212 252 228 212 252 228 212 252 228 212 252 228 212 252 228 212 252 228 
212 252 228 212 252 228 212 252 228 212 252 228 212 252 228 212 252 228 
212 252 228 212 252 228 212 252 228 212 252 228 212 252 228 212 252 228 
212 252 228 212 252 228 212 252 228 212 252 228 212 252 228 212 252 228 
212 252 228 212 252 228 212 252 228 212 252 228 212 252 228 212 252 228 
212 252 228 212 252 228 212 252 228 212 252 228 212 252 228 212 252 228 
212 252 228 212 252 228 212 252 228 212 252 228 212 252 228 212 252 228 
212 252 228 212 252 228 212 252 228 212 252 228 212 252 228 212 252 228 
212 252 228 212 252 228 212 252 228 212 252 228 212 252 228 212 252 228 
212 252 228 212 252 228 212 252 228 212 252 228 212 252 228 212 252 228 
212 252 228 212 252 228 212 252 228 212 252 228 212 252 228 212 252 228 
212 252 228 212 252 228 212 252 228 212 252 228 212 252 228 212 252 228 
212 252 228 212 252 228 212 252 228 212 252 228 212 252 228 212 252 228 
212 252 228 212 252 228 212 252 228 212 252 228 212 252 228 212 252 228 
212 252 228 212 252 228 212 252 228 212 252 228 212 252 228 212 252 228 
212 252 228 212 252 228 212 252 228 212 252 228 212 252 228 212 252 228 
212 252 228 212 252 228 212 252 228 212 252 228 212 252 228 212 252 228 
212 252 228 212 252 228 212 252 228 212 252 228 212 252 228 212 252 228 
212 252 228 212 252 228 212 252 228 212 252 228 212 252 228 212 252 228 
212 252 228 212 252 228 212 252 228 212 252 228 212 252 228 212 252 228 
212 252 228 212 252 228 212 252 228 212 252 228 212 252 228 212 252 228 
212 252 228 212 252 228 212 252 228 212 252 228 212 252 228 212 252 228 
212 252 228 212 252 228 212 252 228 212 252 228 212 252 228 212 252 228 
212 252 228 212 252 228 212 252 228 212 252 228 212 252 228 212 252 228 
212 252 228 212 252 228 212 252 228 212 252 228 212 252 228 107 124 116 
108 140 121 116 141 124 182 212 189 156 196 180 212 252 228 164 196 180 
99 121 108 116 128 120 172 211 188 132 164 144 108 140 121 116 128 120 
156 196 180 99 121 108 90 108 97 156 196 180 84 99 88 108 132 124 107 124 116 
199 244 212 140 173 156 156 188 172 100 132 108 94 116 100 204 249 221 
212 252 228 212 252 228 212 252 228 212 252 228 212 252 228 212 252 228 
212 252 228 212 252 228 212 252 228 212 252 228 212 252 228 212 252 228 
212 252 228 212 252 228 212 252 228 212 252 228 212 252 228 212 252 228 
212 252 228 212 252 228 212 252 228 212 252 228 99 121 108 164 196 180 
182 212 189 164 204 179 156 188 172 212 252 228 154 188 164 133 155 141 
164 204 179 196 235 209 107 124 116 212 252 228 172 207 180 204 249 221 
164 204 179 154 188 164 212 252 228 90 108 97 196 235 209 90 108 97 196 235 209 
122 147 132 99 121 108 212 252 228 196 235 209 196 235 209 212 252 228 
212 252 228 212 252 228 212 252 228 212 252 228 212 252 228 212 252 228 
212 252 228 212 252 228 212 252 228 212 252 228 212 252 228 212 252 228 
212 252 228 212 252 228 212 252 228 212 252 228 212 252 228 212 252 228 
212 252 228 212 252 228 212 252 228 90 108 97 148 178 158 154 188 164 
156 196 180 156 188 172 212 252 228 156 188 172 108 140 121 140 173 156 
183 223 195 108 140 121 212 252 228 182 212 189 204 249 221 156 196 180 
154 188 164 212 252 228 69 84 75 124 156 136 76 95 83 188 229 204 124 156 136 
99 121 108 212 252 228 199 244 212 182 212 189 212 252 228 212 252 228 
212 252 228 212 252 228 212 252 228 212 252 228 212 252 228 212 252 228 
212 252 228 212 252 228 212 252 228 212 252 228 212 252 228 212 252 228 
212 252 228 212 252 228 212 252 228 212 252 228 212 252 228 212 252 228 
212 252 228 212 252 228 90 108 97 120 164 164 140 167 147 164 204 179 
94 116 100 132 164 144 140 173 156 99 121 108 140 167 147 183 223 195 
108 126 108 124 156 136 99 121 108 212 252 228 172 207 180 154 188 164 
212 252 228 107 124 116 212 252 228 107 124 116 188 229 204 124 156 136 
124 156 136 124 156 136 99 121 108 196 244 220 212 252 228 212 252 228 
212 252 228 212 252 228 212 252 228 212 252 228 212 252 228 212 252 228 
212 252 228 212 252 228 212 252 228 212 252 228 212 252 228 212 252 228 
212 252 228 212 252 228 212 252 228 212 252 228 212 252 228 212 252 228 
212 252 228 212 252 228 212 252 228 204 249 221 196 244 220 212 252 228 
204 249 221 204 249 221 204 249 221 204 249 221 199 244 212 212 252 228 
212 252 228 199 244 212 212 252 228 212 252 228 212 252 228 212 252 228 
212 252 228 212 252 228 212 252 228 212 252 228 212 252 228 212 252 228 
212 252 228 199 244 212 212 252 228 212 252 228 212 252 228 212 252 228 
212 252 228 212 252 228 212 252 228 212 252 228 212 252 228 212 252 228 
212 252 228 212 252 228 212 252 228 212 252 228 212 252 228 212 252 228 
212 252 228 212 252 228 212 252 228 212 252 228 212 252 228 212 252 228 
212 252 228 212 252 228 212 252 228 183 223 195 212 252 228 212 252 228 
212 252 228 183 223 195 212 252 228 212 252 228 204 249 221 212 252 228 
212 252 228 204 249 221 204 249 221 212 244 221 212 252 228 212 252 228 
212 252 228 212 252 228 212 252 228 212 252 228 212 252 228 204 249 221 
212 252 228 212 252 228 212 252 228 212 252 228 212 252 228 212 252 228 
212 252 228 212 252 228 212 252 228 212 252 228 212 252 228 212 252 228 
212 252 228 212 252 228 212 252 228 212 252 228 212 252 228 212 252 228 
212 252 228 212 252 228 212 252 228 212 252 228 212 252 228 212 252 228 
212 252 228 212 252 228 99 121 108 140 167 147 94 116 100 197 236 220 
90 108 97 140 173 156 90 108 97 188 229 204 52 52 51 212 252 228 140 167 147 
99 121 108 76 95 83 124 156 136 84 99 88 212 252 228 108 132 124 122 147 132 
212 252 228 42 50 44 188 229 204 140 173 156 132 164 144 108 132 124 
199 244 212 99 121 108 212 252 228 212 252 228 212 252 228 212 252 228 
212 252 228 212 252 228 212 252 228 212 252 228 212 252 228 212 252 228 
212 252 228 212 252 228 212 252 228 212 252 228 212 252 228 212 252 228 
212 252 228 212 252 228 212 252 228 212 252 228 212 252 228 172 211 188 
140 173 156 212 252 228 199 244 212 132 164 144 182 212 189 212 252 228 
148 178 158 148 178 158 44 60 52 183 223 195 108 132 124 100 132 108 
84 99 88 154 188 164 69 84 75 212 252 228 116 128 120 100 132 108 212 252 228 
107 124 116 94 116 100 140 167 147 183 223 195 107 124 116 90 108 97 199 244 212 
212 252 228 212 252 228 212 252 228 212 252 228 212 252 228 212 252 228 
212 252 228 212 252 228 212 252 228 212 252 228 212 252 228 212 252 228 
212 252 228 212 252 228 212 252 228 212 252 228 212 252 228 212 252 228 
212 252 228 212 252 228 212 252 228 188 229 204 124 148 156 212 252 228 
140 167 147 148 178 158 156 196 180 212 252 228 132 164 144 156 188 172 
116 141 124 99 121 108 132 164 144 116 128 120 90 108 97 156 196 180 
197 236 220 164 204 179 76 95 83 69 84 75 182 212 189 99 121 108 156 188 172 
69 84 75 172 211 188 197 236 220 99 121 108 212 252 228 212 252 228 
212 252 228 212 252 228 212 252 228 212 252 228 212 252 228 212 252 228 
212 252 228 212 252 228 212 252 228 212 252 228 212 252 228 212 252 228 
212 252 228 212 252 228 212 252 228 212 252 228 212 252 228 212 252 228 
212 252 228 212 252 228 212 252 228 133 155 141 108 132 124 140 173 156 
212 252 228 122 147 132 108 132 124 133 155 141 197 236 220 154 188 164 
107 124 116 204 249 221 133 155 141 132 164 144 212 252 228 212 252 228 
140 173 156 212 244 221 212 252 228 140 173 156 133 155 141 212 252 228 
107 124 116 188 229 204 212 252 228 140 167 147 212 252 228 212 252 228 
212 252 228 212 252 228 212 252 228 212 252 228 212 252 228 212 252 228 
212 252 228 212 252 228 212 252 228 212 252 228 212 252 228 212 252 228 
212 252 228 212 252 228 212 252 228 212 252 228 212 252 228 212 252 228 
212 252 228 212 252 228 212 252 228 212 252 228 212 252 228 212 252 228 
212 252 228 212 252 228 212 252 228 212 252 228 212 252 228 212 252 228 
212 252 228 212 252 228 212 252 228 212 252 228 212 252 228 212 252 228 
212 252 228 212 252 228 212 252 228 212 252 228 212 252 228 212 252 228 
212 252 228 212 252 228 212 252 228 212 252 228 212 252 228 212 252 228 
212 252 228 212 252 228 212 252 228 212 252 228 212 252 228 212 252 228 
212 252 228 212 252 228 212 252 228 212 252 228 212 252 228 212 252 228 
212 252 228 212 252 228 212 252 228 212 252 228 212 252 228 212 252 228 
212 252 228 212 252 228 212 252 228 212 252 228 212 252 228 212 252 228 
212 252 228 212 252 228 212 252 228 212 252 228 212 252 228 212 252 228 
212 252 228 212 252 228 212 252 228 212 252 228 212 252 228 212 252 228 
212 252 228 212 252 228 212 252 228 212 252 228 212 252 228 212 252 228 
212 252 228 212 252 228 212 252 228 212 252 228 212 252 228 212 252 228 
212 252 228 212 252 228 212 252 228 212 252 228 212 252 228 212 252 228 
212 252 228 212 252 228 212 252 228 212 252 228 212 252 228 212 252 228 
212 252 228 212 252 228 212 252 228 212 252 228 212 252 228 212 252 228 
212 252 228 212 252 228 212 252 228 212 252 228 212 252 228 212 252 228 
212 252 228 212 252 228 212 252 228 212 252 228 212 252 228 212 252 228 
212 252 228 212 252 228 212 252 228 212 252 228 212 252 228 212 252 228 
212 252 228 212 252 228 212 252 228 212 252 228 212 252 228 212 252 228 
212 252 228 212 252 228 212 252 228 212 252 228 212 252 228 212 252 228 
212 252 228 212 252 228 212 252 228 212 252 228 212 252 228 212 252 228 
212 252 228 212 252 228 212 252 228 212 252 228 212 252 228 212 252 228 
212 252 228 212 252 228 212 252 228 212 252 228 212 252 228 212 252 228 
212 252 228 212 252 228 212 252 228 212 252 228 212 252 228 212 252 228 
212 252 228 212 252 228 212 252 228 212 252 228 212 252 228 212 252 228 
212 252 228 212 252 228 212 252 228 212 252 228 212 252 228 212 252 228 
212 252 228 212 252 228 212 252 228 212 252 228 212 252 228 212 252 228 
212 252 228 212 252 228 212 252 228 212 252 228 212 252 228 212 252 228 
212 252 228 212 252 228 212 252 228 212 252 228 212 252 228 212 252 228 
212 252 228 212 252 228 212 252 228 212 252 228 212 252 228 212 252 228 
212 252 228 212 252 228 212 252 228 212 252 228 212 252 228 212 252 228 
212 252 228 212 252 228 212 252 228 212 252 228 212 252 228 212 252 228 
212 252 228 212 252 228 212 252 228 212 252 228 212 252 228 212 252 228 
212 252 228 212 252 228 212 252 228 212 252 228 212 252 228 212 252 228 
212 252 228 212 252 228 212 252 228 212 252 228 212 252 228 212 252 228 
212 252 228 212 252 228 212 252 228 212 252 228 212 252 228 212 252 228 
212 252 228 212 252 228 212 252 228 212 252 228 212 252 228 212 252 228 
212 252 228 212 252 228 212 252 228 212 252 228 212 252 228 212 252 228 
212 252 228 212 252 228 212 252 228 212 252 228 212 252 228 212 252 228 
212 252 228 212 252 228 212 252 228 212 252 228 212 252 228 212 252 228 
212 252 228 212 252 228 212 252 228 212 252 228 212 252 228 212 252 228 
212 252 228 212 252 228 212 252 228 212 252 228 212 252 228 212 252 228 
212 252 228 212 252 228 212 252 228 212 252 228 212 252 228 212 252 228 
212 252 228 212 252 228 212 252 228 212 252 228 212 252 228 212 252 228 
212 252 228 212 252 228 212 252 228 212 252 228 212 252 228 212 252 228 
212 252 228 212 252 228 212 252 228 212 252 228 212 252 228 212 252 228 
212 252 228 212 252 228 212 252 228 212 252 228 212 252 228 212 252 228 
212 252 228 212 252 228 212 252 228 212 252 228 212 252 228 212 252 228 
212 252 228 212 252 228 212 252 228 212 252 228 212 252 228 212 252 228 
212 252 228 197 236 220 154 188 164 156 196 180 156 188 172 204 249 221 
212 252 228 212 252 228 212 252 228 212 252 228 212 252 228 212 252 228 
212 252 228 212 252 228 212 252 228 212 252 228 212 252 228 212 252 228 
212 252 228 212 252 228 212 252 228 212 252 228 212 252 228 212 252 228 
212 252 228 212 252 228 212 252 228 212 252 228 212 252 228 212 252 228 
212 252 228 212 252 228 212 252 228 212 252 228 212 252 228 212 252 228 
212 252 228 212 252 228 212 252 228 212 252 228 212 252 228 212 252 228 
212 252 228 212 252 228 212 252 228 212 252 228 212 252 228 140 173 156 
42 50 44 4 4 4 4 4 4 4 4 4 4 4 4 4 4 4 60 76 60 148 178 158 212 252 228 
212 252 228 212 252 228 212 252 228 212 252 228 212 252 228 212 252 228 
212 252 228 212 252 228 212 252 228 212 252 228 212 252 228 212 252 228 
212 252 228 212 252 228 212 252 228 212 252 228 212 252 228 212 252 228 
212 252 228 212 252 228 212 252 228 212 252 228 212 252 228 212 252 228 
212 252 228 212 252 228 212 252 228 212 252 228 212 252 228 212 252 228 
212 252 228 212 252 228 212 252 228 212 252 228 212 252 228 212 252 228 
183 223 195 42 50 44 20 20 11 124 122 4 210 210 4 244 236 4 244 244 4 
244 244 4 210 210 4 110 107 4 20 20 11 60 76 60 199 244 212 212 252 228 
212 252 228 212 252 228 212 252 228 212 252 228 212 252 228 212 252 228 
212 252 228 212 252 228 212 252 228 212 252 228 212 252 228 212 252 228 
212 252 228 212 252 228 212 252 228 212 252 228 212 252 228 212 252 228 
212 252 228 212 252 228 212 252 228 212 252 228 212 252 228 212 252 228 
212 252 228 212 252 228 212 252 228 212 252 228 212 252 228 212 252 228 
212 252 228 212 252 228 212 252 228 172 211 188 12 20 20 110 107 4 220 228 4 
244 244 4 244 244 4 244 244 4 244 236 4 244 244 4 244 244 4 236 240 4 
210 210 4 68 64 4 42 50 44 199 244 212 212 252 228 212 252 228 212 252 228 
212 252 228 212 252 228 212 252 228 212 252 228 212 252 228 212 252 228 
212 252 228 212 252 228 212 252 228 212 252 228 212 252 228 212 252 228 
212 252 228 212 252 228 212 252 228 212 252 228 212 252 228 212 252 228 
212 252 228 212 252 228 212 252 228 212 252 228 212 252 228 212 252 228 
212 252 228 212 252 228 212 252 228 212 252 228 212 252 228 183 223 195 
10 11 20 143 141 4 244 244 4 244 236 4 244 244 4 244 244 4 244 244 4 244 244 4 
244 244 4 244 244 4 244 244 4 244 244 4 244 244 4 92 92 4 42 50 44 199 244 212 
212 252 228 212 252 228 212 252 228 212 252 228 212 252 228 212 252 228 
212 252 228 212 252 228 212 252 228 212 252 228 212 252 228 212 252 228 
212 252 228 212 252 228 212 252 228 212 252 228 212 252 228 212 252 228 
212 252 228 212 252 228 212 252 228 212 252 228 212 252 228 212 252 228 
212 252 228 212 252 228 212 252 228 212 252 228 212 252 228 212 252 228 
212 252 228 42 50 44 110 107 4 244 244 4 244 244 4 244 244 4 244 244 4 
244 244 4 244 244 4 244 244 4 244 244 4 244 244 4 244 244 4 244 244 4 
244 244 4 244 244 4 60 61 4 60 76 60 212 244 221 212 252 228 212 252 228 
212 252 228 212 252 228 212 252 228 212 252 228 212 252 228 212 252 228 
212 252 228 212 252 228 212 252 228 212 252 228 212 252 228 212 252 228 
212 252 228 212 252 228 212 252 228 212 252 228 212 252 228 212 252 228 
212 252 228 212 252 228 212 252 228 212 252 228 212 252 228 212 252 228 
212 252 228 212 252 228 212 252 228 116 128 120 28 36 28 228 220 4 244 244 4 
244 244 4 244 244 4 244 244 4 244 244 4 244 244 4 244 244 4 244 244 4 
244 244 4 244 244 4 244 244 4 244 244 4 244 244 4 228 220 4 20 20 11 140 167 147 
212 252 228 212 252 228 212 252 228 212 252 228 212 252 228 212 252 228 
212 252 228 212 252 228 212 252 228 212 252 228 212 252 228 212 252 228 
212 252 228 212 252 228 212 252 228 212 252 228 212 252 228 212 252 228 
212 252 228 212 252 228 212 252 228 212 252 228 212 252 228 212 252 228 
212 252 228 212 252 228 212 252 228 212 252 228 212 252 228 12 20 20 143 141 4 
244 244 4 244 244 4 244 244 4 244 244 4 244 244 4 244 244 4 244 244 4 
244 244 4 244 244 4 244 244 4 244 244 4 244 244 4 244 244 4 244 244 4 
244 244 4 124 122 4 28 36 28 212 252 228 212 252 228 212 252 228 212 252 228 
212 252 228 212 252 228 212 252 228 212 252 228 212 252 228 212 252 228 
212 252 228 212 252 228 212 252 228 212 252 228 212 252 228 212 252 228 
212 252 228 212 252 228 212 252 228 212 252 228 212 252 228 212 252 228 
212 252 228 212 252 228 212 252 228 212 252 228 212 252 228 212 252 228 
132 164 144 36 27 5 236 240 4 244 244 4 244 244 4 244 244 4 244 244 4 
244 244 4 244 244 4 244 244 4 244 244 4 244 244 4 244 244 4 244 244 4 
244 244 4 244 244 4 244 244 4 244 244 4 236 240 4 4 4 4 156 188 172 
212 252 228 212 252 228 212 252 228 212 252 228 212 252 228 212 252 228 
212 252 228 212 252 228 212 252 228 212 252 228 212 252 228 212 252 228 
212 252 228 212 252 228 212 252 228 212 252 228 212 252 228 212 252 228 
212 252 228 212 252 228 212 252 228 212 252 228 212 252 228 212 252 228 
212 252 228 212 252 228 212 252 228 68 60 68 110 107 4 244 244 4 244 244 4 
244 244 4 244 244 4 244 244 4 244 244 4 244 244 4 244 244 4 244 244 4 
244 244 4 244 244 4 244 244 4 244 244 4 244 244 4 244 244 4 244 244 4 
244 244 4 92 92 4 90 108 97 212 252 228 212 252 228 212 252 228 212 252 228 
212 252 228 212 252 228 212 252 228 212 252 228 212 252 228 212 252 228 
212 252 228 212 252 228 212 252 228 212 252 228 212 252 228 212 252 228 
212 252 228 212 252 228 212 252 228 212 252 228 212 252 228 212 252 228 
212 252 228 212 252 228 212 252 228 212 252 228 212 252 228 4 4 12 181 181 4 
244 244 4 244 244 4 244 244 4 244 244 4 244 244 4 244 244 4 244 244 4 
244 244 4 244 244 4 244 244 4 244 244 4 244 244 4 244 244 4 244 244 4 
244 244 4 244 244 4 244 244 4 143 141 4 42 50 44 204 249 221 212 252 228 
212 252 228 212 252 228 212 252 228 212 252 228 212 252 228 212 252 228 
212 252 228 212 252 228 212 252 228 212 252 228 212 252 228 212 252 228 
212 252 228 212 252 228 212 252 228 212 252 228 212 252 228 212 252 228 
212 252 228 212 252 228 212 252 228 212 252 228 212 252 228 212 252 228 
164 196 180 4 4 4 236 240 4 244 244 4 244 244 4 244 244 4 244 244 4 244 244 4 
244 244 4 244 244 4 244 244 4 244 244 4 244 244 4 244 244 4 244 244 4 
244 244 4 244 244 4 244 244 4 244 244 4 244 244 4 181 181 4 4 4 4 204 249 221 
212 252 228 212 252 228 212 252 228 212 252 228 212 252 228 212 252 228 
212 252 228 212 252 228 212 252 228 212 252 228 212 252 228 212 252 228 
212 252 228 212 252 228 212 252 228 212 252 228 212 252 228 212 252 228 
212 252 228 212 252 228 212 252 228 212 252 228 212 252 228 212 252 228 
212 252 228 164 196 180 4 4 4 244 244 4 244 244 4 244 244 4 244 244 4 
244 244 4 244 244 4 244 244 4 244 244 4 244 244 4 244 244 4 244 244 4 
244 244 4 244 244 4 244 244 4 244 244 4 244 244 4 244 244 4 244 244 4 
244 244 4 4 4 4 172 211 188 212 252 228 212 252 228 212 252 228 212 252 228 
212 252 228 212 252 228 212 252 228 212 252 228 212 252 228 212 252 228 
212 252 228 212 252 228 212 252 228 212 252 228 212 252 228 212 252 228 
212 252 228 212 252 228 212 252 228 212 252 228 212 252 228 212 252 228 
212 252 228 212 252 228 212 252 228 132 164 144 43 39 4 244 236 4 244 244 4 
244 244 4 244 244 4 244 244 4 244 244 4 244 244 4 244 244 4 244 244 4 
244 244 4 244 244 4 244 244 4 244 244 4 244 244 4 244 244 4 244 244 4 
244 244 4 244 244 4 244 244 4 4 4 4 164 196 172 212 252 228 212 252 228 
212 252 228 212 252 228 212 252 228 212 252 228 212 252 228 212 252 228 
212 252 228 212 252 228 212 252 228 212 252 228 212 252 228 212 252 228 
212 252 228 212 252 228 212 252 228 212 252 228 212 252 228 212 252 228 
212 252 228 212 252 228 212 252 228 212 252 228 212 252 228 140 173 156 
43 39 4 244 244 4 244 244 4 244 244 4 244 244 4 244 244 4 244 244 4 244 244 4 
244 244 4 244 244 4 244 244 4 244 244 4 244 244 4 244 244 4 244 244 4 
244 244 4 244 244 4 244 244 4 244 244 4 244 244 4 4 4 4 154 188 164 
212 252 228 212 252 228 212 252 228 212 252 228 212 252 228 212 252 228 
212 252 228 212 252 228 212 252 228 212 252 228 212 252 228 212 252 228 
212 252 228 212 252 228 212 252 228 212 252 228 212 252 228 212 252 228 
212 252 228 212 252 228 212 252 228 212 252 228 212 252 228 212 252 228 
212 252 228 164 196 180 4 4 4 244 244 4 244 244 4 244 244 4 244 244 4 
244 244 4 244 244 4 244 244 4 244 244 4 244 244 4 244 244 4 244 244 4 
244 244 4 244 244 4 244 244 4 244 244 4 244 244 4 244 244 4 244 244 4 
244 244 4 4 4 4 172 211 188 212 252 228 212 252 228 212 252 228 212 252 228 
212 252 228 212 252 228 212 252 228 212 252 228 212 252 228 212 252 228 
212 252 228 212 252 228 212 252 228 212 252 228 212 252 228 212 252 228 
212 252 228 212 252 228 212 252 228 212 252 228 212 252 228 212 252 228 
212 252 228 212 252 228 212 252 228 164 196 180 4 4 4 244 236 4 244 244 4 
244 244 4 244 244 4 124 122 4 244 244 4 244 244 4 244 244 4 244 244 4 
244 244 4 244 244 4 244 244 4 244 244 4 244 244 4 143 141 4 244 244 4 
244 244 4 244 244 4 181 181 4 4 4 4 212 252 228 212 252 228 212 252 228 
212 252 228 212 252 228 212 252 228 212 252 228 212 252 228 212 252 228 
212 252 228 212 252 228 212 252 228 212 252 228 212 252 228 212 252 228 
212 252 228 212 252 228 212 252 228 212 252 228 212 252 228 212 252 228 
212 252 228 212 252 228 212 252 228 212 252 228 212 252 228 212 252 228 
4 4 12 181 181 4 244 244 4 244 244 4 244 244 4 68 64 4 210 210 4 244 244 4 
244 244 4 244 244 4 244 244 4 244 244 4 244 244 4 244 244 4 220 228 4 
92 92 4 244 244 4 244 236 4 244 244 4 143 141 4 42 50 44 212 244 221 
212 252 228 212 252 228 212 252 228 212 252 228 212 252 228 212 252 228 
212 252 228 212 252 228 212 252 228 212 252 228 212 252 228 212 252 228 
212 252 228 212 252 228 212 252 228 212 252 228 212 252 228 212 252 228 
212 252 228 212 252 228 212 252 228 212 252 228 212 252 228 212 252 228 
212 252 228 212 252 228 52 60 60 110 107 4 244 244 4 244 244 4 244 244 4 
181 181 4 92 92 4 244 244 4 244 244 4 244 244 4 244 244 4 244 244 4 244 244 4 
244 244 4 92 92 4 210 210 4 244 244 4 244 244 4 244 244 4 68 64 4 94 116 100 
212 252 228 212 252 228 212 252 228 212 252 228 212 252 228 212 252 228 
212 252 228 212 252 228 212 252 228 212 252 228 212 252 228 212 252 228 
212 252 228 212 252 228 212 252 228 212 252 228 212 252 228 212 252 228 
212 252 228 212 252 228 212 252 228 212 252 228 212 252 228 212 252 228 
212 252 228 212 252 228 212 252 228 140 173 156 20 20 11 244 244 4 244 236 4 
244 244 4 244 244 4 68 64 4 210 210 4 244 244 4 244 244 4 244 244 4 244 244 4 
244 244 4 210 210 4 92 92 4 244 236 4 244 244 4 244 244 4 236 240 4 4 4 4 
156 196 172 212 252 228 212 252 228 212 252 228 212 252 228 212 252 228 
212 252 228 212 252 228 212 252 228 212 252 228 212 252 228 212 252 228 
212 252 228 212 252 228 212 252 228 212 252 228 212 252 228 212 252 228 
212 252 228 212 252 228 212 252 228 212 252 228 212 252 228 212 252 228 
212 252 228 212 252 228 212 252 228 212 252 228 212 252 228 12 20 20 143 141 4 
244 244 4 244 244 4 244 244 4 181 181 4 92 92 4 244 244 4 244 244 4 244 244 4 
244 244 4 244 244 4 92 92 4 210 210 4 244 244 4 244 244 4 244 244 4 124 122 4 
42 50 44 212 244 221 212 252 228 212 252 228 212 252 228 212 252 228 
212 252 228 212 252 228 212 252 228 212 252 228 212 252 228 212 252 228 
212 252 228 212 252 228 212 252 228 212 252 228 212 252 228 212 252 228 
212 252 228 212 252 228 212 252 228 212 252 228 212 252 228 212 252 228 
212 252 228 212 252 228 212 252 228 212 252 228 212 252 228 212 252 228 
108 132 124 36 27 5 236 240 4 236 240 4 244 244 4 244 244 4 68 64 4 210 210 4 
244 244 4 244 244 4 244 244 4 220 228 4 92 92 4 244 244 4 244 244 4 244 244 4 
210 210 4 20 20 11 148 178 158 212 244 221 212 252 228 212 252 228 212 252 228 
212 252 228 212 252 228 212 252 228 212 252 228 212 252 228 212 252 228 
212 252 228 212 252 228 212 252 228 212 252 228 212 252 228 212 252 228 
212 252 228 212 252 228 212 252 228 212 252 228 212 252 228 212 252 228 
212 252 228 212 252 228 212 252 228 212 252 228 212 252 228 212 252 228 
212 252 228 212 252 228 44 60 52 92 92 4 244 244 4 236 240 4 244 244 4 
181 181 4 92 92 4 244 244 4 244 244 4 244 244 4 92 92 4 210 210 4 244 244 4 
244 244 4 244 244 4 60 61 4 60 76 60 212 252 228 212 252 228 212 252 228 
212 252 228 212 252 228 212 252 228 212 252 228 212 252 228 212 252 228 
212 252 228 212 252 228 212 252 228 212 252 228 212 252 228 212 252 228 
212 252 228 212 252 228 212 252 228 212 252 228 212 252 228 212 252 228 
212 252 228 212 252 228 212 252 228 212 252 228 212 252 228 212 252 228 
212 252 228 212 252 228 212 252 228 212 252 228 172 211 188 10 11 20 110 107 4 
244 244 4 236 240 4 244 244 4 68 64 4 210 210 4 244 244 4 210 210 4 92 92 4 
244 244 4 244 244 4 244 244 4 92 92 4 42 50 44 204 249 221 212 252 228 
212 252 228 212 252 228 212 252 228 212 252 228 212 252 228 212 252 228 
212 252 228 212 252 228 212 252 228 212 252 228 212 252 228 212 252 228 
212 252 228 212 252 228 212 252 228 212 252 228 212 252 228 212 252 228 
212 252 228 212 252 228 212 252 228 212 252 228 212 252 228 212 252 228 
212 252 228 212 252 228 212 252 228 212 252 228 212 252 228 212 252 228 
212 252 228 183 223 195 12 20 20 104 77 4 236 240 4 236 240 4 181 181 4 
92 92 4 244 244 4 92 92 4 210 210 4 244 244 4 210 210 4 60 61 4 42 50 44 
199 244 212 212 244 221 212 252 228 212 252 228 212 252 228 212 252 228 
212 252 228 212 252 228 212 252 228 212 252 228 212 252 228 212 252 228 
212 252 228 212 252 228 212 252 228 212 252 228 212 252 228 212 252 228 
212 252 228 212 252 228 212 252 228 212 252 228 212 252 228 212 252 228 
212 252 228 212 252 228 212 252 228 212 252 228 212 252 228 212 252 228 
212 252 228 212 252 228 212 252 228 212 252 228 212 252 228 172 211 188 
4 4 4 4 12 8 110 107 4 210 210 4 60 61 4 181 181 4 92 92 4 210 210 4 92 92 4 
20 20 11 4 4 4 196 235 209 212 252 228 212 252 228 212 252 228 212 252 228 
212 252 228 212 252 228 212 252 228 212 252 228 212 252 228 212 252 228 
212 252 228 212 252 228 212 252 228 212 252 228 212 252 228 212 252 228 
212 252 228 212 252 228 212 252 228 212 252 228 212 252 228 212 252 228 
212 252 228 212 252 228 212 252 228 212 252 228 212 252 228 212 252 228 
212 252 228 212 252 228 212 252 228 212 252 228 212 252 228 212 252 228 
212 252 228 212 252 228 4 4 12 163 119 4 52 38 4 4 4 4 4 4 4 4 4 4 4 4 4 4 4 4 
86 64 4 186 142 4 4 4 4 204 249 221 212 252 228 212 252 228 212 252 228 
212 252 228 212 252 228 212 252 228 212 252 228 212 252 228 212 252 228 
212 252 228 212 252 228 212 252 228 212 252 228 212 252 228 212 252 228 
212 252 228 212 252 228 212 252 228 212 252 228 212 252 228 212 252 228 
212 252 228 212 252 228 212 252 228 212 252 228 212 252 228 212 252 228 
212 252 228 212 252 228 212 252 228 212 252 228 212 252 228 212 252 228 
212 252 228 212 252 228 212 252 228 4 4 12 252 188 4 252 188 4 244 180 4 
196 143 4 163 119 4 196 143 4 244 180 4 252 188 4 252 188 4 4 4 4 212 252 228 
212 252 228 212 252 228 212 252 228 212 252 228 212 252 228 212 252 228 
212 252 228 212 252 228 212 252 228 212 252 228 212 252 228 212 252 228 
212 252 228 212 252 228 212 252 228 212 252 228 212 252 228 212 252 228 
212 252 228 212 252 228 212 252 228 212 252 228 212 252 228 212 252 228 
212 252 228 212 252 228 212 252 228 212 252 228 212 252 228 212 252 228 
212 252 228 212 252 228 212 252 228 212 252 228 212 252 228 212 252 228 
4 4 12 244 180 4 252 196 4 252 188 4 244 180 4 252 188 4 252 188 4 252 188 4 
244 180 4 252 188 4 4 4 4 204 249 221 212 252 228 212 252 228 212 252 228 
212 252 228 212 252 228 212 252 228 212 252 228 212 252 228 212 252 228 
212 252 228 212 252 228 212 252 228 212 252 228 212 252 228 212 252 228 
212 252 228 212 252 228 212 252 228 212 252 228 212 252 228 212 252 228 
212 252 228 212 252 228 212 252 228 212 252 228 212 252 228 212 252 228 
212 252 228 212 252 228 212 252 228 212 252 228 212 252 228 212 252 228 
212 252 228 212 252 228 212 252 228 4 4 12 4 4 4 4 4 4 4 4 4 4 4 4 4 4 4 4 4 4 
4 4 4 4 4 4 4 4 4 4 4 4 212 252 228 212 252 228 212 252 228 212 252 228 
212 252 228 212 252 228 212 252 228 212 252 228 212 252 228 212 252 228 
212 252 228 212 252 228 212 252 228 212 252 228 212 252 228 212 252 228 
212 252 228 212 252 228 212 252 228 212 252 228 212 252 228 212 252 228 
212 252 228 212 252 228 212 252 228 212 252 228 212 252 228 212 252 228 
212 252 228 212 252 228 212 252 228 212 252 228 212 252 228 212 252 228 
212 252 228 212 252 228 212 252 228 4 4 12 244 180 4 252 188 4 252 196 4 
252 188 4 252 188 4 252 196 4 252 188 4 252 188 4 252 196 4 4 4 4 204 249 221 
212 252 228 212 252 228 212 252 228 212 252 228 212 252 228 212 252 228 
212 252 228 212 252 228 212 252 228 212 252 228 212 252 228 212 252 228 
212 252 228 212 252 228 212 252 228 212 252 228 212 252 228 212 252 228 
212 252 228 212 252 228 212 252 228 212 252 228 212 252 228 212 252 228 
212 252 228 212 252 228 212 252 228 212 252 228 212 252 228 212 252 228 
212 252 228 212 252 228 212 252 228 212 252 228 212 252 228 212 252 228 
4 4 12 252 188 4 252 188 4 252 188 4 252 196 4 252 188 4 252 188 4 252 196 4 
252 188 4 252 188 4 4 4 4 212 252 228 212 252 228 212 252 228 212 252 228 
212 252 228 212 252 228 212 252 228 212 252 228 212 252 228 212 252 228 
212 252 228 212 252 228 212 252 228 212 252 228 212 252 228 212 252 228 
212 252 228 212 252 228 212 252 228 212 252 228 212 252 228 212 252 228 
212 252 228 212 252 228 212 252 228 212 252 228 212 252 228 212 252 228 
212 252 228 212 252 228 212 252 228 212 252 228 212 252 228 212 252 228 
212 252 228 212 252 228 212 252 228 4 4 12 252 188 4 252 188 4 252 188 4 
252 188 4 252 196 4 252 188 4 252 188 4 252 188 4 252 196 4 4 4 4 204 249 221 
212 252 228 212 252 228 212 252 228 212 252 228 212 252 228 212 252 228 
212 252 228 212 252 228 212 252 228 212 252 228 212 252 228 212 252 228 
212 252 228 212 252 228 212 252 228 212 252 228 212 252 228 212 252 228 
212 252 228 212 252 228 212 252 228 212 252 228 212 252 228 212 252 228 
212 252 228 212 252 228 212 252 228 212 252 228 212 252 228 212 252 228 
212 252 228 212 252 228 212 252 228 212 252 228 212 252 228 212 252 228 
4 4 12 4 4 4 4 4 4 4 4 4 4 4 4 4 4 4 4 4 4 4 4 4 4 4 4 4 4 4 4 4 4 212 252 228 
212 252 228 212 252 228 212 252 228 212 252 228 212 252 228 212 252 228 
212 252 228 212 252 228 212 252 228 212 252 228 212 252 228 212 252 228 
212 252 228 212 252 228 212 252 228 212 252 228 212 252 228 212 252 228 
212 252 228 212 252 228 212 252 228 212 252 228 212 252 228 212 252 228 
212 252 228 212 252 228 212 252 228 212 252 228 212 252 228 212 252 228 
212 252 228 212 252 228 212 252 228 212 252 228 212 252 228 212 252 228 
4 4 12 244 180 4 252 188 4 252 188 4 252 196 4 252 188 4 252 188 4 252 188 4 
252 196 4 252 188 4 4 4 4 204 249 221 212 252 228 212 252 228 212 252 228 
212 252 228 212 252 228 212 252 228 212 252 228 212 252 228 212 252 228 
212 252 228 212 252 228 212 252 228 212 252 228 212 252 228 212 252 228 
212 252 228 212 252 228 212 252 228 212 252 228 212 252 228 212 252 228 
212 252 228 212 252 228 212 252 228 212 252 228 212 252 228 212 252 228 
212 252 228 212 252 228 212 252 228 212 252 228 212 252 228 212 252 228 
212 252 228 212 252 228 212 252 228 4 4 12 244 180 4 252 196 4 252 188 4 
252 188 4 252 188 4 252 196 4 252 188 4 252 188 4 252 188 4 4 4 4 212 252 228 
212 252 228 212 252 228 212 252 228 212 252 228 212 252 228 212 252 228 
212 252 228 212 252 228 212 252 228 212 252 228 212 252 228 212 252 228 
212 252 228 212 252 228 212 252 228 212 252 228 212 252 228 212 252 228 
212 252 228 212 252 228 212 252 228 212 252 228 212 252 228 212 252 228 
212 252 228 212 252 228 212 252 228 212 252 228 212 252 228 212 252 228 
212 252 228 212 252 228 212 252 228 212 252 228 212 252 228 212 252 228 
4 4 12 196 143 4 196 143 4 196 143 4 196 143 4 196 143 4 196 143 4 196 143 4 
196 143 4 196 143 4 4 4 4 212 252 228 212 252 228 212 252 228 212 252 228 
212 252 228 212 252 228 212 252 228 212 252 228 212 252 228 212 252 228 
212 252 228 212 252 228 212 252 228 212 252 228 212 252 228 212 252 228 
212 252 228 212 252 228 212 252 228 212 252 228 212 252 228 212 252 228 
212 252 228 212 252 228 212 252 228 212 252 228 212 252 228 212 252 228 
212 252 228 212 252 228 212 252 228 212 252 228 212 252 228 212 252 228 
212 252 228 212 252 228 212 252 228 68 60 68 60 74 68 52 60 60 52 68 60 
52 60 60 52 68 60 60 74 68 52 60 60 52 68 60 52 68 60 69 84 75 212 252 228 
212 252 228 212 252 228 212 252 228 212 252 228 212 252 228 212 252 228 
212 252 228 212 252 228 212 252 228 212 252 228 212 252 228 212 252 228 
212 252 228 212 252 228 212 252 228 212 252 228 212 252 228 212 252 228 
212 252 228 212 252 228 212 252 228 212 252 228 212 252 228 212 252 228 
212 252 228 212 252 228 212 252 228 212 252 228 212 252 228 212 252 228 
212 252 228 212 252 228 212 252 228 212 252 228 212 252 228 212 252 228 
212 252 228 212 252 228 212 252 228 212 252 228 212 252 228 212 252 228 
212 252 228 212 252 228 236 244 244 204 249 221 212 252 228 212 252 228 
212 252 228 212 252 228 212 252 228 212 252 228 212 252 228 212 252 228 
212 252 228 212 252 228 212 252 228 212 252 228 212 252 228 212 252 228 
212 252 228 212 252 228 212 252 228 212 252 228 212 252 228 212 252 228 
212 252 228 212 252 228 212 252 228 212 252 228 212 252 228 212 252 228 
212 252 228 212 252 228 212 252 228 212 252 228 212 252 228 212 252 228 
212 252 228 212 252 228 212 252 228 212 252 228 212 252 228 212 252 228 
212 252 228 212 252 228 212 252 228 212 252 228 212 252 228 212 252 228 
212 252 228 212 252 228 212 252 228 212 252 228 212 252 228 212 252 228 
212 252 228 212 252 228 212 252 228 212 252 228 212 252 228 212 252 228 
212 252 228 212 252 228 212 252 228 212 252 228 212 252 228 212 252 228 
212 252 228 212 252 228 212 252 228 212 252 228 212 252 228 212 252 228 
212 252 228 212 252 228 212 252 228 212 252 228 212 252 228 212 252 228 
212 252 228 212 252 228 212 252 228 212 252 228 212 252 228 212 252 228 
212 252 228 212 252 228 212 252 228 212 252 228 212 252 228 212 252 228 
212 252 228 212 252 228 212 252 228 212 252 228 212 252 228 212 252 228 
212 252 228 212 252 228 212 252 228 212 252 228 212 252 228 212 252 228 
212 252 228 212 252 228 212 252 228 212 252 228 212 252 228 212 252 228 
212 252 228 212 252 228 212 252 228 212 252 228 212 252 228 212 252 228 
212 252 228 212 252 228 212 252 228 212 252 228 212 252 228 212 252 228 
212 252 228 212 252 228 212 252 228 212 252 228 212 252 228 212 252 228 
212 252 228 212 252 228 212 252 228 212 252 228 212 252 228 212 252 228 
212 252 228 212 252 228 212 252 228 212 252 228 212 252 228 212 252 228 
212 252 228 212 252 228 212 252 228 212 252 228 212 252 228 212 252 228 
212 252 228 212 252 228 212 252 228 212 252 228 212 252 228 212 252 228 
212 252 228 212 252 228 212 252 228 212 252 228 212 252 228 212 252 228 
212 252 228 212 252 228 212 252 228 212 252 228 212 252 228 212 252 228 
212 252 228 212 252 228 212 252 228 212 252 228 212 252 228 212 252 228 
212 252 228 212 252 228 212 252 228 212 252 228 212 252 228 212 252 228 
212 252 228 212 252 228 212 252 228 212 252 228 212 252 228 212 252 228 
212 252 228 212 252 228 212 252 228 212 252 228 212 252 228 212 252 228 
212 252 228 212 252 228 212 252 228 212 252 228 212 252 228 212 252 228 
212 252 228 212 252 228 212 252 228 212 252 228 212 252 228 212 252 228 
212 252 228 212 252 228 212 252 228 212 252 228 212 252 228 212 252 228 
212 252 228 212 252 228 212 252 228 212 252 228 212 252 228 212 252 228 
212 252 228 212 252 228 212 252 228 212 252 228 212 252 228 212 252 228 
212 252 228 212 252 228 212 252 228 212 252 228 212 252 228 212 252 228 
212 252 228 212 252 228 212 252 228 212 252 228 212 252 228 212 252 228 
212 252 228 212 252 228 212 252 228 212 252 228 212 252 228 212 252 228 
212 252 228 212 252 228 212 252 228 212 252 228 212 252 228 212 252 228 
212 252 228 212 252 228 212 252 228 212 252 228 212 252 228 212 252 228 
212 252 228 212 252 228 212 252 228 212 252 228 212 252 228 212 252 228 
212 252 228 212 252 228 212 252 228 212 252 228 212 252 228 212 252 228 
212 252 228 212 252 228 212 252 228 212 252 228 212 252 228 212 252 228 
212 252 228 212 252 228 212 252 228 212 252 228 212 252 228 212 252 228 
212 252 228 212 252 228 212 252 228 212 252 228 212 252 228 212 252 228 
212 252 228 212 252 228 212 252 228 212 252 228 212 252 228 212 252 228 
212 252 228 212 252 228 212 252 228 212 252 228 212 252 228 212 252 228 
212 252 228 212 252 228 212 252 228 212 252 228 212 252 228 212 252 228 
212 252 228 212 252 228 212 252 228 212 252 228 212 252 228 212 252 228 
212 252 228 212 252 228 212 252 228 212 252 228 212 252 228 212 252 228 
212 252 228 212 252 228 212 252 228 212 252 228 212 252 228 212 252 228 
212 252 228 212 252 228 212 252 228 212 252 228 212 252 228 212 252 228 
212 252 228 212 252 228 212 252 228 212 252 228 212 252 228 212 252 228 
212 252 228 212 252 228 212 252 228 212 252 228 212 252 228 212 252 228 
212 252 228 212 252 228 212 252 228 212 252 228 212 252 228 212 252 228 
212 252 228 212 252 228 212 252 228 212 252 228 212 252 228 212 252 228 
212 252 228 212 252 228 212 252 228 212 252 228 212 252 228 212 252 228 
212 252 228 212 252 228 212 252 228 212 252 228 212 252 228 212 252 228 
212 252 228 212 252 228 212 252 228 212 252 228 212 252 228 212 252 228 
212 252 228 212 252 228 212 252 228 212 252 228 212 252 228 212 252 228 
212 252 228 212 252 228 212 252 228 212 252 228 212 252 228 212 252 228 
212 252 228 212 252 228 212 252 228 212 252 228 212 252 228 212 252 228 
212 252 228 212 252 228 212 252 228 212 252 228 212 252 228 212 252 228 
212 252 228 212 252 228 212 252 228 212 252 228 212 252 228 212 252 228 
212 252 228 212 252 228 212 252 228 212 252 228 212 252 228 212 252 228 
212 252 228 212 252 228 212 252 228 212 252 228 212 252 228 212 252 228 
212 252 228 212 252 228 212 252 228 212 252 228 212 252 228 212 252 228 
212 252 228 212 252 228 212 252 228 212 252 228 212 252 228 212 252 228 
212 252 228 212 252 228 212 252 228 212 252 228 212 252 228 212 252 228 
212 252 228 212 252 228 212 252 228 212 252 228 212 252 228 212 252 228 
212 252 228 212 252 228 212 252 228 212 252 228 212 252 228 212 252 228 
212 252 228 212 252 228 212 252 228 212 252 228 212 252 228 212 252 228 
212 252 228 212 252 228 212 252 228 212 252 228 212 252 228 212 252 228 
212 252 228 212 252 228 212 252 228 212 252 228 212 252 228 212 252 228 
212 252 228 212 252 228 212 252 228 212 252 228 212 252 228 212 252 228 
212 252 228 212 252 228 212 252 228 212 252 228 212 252 228 212 252 228 
212 252 228 212 252 228 212 252 228 212 252 228 212 252 228 212 252 228 
212 252 228 212 252 228 212 252 228 212 252 228 212 252 228 212 252 228 
212 252 228 212 252 228 212 252 228 212 252 228 212 252 228 212 252 228 
212 252 228 212 252 228 212 252 228 212 252 228 212 252 228 212 252 228 
212 252 228 212 252 228 212 252 228 212 252 228 212 252 228 212 252 228 
212 252 228 212 252 228 212 252 228 212 252 228 212 252 228 212 252 228 
212 252 228 212 252 228 212 252 228 212 252 228 212 252 228 212 252 228 
212 252 228 212 252 228 212 252 228 212 252 228 212 252 228 212 252 228 
212 252 228 212 252 228 212 252 228 212 252 228 212 252 228 212 252 228 
212 252 228 212 252 228 212 252 228 212 252 228 212 252 228 212 252 228 
212 252 228 212 252 228 212 252 228 212 252 228 212 252 228 212 252 228 
212 252 228 212 252 228 212 252 228 212 252 228 212 252 228 212 252 228 
212 252 228 212 252 228 212 252 228 212 252 228 212 252 228 212 252 228 
212 252 228 212 252 228 212 252 228 212 252 228 212 252 228 212 252 228 
212 252 228 212 252 228 212 252 228 212 252 228 212 252 228 212 252 228 
212 252 228 212 252 228 212 252 228 212 252 228 212 252 228 212 252 228 
212 252 228 212 252 228 212 252 228 212 252 228 212 252 228 212 252 228 
212 252 228 212 252 228 212 252 228 212 252 228 212 252 228 212 252 228 
212 252 228 212 252 228 212 252 228 212 252 228 212 252 228 212 252 228 
212 252 228 212 252 228 212 252 228 212 252 228 212 252 228 212 252 228 
212 252 228 212 252 228 212 252 228 212 252 228 212 252 228 212 252 228 
212 252 228 212 252 228 212 252 228 212 252 228 212 252 228 212 252 228 
212 252 228 212 252 228 212 252 228 212 252 228 212 252 228 212 252 228 
212 252 228 212 252 228 212 252 228 212 252 228 212 252 228 212 252 228 
212 252 228 212 252 228 212 252 228 212 252 228 212 252 228 212 252 228 
212 252 228 212 252 228 212 252 228 212 252 228 212 252 228 212 252 228 
212 252 228 212 252 228 212 252 228 212 252 228 212 252 228 212 252 228 
212 252 228 212 252 228 212 252 228 212 252 228 212 252 228 212 252 228 
212 252 228 212 252 228 212 252 228 212 252 228 212 252 228 212 252 228 
212 252 228 212 252 228 212 252 228 212 252 228 212 252 228 212 252 228 
212 252 228 212 252 228 212 252 228 212 252 228 212 252 228 212 252 228 
212 252 228 212 252 228 212 252 228 212 252 228 212 252 228 212 252 228 
212 252 228 212 252 228 212 252 228 212 252 228 212 252 228 212 252 228 
212 252 228 212 252 228 212 252 228 212 252 228 212 252 228 212 252 228 
212 252 228 212 252 228 212 252 228 212 252 228 212 252 228 212 252 228 
212 252 228 212 252 228 212 252 228 212 252 228 212 252 228 212 252 228 
212 252 228 212 252 228 212 252 228 212 252 228 212 252 228 212 252 228 
212 252 228 212 252 228 212 252 228 212 252 228 212 252 228 212 252 228 
212 252 228 212 252 228 212 252 228 212 252 228 212 252 228 212 252 228 
212 252 228 212 252 228 212 252 228 212 252 228 212 252 228 212 252 228 
212 252 228 212 252 228 212 252 228 212 252 228 212 252 228 212 252 228 
212 252 228 212 252 228 212 252 228 212 252 228 212 252 228 212 252 228 
212 252 228 212 252 228 212 252 228 212 252 228 212 252 228 212 252 228 
212 252 228 212 252 228 212 252 228 212 252 228 212 252 228 212 252 228 
212 252 228 212 252 228 212 252 228 212 252 228 212 252 228 212 252 228 
212 252 228 212 252 228 212 252 228 212 252 228 212 252 228 212 252 228 
212 252 228 212 252 228 212 252 228 212 252 228 212 252 228 212 252 228 
212 252 228 212 252 228 212 252 228 212 252 228 212 252 228 212 252 228 
212 252 228 212 252 228 212 252 228 212 252 228 212 252 228 212 252 228 
212 252 228 212 252 228 212 252 228 212 252 228 212 252 228 212 252 228 
212 252 228 212 252 228 212 252 228 212 252 228 212 252 228 212 252 228 
212 252 228 212 252 228 212 252 228 212 252 228 212 252 228 212 252 228 
212 252 228 212 252 228 212 252 228 212 252 228 212 252 228 212 252 228 
212 252 228 212 252 228 212 252 228 212 252 228 212 252 228 212 252 228 
212 252 228 212 252 228 212 252 228 212 252 228 212 252 228 212 252 228 
212 252 228 212 252 228 212 252 228 212 252 228 212 252 228 212 252 228 
212 252 228 212 252 228 212 252 228 212 252 228 212 252 228 212 252 228 
212 252 228 212 252 228 212 252 228 212 252 228 212 252 228 212 252 228 
212 252 228 212 252 228 212 252 228 212 252 228 212 252 228 212 252 228 
212 252 228 212 252 228 212 252 228 212 252 228 212 252 228 212 252 228 
212 252 228 212 252 228 212 252 228 212 252 228 212 252 228 212 252 228 
212 252 228 212 252 228 212 252 228 212 252 228 212 252 228 212 252 228 
212 252 228 212 252 228 212 252 228 212 252 228 212 252 228 212 252 228 
212 252 228 212 252 228 212 252 228 212 252 228 212 252 228 212 252 228 
212 252 228 212 252 228 212 252 228 212 252 228 212 252 228 212 252 228 
212 252 228 212 252 228 212 252 228 212 252 228 212 252 228 212 252 228 
212 252 228 212 252 228 212 252 228 212 252 228 212 252 228 212 252 228 
212 252 228 212 252 228 212 252 228 212 252 228 212 252 228 212 252 228 
212 252 228 212 252 228 212 252 228 212 252 228 212 252 228 212 252 228 
212 252 228 212 252 228 212 252 228 212 252 228 212 252 228 212 252 228 
212 252 228 212 252 228 212 252 228 212 252 228 212 252 228 212 252 228 
