P3
48 76
255
255 255 255 255 255 255 255 255 255 255 255 255 255 255 255 255 255 255 
255 255 255 255 255 255 255 255 255 255 255 255 255 255 255 255 255 255 
255 255 255 255 255 255 255 255 255 255 255 255 255 255 255 255 255 255 
255 255 255 255 255 255 255 255 255 255 255 255 255 255 255 255 255 255 
255 255 255 255 255 255 255 255 255 255 255 255 255 255 255 255 255 255 
255 255 255 255 255 255 255 255 255 255 255 255 255 255 255 255 255 255 
255 255 255 255 255 255 255 255 255 255 255 255 255 255 255 255 255 255 
255 255 255 255 255 255 255 255 255 255 255 255 255 255 255 255 255 255 
255 255 255 255 255 255 255 255 255 255 255 255 255 255 255 255 255 255 
255 255 255 255 255 255 255 255 255 255 255 255 255 255 255 255 255 255 
255 255 255 255 255 255 255 255 255 255 255 255 255 255 255 255 255 255 
255 255 255 255 255 255 255 255 255 255 255 255 255 255 255 255 255 255 
255 255 255 255 255 255 255 255 255 255 255 255 255 255 255 255 255 255 
255 255 255 255 255 255 255 255 255 255 255 255 255 255 255 255 255 255 
255 255 255 255 255 255 255 255 255 255 255 255 255 255 255 255 255 255 
255 255 255 255 255 255 255 255 255 255 255 255 255 255 255 255 255 255 
255 255 255 255 255 255 255 255 255 255 255 255 255 255 255 255 255 255 
255 255 255 255 255 255 255 255 255 255 255 255 255 255 255 255 255 255 
255 255 255 255 255 255 255 255 255 255 255 255 255 255 255 255 255 255 
255 255 255 255 255 255 255 255 255 255 255 255 255 255 255 255 255 255 
255 255 255 255 255 255 255 255 255 255 255 255 255 255 255 255 255 255 
255 255 255 255 255 255 255 255 255 255 255 255 255 255 255 255 255 255 
255 255 255 255 255 255 255 255 255 255 255 255 255 255 255 255 255 255 
255 255 255 255 255 255 255 255 255 255 255 255 255 255 255 255 255 255 
255 255 255 255 255 255 255 255 255 255 255 255 255 255 255 255 255 255 
255 255 255 255 255 255 255 255 255 255 255 255 255 255 255 255 255 255 
255 255 255 255 255 255 255 255 255 255 255 255 255 255 255 255 255 255 
255 255 255 255 255 255 255 255 255 255 255 255 255 255 255 255 255 255 
255 255 255 255 255 255 255 255 255 255 255 255 255 255 255 255 255 255 
255 255 255 255 255 255 255 255 255 255 255 255 255 255 255 255 255 255 
255 255 255 255 255 255 255 255 255 255 255 255 255 255 255 255 255 255 
255 255 255 255 255 255 255 255 255 255 255 255 255 255 255 255 255 255 
255 255 255 255 255 255 255 255 255 255 255 255 255 255 255 255 255 255 
255 255 255 255 255 255 255 255 255 255 255 255 255 255 255 255 255 255 
255 255 255 255 255 255 255 255 255 255 255 255 255 255 255 255 255 255 
255 255 255 255 255 255 255 255 255 255 255 255 255 255 255 255 255 255 
255 255 255 255 255 255 255 255 255 255 255 255 255 255 255 255 255 255 
255 255 255 255 255 255 255 255 255 255 255 255 255 255 255 255 255 255 
255 255 255 255 255 255 255 255 255 255 255 255 255 255 255 255 255 255 
255 255 255 255 255 255 255 255 255 255 255 255 255 255 255 255 255 255 
255 255 255 255 255 255 255 255 255 255 255 255 255 255 255 255 255 255 
255 255 255 255 255 255 255 255 255 255 255 255 255 255 255 255 255 255 
255 255 255 255 255 255 255 255 255 255 255 255 255 255 255 255 255 255 
255 255 255 255 255 255 255 255 255 255 255 255 255 255 255 255 255 255 
255 255 255 255 255 255 255 255 255 255 255 255 255 255 255 255 255 255 
255 255 255 255 255 255 255 255 255 255 255 255 255 255 255 255 255 255 
255 255 255 255 255 255 255 255 255 255 255 255 255 255 255 255 255 255 
255 255 255 255 255 255 255 255 255 255 255 255 255 255 255 255 255 255 
255 255 255 255 255 255 255 255 255 255 255 255 255 255 255 255 255 255 
255 255 255 255 255 255 255 255 255 255 255 255 255 255 255 255 255 255 
255 255 255 255 255 255 255 255 255 255 255 255 255 255 255 255 255 255 
255 255 255 255 255 255 255 255 255 255 255 255 255 255 255 255 255 255 
255 255 255 255 255 255 255 255 255 255 255 255 255 255 255 255 255 255 
255 255 255 255 255 255 255 255 255 255 255 255 255 255 255 255 255 255 
255 255 255 255 255 255 255 255 255 255 255 255 255 255 255 255 255 255 
255 255 255 255 255 255 255 255 255 255 255 255 255 255 255 255 255 255 
255 255 255 255 255 255 255 255 255 255 255 255 255 255 255 255 255 255 
255 255 255 255 255 255 255 255 255 255 255 255 255 255 255 255 255 255 
255 255 255 255 255 255 255 255 255 255 255 255 255 255 255 255 255 255 
255 255 255 255 255 255 255 255 255 255 255 255 255 255 255 255 255 255 
255 255 255 255 255 255 255 255 255 255 255 255 255 255 255 255 255 255 
255 255 255 255 255 255 255 255 255 255 255 255 255 255 255 255 255 255 
255 255 255 255 255 255 255 255 255 255 255 255 255 255 255 255 255 255 
255 255 255 255 255 255 255 255 255 255 255 255 255 255 255 255 255 255 
255 255 255 255 255 255 255 255 255 255 255 255 255 255 255 255 255 255 
255 255 255 255 255 255 255 255 255 255 255 255 255 255 255 255 255 255 
255 255 255 255 255 255 255 255 255 255 255 255 255 255 255 255 255 255 
255 255 255 255 255 255 255 255 255 255 255 255 255 255 255 255 255 255 
255 255 255 255 255 255 255 255 255 255 255 255 255 255 255 255 255 255 
255 255 255 255 255 255 255 255 255 255 255 255 255 255 255 255 255 255 
255 255 255 255 255 255 255 255 255 255 255 255 255 255 255 255 255 255 
255 255 255 255 255 255 255 255 255 255 255 255 255 255 255 255 255 255 
255 255 255 255 255 255 255 255 255 255 255 255 255 255 255 255 255 255 
255 255 255 255 255 255 255 255 255 255 255 255 255 255 255 255 255 255 
255 255 255 255 255 255 255 255 255 255 255 255 255 255 255 255 255 255 
255 255 255 255 255 255 255 255 255 255 255 255 255 255 255 255 255 255 
255 255 255 255 255 255 255 255 255 255 255 255 255 255 255 255 255 255 
255 255 255 255 255 255 255 255 255 255 255 255 255 255 255 255 255 255 
255 255 255 255 255 255 255 255 255 255 255 255 255 255 255 255 255 255 
255 255 255 255 255 255 255 255 255 255 255 255 255 255 255 255 255 255 
255 255 255 255 255 255 255 255 255 255 255 255 255 255 255 255 255 255 
255 255 255 255 255 255 255 255 255 255 255 255 255 255 255 255 255 255 
255 255 255 255 255 255 255 255 255 255 255 255 255 255 255 255 255 255 
255 255 255 255 255 255 255 255 255 255 255 255 255 255 255 255 255 255 
255 255 255 255 255 255 255 255 255 255 255 255 255 255 255 255 255 255 
255 255 255 255 255 255 255 255 255 255 255 255 255 255 255 255 255 255 
255 255 255 255 255 255 255 255 255 255 255 255 255 255 255 255 255 255 
255 255 255 255 255 255 255 255 255 255 255 255 255 255 255 255 255 255 
255 255 255 255 255 255 255 255 255 255 255 255 255 255 255 255 255 255 
255 255 255 255 255 255 255 255 255 255 255 255 255 255 255 255 255 255 
255 255 255 255 255 255 255 255 255 255 255 255 255 255 255 255 255 255 
255 255 255 255 255 255 255 255 255 255 255 255 255 255 255 255 255 255 
255 255 255 255 255 255 255 255 255 255 255 255 255 255 255 255 255 255 
255 255 255 255 255 255 255 255 255 255 255 255 255 255 255 255 255 255 
255 255 255 255 255 255 255 255 255 255 255 255 255 255 255 255 255 255 
255 255 255 255 255 255 255 255 255 255 255 255 255 255 255 255 255 255 
255 255 255 255 255 255 255 255 255 255 255 255 255 255 255 255 255 255 
255 255 255 255 255 255 255 255 255 255 255 255 255 255 255 255 255 255 
255 255 255 255 255 255 255 255 255 255 255 255 255 255 255 255 255 255 
255 255 255 255 255 255 255 255 255 255 255 255 255 255 255 255 255 255 
255 255 255 255 255 255 255 255 255 255 255 255 255 255 255 255 255 255 
255 255 255 255 255 255 255 255 255 255 255 255 255 255 255 255 255 255 
255 255 255 255 255 255 255 255 255 255 255 255 255 255 255 255 255 255 
255 255 255 255 255 255 255 255 255 255 255 255 255 255 255 255 255 255 
255 255 255 255 255 255 255 255 255 255 255 255 255 255 255 255 255 255 
255 255 255 255 255 255 255 255 255 255 255 255 255 255 255 255 255 255 
255 255 255 255 255 255 255 255 255 255 255 255 255 255 255 255 255 255 
255 255 255 255 255 255 255 255 255 255 255 255 255 255 255 255 255 255 
255 255 255 255 255 255 255 255 255 255 255 255 255 255 255 255 255 255 
255 255 255 255 255 255 255 255 255 255 255 255 255 255 255 255 255 255 
255 255 255 255 255 255 255 255 255 255 255 255 255 255 255 255 255 255 
255 255 255 255 255 255 255 255 255 255 255 255 255 255 255 255 255 255 
255 255 255 255 255 255 255 255 255 255 255 255 255 255 255 255 255 255 
255 255 255 255 255 255 255 255 255 255 255 255 255 255 255 255 255 255 
255 255 255 255 255 255 255 255 255 255 255 255 255 255 255 255 255 255 
255 255 255 255 255 255 255 255 255 255 255 255 255 255 255 255 255 255 
255 255 255 255 255 255 255 255 255 255 255 255 255 255 255 255 255 255 
255 255 255 255 255 255 255 255 255 255 255 255 255 255 255 255 255 255 
255 255 255 255 255 255 255 255 255 255 255 255 255 255 255 255 255 255 
255 255 255 255 255 255 255 255 255 255 255 255 255 255 255 255 255 255 
255 255 255 255 255 255 255 255 255 255 255 255 255 255 255 255 255 255 
255 255 255 255 255 255 255 255 255 255 255 255 255 255 255 255 255 255 
255 255 255 255 255 255 255 255 255 255 255 255 255 255 255 255 255 255 
255 255 255 255 255 255 255 255 255 255 255 255 255 255 255 255 255 255 
255 255 255 255 255 255 255 255 255 255 255 255 255 255 255 255 255 255 
255 255 255 255 255 255 255 255 255 255 255 255 255 255 255 255 255 255 
255 255 255 255 255 255 255 255 255 255 255 255 255 255 255 255 255 255 
255 255 255 255 255 255 255 255 255 255 255 255 255 255 255 255 255 255 
255 255 255 255 255 255 255 255 255 255 255 255 255 255 255 255 255 255 
255 255 255 255 255 255 255 255 255 255 255 255 255 255 255 255 255 255 
255 255 255 255 255 255 255 255 255 255 255 255 255 255 255 255 255 255 
255 255 255 255 255 255 255 255 255 255 255 255 255 255 255 255 255 255 
255 255 255 255 255 255 255 255 255 255 255 255 255 255 255 255 255 255 
255 255 255 255 255 255 255 255 255 255 255 255 255 255 255 255 255 255 
255 255 255 255 255 255 255 255 255 255 255 255 255 255 255 255 255 255 
255 255 255 255 255 255 255 255 255 255 255 255 255 255 255 255 255 255 
255 255 255 255 255 255 255 255 255 255 255 255 255 255 255 255 255 255 
255 255 255 255 255 255 255 255 255 255 255 255 255 255 255 255 255 255 
255 255 255 255 255 255 255 255 255 255 255 255 255 255 255 255 255 255 
255 255 255 255 255 255 255 255 255 255 255 255 255 255 255 255 255 255 
255 255 255 255 255 255 255 255 255 255 255 255 255 255 255 255 255 255 
255 255 255 255 255 255 255 255 255 255 255 255 255 255 255 255 255 255 
255 255 255 255 255 255 255 255 255 255 255 255 255 255 255 255 255 255 
255 255 255 255 255 255 255 255 255 255 255 255 255 255 255 255 255 255 
4 4 4 4 4 4 4 4 4 4 4 4 4 4 4 4 4 4 4 4 4 4 4 4 4 4 4 4 4 4 4 4 4 4 4 4 4 4 4 
4 4 4 4 4 4 4 4 4 4 4 4 4 4 4 4 4 4 4 4 4 4 4 4 4 4 4 4 4 4 4 4 4 4 4 4 4 4 4 
4 4 4 4 4 4 4 4 4 4 4 4 4 4 4 4 4 4 4 4 4 4 4 4 4 4 4 4 4 4 4 4 4 4 4 4 4 4 4 
4 4 4 4 4 4 4 4 4 4 4 4 4 4 4 4 4 4 4 4 4 4 4 4 4 4 4 212 252 228 212 252 228 
212 252 228 212 252 228 212 252 228 212 252 228 212 252 228 212 252 228 
212 252 228 212 252 228 212 252 228 212 252 228 212 252 228 212 252 228 
212 252 228 212 252 228 212 252 228 212 252 228 212 252 228 212 252 228 
212 252 228 212 252 228 212 252 228 212 252 228 212 252 228 212 252 228 
212 252 228 212 252 228 212 252 228 212 252 228 212 252 228 212 252 228 
212 252 228 212 252 228 212 252 228 212 252 228 212 252 228 212 252 228 
212 252 228 212 252 228 212 252 228 212 252 228 212 252 228 212 252 228 
212 252 228 212 252 228 212 252 228 212 252 228 212 252 228 212 252 228 
212 252 228 212 252 228 212 252 228 212 252 228 212 252 228 212 252 228 
212 252 228 212 252 228 212 252 228 212 252 228 212 252 228 212 252 228 
212 252 228 212 252 228 212 252 228 212 252 228 212 252 228 212 252 228 
212 252 228 212 252 228 212 252 228 212 252 228 212 252 228 212 252 228 
212 252 228 212 252 228 212 252 228 212 252 228 212 252 228 212 252 228 
212 252 228 212 252 228 212 252 228 212 252 228 212 252 228 212 252 228 
212 252 228 212 252 228 212 252 228 212 252 228 212 252 228 212 252 228 
212 252 228 212 252 228 212 252 228 212 252 228 212 252 228 212 252 228 
212 252 228 212 252 228 212 252 228 212 252 228 212 252 228 212 252 228 
212 252 228 212 252 228 212 252 228 212 252 228 212 252 228 212 252 228 
212 252 228 212 252 228 212 252 228 212 252 228 212 252 228 212 252 228 
212 252 228 212 252 228 212 252 228 212 252 228 212 252 228 212 252 228 
212 252 228 212 252 228 212 252 228 212 252 228 212 252 228 212 252 228 
212 252 228 212 252 228 212 252 228 212 252 228 212 252 228 212 252 228 
212 252 228 212 252 228 212 252 228 212 252 228 212 252 228 212 252 228 
212 252 228 212 252 228 212 252 228 212 252 228 212 252 228 212 252 228 
212 252 228 212 252 228 212 252 228 212 252 228 212 252 228 212 252 228 
212 252 228 212 252 228 212 252 228 212 252 228 212 252 228 212 252 228 
212 252 228 212 252 228 212 252 228 212 252 228 212 252 228 212 252 228 
212 252 228 212 252 228 212 252 228 212 252 228 212 252 228 212 252 228 
212 252 228 212 252 228 212 252 228 212 252 228 212 252 228 212 252 228 
212 252 228 212 252 228 212 252 228 212 252 228 212 252 228 212 252 228 
212 252 228 212 252 228 212 252 228 212 252 228 212 252 228 212 252 228 
212 252 228 212 252 228 212 252 228 212 252 228 212 252 228 212 252 228 
212 252 228 212 252 228 212 252 228 212 252 228 212 252 228 212 252 228 
212 252 228 212 252 228 212 252 228 212 252 228 212 252 228 212 252 228 
212 252 228 212 252 228 212 252 228 212 252 228 212 252 228 212 252 228 
212 252 228 212 252 228 212 252 228 212 252 228 212 252 228 212 252 228 
212 252 228 212 252 228 212 252 228 212 252 228 212 252 228 212 252 228 
212 252 228 212 252 228 212 252 228 212 252 228 212 252 228 212 252 228 
212 252 228 212 252 228 212 252 228 212 252 228 212 252 228 212 252 228 
212 252 228 212 252 228 212 252 228 212 252 228 212 252 228 212 252 228 
212 252 228 212 252 228 212 252 228 212 252 228 212 252 228 212 252 228 
212 252 228 212 252 228 212 252 228 212 252 228 212 252 228 212 252 228 
212 252 228 212 252 228 212 252 228 212 252 228 212 252 228 212 252 228 
212 252 228 212 252 228 212 252 228 212 252 228 212 252 228 212 252 228 
212 252 228 212 252 228 212 252 228 212 252 228 212 252 228 212 252 228 
212 252 228 212 252 228 212 252 228 212 252 228 212 252 228 212 252 228 
212 252 228 212 252 228 212 252 228 212 252 228 212 252 228 212 252 228 
212 252 228 212 252 228 212 252 228 212 252 228 212 252 228 212 252 228 
212 252 228 212 252 228 212 252 228 212 252 228 212 252 228 212 252 228 
212 252 228 212 252 228 212 252 228 212 252 228 212 252 228 212 252 228 
212 252 228 212 252 228 212 252 228 212 252 228 212 252 228 212 252 228 
212 252 228 212 252 228 212 252 228 212 252 228 212 252 228 212 252 228 
212 252 228 212 252 228 212 252 228 212 252 228 212 252 228 212 252 228 
212 252 228 212 252 228 212 252 228 212 252 228 212 252 228 212 252 228 
212 252 228 212 252 228 212 252 228 212 252 228 212 252 228 212 252 228 
212 252 228 212 252 228 212 252 228 212 252 228 212 252 228 212 252 228 
212 252 228 212 252 228 212 252 228 212 252 228 212 252 228 212 252 228 
212 252 228 212 252 228 212 252 228 212 252 228 212 252 228 212 252 228 
212 252 228 212 252 228 212 252 228 212 252 228 212 252 228 212 252 228 
212 252 228 212 252 228 212 252 228 212 252 228 212 252 228 212 252 228 
212 252 228 212 252 228 212 252 228 212 252 228 212 252 228 212 252 228 
212 252 228 212 252 228 212 252 228 212 252 228 212 252 228 212 252 228 
212 252 228 212 252 228 212 252 228 212 252 228 212 252 228 212 252 228 
212 252 228 212 252 228 212 252 228 212 252 228 212 252 228 212 252 228 
212 252 228 212 252 228 212 252 228 212 252 228 212 252 228 212 252 228 
212 252 228 212 252 228 212 252 228 212 252 228 212 252 228 212 252 228 
212 252 228 212 252 228 212 252 228 212 252 228 212 252 228 212 252 228 
212 252 228 212 252 228 212 252 228 212 252 228 212 252 228 212 252 228 
212 252 228 212 252 228 212 252 228 212 252 228 212 252 228 212 252 228 
212 252 228 212 252 228 212 252 228 212 252 228 212 252 228 212 252 228 
212 252 228 212 252 228 212 252 228 212 252 228 212 252 228 212 252 228 
212 252 228 212 252 228 212 252 228 212 252 228 212 252 228 212 252 228 
212 252 228 212 252 228 212 252 228 212 252 228 212 252 228 212 252 228 
212 252 228 212 252 228 212 252 228 212 252 228 212 252 228 212 252 228 
212 252 228 212 252 228 212 252 228 212 252 228 212 252 228 212 252 228 
212 252 228 212 252 228 212 252 228 212 252 228 212 252 228 212 252 228 
212 252 228 212 252 228 212 252 228 212 252 228 212 252 228 212 252 228 
212 252 228 212 252 228 212 252 228 212 252 228 212 252 228 212 252 228 
212 252 228 212 252 228 212 252 228 212 252 228 212 252 228 212 252 228 
212 252 228 212 252 228 212 252 228 212 252 228 212 252 228 212 252 228 
212 252 228 212 252 228 212 252 228 212 252 228 212 252 228 212 252 228 
212 252 228 212 252 228 212 252 228 212 252 228 212 252 228 212 252 228 
212 252 228 212 252 228 212 252 228 212 252 228 212 252 228 212 252 228 
212 252 228 212 252 228 212 252 228 212 252 228 212 252 228 212 252 228 
212 252 228 212 252 228 212 252 228 212 252 228 212 252 228 212 252 228 
212 252 228 212 252 228 212 252 228 212 252 228 212 252 228 212 252 228 
212 252 228 212 252 228 212 252 228 212 252 228 212 252 228 212 252 228 
212 252 228 212 252 228 212 252 228 212 252 228 212 252 228 212 252 228 
212 252 228 212 252 228 212 252 228 212 252 228 212 252 228 212 252 228 
212 252 228 212 252 228 212 252 228 212 252 228 212 252 228 212 252 228 
212 252 228 212 252 228 212 252 228 212 252 228 212 252 228 212 252 228 
212 252 228 212 252 228 212 252 228 212 252 228 212 252 228 212 252 228 
212 252 228 212 252 228 212 252 228 212 252 228 212 252 228 212 252 228 
212 252 228 212 252 228 212 252 228 212 252 228 212 252 228 212 252 228 
212 252 228 212 252 228 212 252 228 212 252 228 212 252 228 212 252 228 
212 252 228 212 252 228 212 252 228 212 252 228 212 252 228 212 252 228 
212 252 228 212 252 228 212 252 228 212 252 228 212 252 228 212 252 228 
212 252 228 212 252 228 212 252 228 212 252 228 212 252 228 212 252 228 
212 252 228 212 252 228 212 252 228 212 252 228 212 252 228 212 252 228 
212 252 228 212 252 228 212 252 228 212 252 228 212 252 228 212 252 228 
212 252 228 212 252 228 212 252 228 212 252 228 212 252 228 212 252 228 
212 252 228 212 252 228 212 252 228 212 252 228 212 252 228 212 252 228 
212 252 228 212 252 228 212 252 228 212 252 228 212 252 228 212 252 228 
212 252 228 212 252 228 212 252 228 212 252 228 212 252 228 212 252 228 
212 252 228 212 252 228 212 252 228 212 252 228 212 252 228 212 252 228 
212 252 228 212 252 228 212 252 228 212 252 228 212 252 228 212 252 228 
212 252 228 212 252 228 212 252 228 212 252 228 212 252 228 212 252 228 
212 252 228 212 252 228 212 252 228 212 252 228 212 252 228 212 252 228 
212 252 228 212 252 228 212 252 228 212 252 228 212 252 228 212 252 228 
212 252 228 212 252 228 212 252 228 212 252 228 212 252 228 212 252 228 
212 252 228 212 252 228 212 252 228 212 252 228 212 252 228 212 252 228 
212 252 228 212 252 228 212 252 228 212 252 228 212 252 228 212 252 228 
212 252 228 212 252 228 212 252 228 212 252 228 212 252 228 212 252 228 
212 252 228 212 252 228 212 252 228 212 252 228 212 252 228 212 252 228 
212 252 228 212 252 228 212 252 228 212 252 228 212 252 228 212 252 228 
212 252 228 212 252 228 212 252 228 212 252 228 212 252 228 212 252 228 
212 252 228 212 252 228 212 252 228 212 252 228 212 252 228 212 252 228 
212 252 228 212 252 228 212 252 228 212 252 228 212 252 228 212 252 228 
212 252 228 212 252 228 212 252 228 212 252 228 212 252 228 212 252 228 
212 252 228 212 252 228 212 252 228 212 252 228 212 252 228 212 252 228 
212 252 228 212 252 228 212 252 228 212 252 228 212 252 228 212 252 228 
212 252 228 212 252 228 212 252 228 212 252 228 212 252 228 212 252 228 
212 252 228 212 252 228 212 252 228 212 252 228 212 252 228 212 252 228 
212 252 228 212 252 228 212 252 228 212 252 228 212 252 228 212 252 228 
212 252 228 212 252 228 212 252 228 212 252 228 212 252 228 212 252 228 
212 252 228 212 252 228 212 252 228 212 252 228 212 252 228 212 252 228 
212 252 228 212 252 228 212 252 228 212 252 228 212 252 228 212 252 228 
212 252 228 212 252 228 212 252 228 212 252 228 212 252 228 212 252 228 
212 252 228 212 252 228 212 252 228 212 252 228 212 252 228 212 252 228 
212 252 228 212 252 228 212 252 228 212 252 228 212 252 228 212 252 228 
212 252 228 212 252 228 212 252 228 212 252 228 212 252 228 212 252 228 
212 252 228 212 252 228 212 252 228 212 252 228 212 252 228 212 252 228 
212 252 228 212 252 228 212 252 228 212 252 228 212 252 228 212 252 228 
212 252 228 212 252 228 212 252 228 212 252 228 212 252 228 212 252 228 
212 252 228 212 252 228 212 252 228 212 252 228 212 252 228 212 252 228 
212 252 228 212 252 228 212 252 228 212 252 228 212 252 228 212 252 228 
212 252 228 212 252 228 212 252 228 212 252 228 212 252 228 212 252 228 
212 252 228 212 252 228 212 252 228 212 252 228 212 252 228 212 252 228 
212 252 228 212 252 228 212 252 228 212 252 228 212 252 228 212 252 228 
212 252 228 212 252 228 212 252 228 212 252 228 212 252 228 212 252 228 
212 252 228 212 252 228 212 252 228 212 252 228 212 252 228 212 252 228 
212 252 228 212 252 228 212 252 228 212 252 228 212 252 228 212 252 228 
212 252 228 212 252 228 212 252 228 212 252 228 212 252 228 212 252 228 
212 252 228 212 252 228 212 252 228 212 252 228 212 252 228 212 252 228 
212 252 228 212 252 228 212 252 228 212 252 228 212 252 228 212 252 228 
212 252 228 212 252 228 212 252 228 212 252 228 212 252 228 212 252 228 
212 252 228 212 252 228 212 252 228 212 252 228 212 252 228 212 252 228 
212 252 228 212 252 228 212 252 228 212 252 228 212 252 228 212 252 228 
212 252 228 212 252 228 212 252 228 212 252 228 212 252 228 212 252 228 
212 252 228 212 252 228 212 252 228 212 252 228 212 252 228 212 252 228 
212 252 228 212 252 228 212 252 228 212 252 228 212 252 228 212 252 228 
212 252 228 212 252 228 212 252 228 212 252 228 212 252 228 212 252 228 
212 252 228 212 252 228 212 252 228 212 252 228 212 252 228 212 252 228 
212 252 228 212 252 228 212 252 228 212 252 228 212 252 228 212 252 228 
212 252 228 212 252 228 212 252 228 212 252 228 212 252 228 212 252 228 
212 252 228 212 252 228 212 252 228 212 252 228 212 252 228 212 252 228 
212 252 228 212 252 228 212 252 228 212 252 228 212 252 228 212 252 228 
212 252 228 212 252 228 212 252 228 212 252 228 212 252 228 212 252 228 
212 252 228 212 252 228 212 252 228 212 252 228 212 252 228 212 252 228 
212 252 228 212 252 228 212 252 228 212 252 228 212 252 228 212 252 228 
212 252 228 212 252 228 212 252 228 212 252 228 212 252 228 212 252 228 
212 252 228 212 252 228 212 252 228 212 252 228 212 252 228 212 252 228 
212 252 228 212 252 228 212 252 228 212 252 228 212 252 228 212 252 228 
212 252 228 212 252 228 212 252 228 212 252 228 212 252 228 212 252 228 
212 252 228 212 252 228 212 252 228 212 252 228 212 252 228 212 252 228 
212 252 228 212 252 228 212 252 228 212 252 228 212 252 228 212 252 228 
212 252 228 212 252 228 212 252 228 212 252 228 212 252 228 212 252 228 
212 252 228 212 252 228 212 252 228 212 252 228 212 252 228 212 252 228 
212 252 228 212 252 228 212 252 228 212 252 228 212 252 228 212 252 228 
212 252 228 212 252 228 212 252 228 212 252 228 212 252 228 212 252 228 
212 252 228 212 252 228 212 252 228 212 252 228 212 252 228 212 252 228 
212 252 228 212 252 228 212 252 228 212 252 228 212 252 228 212 252 228 
212 252 228 212 252 228 212 252 228 212 252 228 212 252 228 212 252 228 
212 252 228 212 252 228 212 252 228 212 252 228 212 252 228 212 252 228 
212 252 228 212 252 228 212 252 228 212 252 228 212 252 228 212 252 228 
212 252 228 212 252 228 212 252 228 212 252 228 212 252 228 212 252 228 
212 252 228 212 252 228 212 252 228 212 252 228 212 252 228 212 252 228 
212 252 228 212 252 228 212 252 228 212 252 228 212 252 228 212 252 228 
212 252 228 212 252 228 212 252 228 212 252 228 212 252 228 212 252 228 
212 252 228 212 252 228 212 252 228 212 252 228 212 252 228 212 252 228 
212 252 228 212 252 228 212 252 228 212 252 228 212 252 228 212 252 228 
212 252 228 212 252 228 212 252 228 212 252 228 212 252 228 212 252 228 
212 252 228 212 252 228 212 252 228 212 252 228 212 252 228 212 252 228 
212 252 228 212 252 228 212 252 228 212 252 228 212 252 228 212 252 228 
212 252 228 212 252 228 212 252 228 212 252 228 212 252 228 212 252 228 
212 252 228 212 252 228 212 252 228 212 252 228 212 252 228 212 252 228 
212 252 228 212 252 228 212 252 228 212 252 228 212 252 228 212 252 228 
212 252 228 212 252 228 212 252 228 212 252 228 212 252 228 212 252 228 
212 252 228 212 252 228 212 252 228 212 252 228 212 252 228 212 252 228 
212 252 228 212 252 228 212 252 228 212 252 228 212 252 228 212 252 228 
212 252 228 212 252 228 212 252 228 212 252 228 212 252 228 212 252 228 
212 252 228 212 252 228 212 252 228 212 252 228 212 252 228 212 252 228 
212 252 228 212 252 228 212 252 228 212 252 228 212 252 228 212 252 228 
212 252 228 212 252 228 212 252 228 212 252 228 212 252 228 212 252 228 
212 252 228 212 252 228 212 252 228 212 252 228 212 252 228 212 252 228 
212 252 228 212 252 228 212 252 228 212 252 228 212 252 228 212 252 228 
212 252 228 212 252 228 212 252 228 212 252 228 212 252 228 212 252 228 
212 252 228 212 252 228 212 252 228 212 252 228 212 252 228 212 252 228 
212 252 228 212 252 228 212 252 228 212 252 228 212 252 228 212 252 228 
212 252 228 212 252 228 212 252 228 212 252 228 212 252 228 212 252 228 
212 252 228 212 252 228 212 252 228 212 252 228 212 252 228 212 252 228 
212 252 228 212 252 228 212 252 228 212 252 228 212 252 228 212 252 228 
212 252 228 212 252 228 212 252 228 212 252 228 212 252 228 212 252 228 
212 252 228 212 252 228 212 252 228 212 252 228 212 252 228 212 252 228 
212 252 228 212 252 228 212 252 228 212 252 228 212 252 228 212 252 228 
212 252 228 212 252 228 212 252 228 212 252 228 212 252 228 212 252 228 
212 252 228 212 252 228 212 252 228 212 252 228 212 252 228 212 252 228 
212 252 228 212 252 228 212 252 228 212 252 228 212 252 228 212 252 228 
212 252 228 212 252 228 212 252 228 212 252 228 212 252 228 212 252 228 
212 252 228 212 252 228 212 252 228 212 252 228 212 252 228 212 252 228 
212 252 228 212 252 228 212 252 228 212 252 228 212 252 228 212 252 228 
212 252 228 212 252 228 212 252 228 212 252 228 212 252 228 212 252 228 
212 252 228 212 252 228 212 252 228 212 252 228 212 252 228 212 252 228 
212 252 228 212 252 228 212 252 228 212 252 228 212 252 228 212 252 228 
212 252 228 212 252 228 212 252 228 212 252 228 212 252 228 212 252 228 
212 252 228 212 252 228 212 252 228 212 252 228 212 252 228 212 252 228 
212 252 228 212 252 228 212 252 228 212 252 228 212 252 228 212 252 228 
212 252 228 212 252 228 212 252 228 212 252 228 212 252 228 212 252 228 
212 252 228 212 252 228 212 252 228 212 252 228 212 252 228 212 252 228 
212 252 228 212 252 228 212 252 228 212 252 228 212 252 228 212 252 228 
212 252 228 212 252 228 212 252 228 212 252 228 212 252 228 212 252 228 
212 252 228 212 252 228 212 252 228 212 252 228 212 252 228 212 252 228 
212 252 228 212 252 228 212 252 228 212 252 228 212 252 228 212 252 228 
212 252 228 212 252 228 212 252 228 212 252 228 212 252 228 212 252 228 
212 252 228 212 252 228 212 252 228 212 252 228 212 252 228 212 252 228 
212 252 228 212 252 228 212 252 228 212 252 228 212 252 228 212 252 228 
212 252 228 212 252 228 212 252 228 212 252 228 212 252 228 212 252 228 
212 252 228 212 252 228 212 252 228 212 252 228 212 252 228 212 252 228 
212 252 228 212 252 228 212 252 228 212 252 228 212 252 228 212 252 228 
212 252 228 212 252 228 212 252 228 212 252 228 212 252 228 212 252 228 
212 252 228 212 252 228 212 252 228 212 252 228 212 252 228 212 252 228 
212 252 228 212 252 228 212 252 228 212 252 228 212 252 228 212 252 228 
212 252 228 212 252 228 212 252 228 212 252 228 212 252 228 212 252 228 
212 252 228 212 252 228 212 252 228 212 252 228 212 252 228 212 252 228 
212 252 228 212 252 228 212 252 228 212 252 228 212 252 228 212 252 228 
212 252 228 212 252 228 212 252 228 212 252 228 212 252 228 212 252 228 
212 252 228 212 252 228 212 252 228 212 252 228 212 252 228 212 252 228 
212 252 228 212 252 228 212 252 228 212 252 228 212 252 228 212 252 228 
212 252 228 212 252 228 212 252 228 212 252 228 212 252 228 212 252 228 
212 252 228 212 252 228 212 252 228 212 252 228 212 252 228 212 252 228 
212 252 228 212 252 228 212 252 228 212 252 228 212 252 228 212 252 228 
212 252 228 212 252 228 212 252 228 212 252 228 212 252 228 212 252 228 
212 252 228 212 252 228 212 252 228 212 252 228 212 252 228 212 252 228 
212 252 228 212 252 228 212 252 228 212 252 228 212 252 228 212 252 228 
212 252 228 212 252 228 212 252 228 212 252 228 212 252 228 212 252 228 
212 252 228 212 252 228 212 252 228 212 252 228 212 252 228 212 252 228 
212 252 228 212 252 228 212 252 228 212 252 228 212 252 228 212 252 228 
212 252 228 212 252 228 212 252 228 212 252 228 212 252 228 212 252 228 
212 252 228 212 252 228 212 252 228 212 252 228 212 252 228 212 252 228 
212 252 228 212 252 228 212 252 228 212 252 228 212 252 228 212 252 228 
212 252 228 212 252 228 212 252 228 212 252 228 212 252 228 212 252 228 
212 252 228 212 252 228 212 252 228 212 252 228 212 252 228 212 252 228 
212 252 228 212 252 228 212 252 228 212 252 228 212 252 228 212 252 228 
212 252 228 212 252 228 212 252 228 212 252 228 212 252 228 212 252 228 
212 252 228 212 252 228 212 252 228 212 252 228 212 252 228 212 252 228 
212 252 228 212 252 228 212 252 228 212 252 228 212 252 228 212 252 228 
212 252 228 212 252 228 212 252 228 212 252 228 212 252 228 212 252 228 
212 252 228 212 252 228 212 252 228 212 252 228 212 252 228 212 252 228 
212 252 228 212 252 228 212 252 228 212 252 228 212 252 228 212 252 228 
212 252 228 212 252 228 212 252 228 212 252 228 212 252 228 212 252 228 
212 252 228 212 252 228 212 252 228 212 252 228 212 252 228 212 252 228 
212 252 228 212 252 228 212 252 228 212 252 228 212 252 228 212 252 228 
212 252 228 212 252 228 212 252 228 212 252 228 212 252 228 212 252 228 
212 252 228 212 252 228 212 252 228 212 252 228 212 252 228 212 252 228 
212 252 228 212 252 228 212 252 228 212 252 228 212 252 228 212 252 228 
212 252 228 212 252 228 212 252 228 212 252 228 212 252 228 212 252 228 
212 252 228 212 252 228 212 252 228 212 252 228 212 252 228 212 252 228 
212 252 228 212 252 228 212 252 228 212 252 228 212 252 228 212 252 228 
212 252 228 212 252 228 212 252 228 212 252 228 212 252 228 212 252 228 
212 252 228 212 252 228 212 252 228 212 252 228 212 252 228 212 252 228 
212 252 228 212 252 228 212 252 228 212 252 228 212 252 228 212 252 228 
212 252 228 212 252 228 212 252 228 212 252 228 212 252 228 212 252 228 
212 252 228 212 252 228 212 252 228 212 252 228 212 252 228 212 252 228 
212 252 228 212 252 228 212 252 228 212 252 228 212 252 228 212 252 228 
212 252 228 212 252 228 212 252 228 212 252 228 212 252 228 212 252 228 
212 252 228 212 252 228 212 252 228 212 252 228 212 252 228 212 252 228 
212 252 228 212 252 228 212 252 228 212 252 228 212 252 228 212 252 228 
212 252 228 212 252 228 212 252 228 212 252 228 212 252 228 212 252 228 
212 252 228 212 252 228 212 252 228 212 252 228 212 252 228 212 252 228 
212 252 228 212 252 228 212 252 228 212 252 228 212 252 228 212 252 228 
212 252 228 212 252 228 212 252 228 212 252 228 212 252 228 212 252 228 
212 252 228 212 252 228 212 252 228 212 252 228 212 252 228 212 252 228 
212 252 228 212 252 228 212 252 228 212 252 228 212 252 228 212 252 228 
212 252 228 212 252 228 212 252 228 212 252 228 212 252 228 212 252 228 
212 252 228 212 252 228 212 252 228 212 252 228 212 252 228 212 252 228 
212 252 228 212 252 228 212 252 228 212 252 228 212 252 228 212 252 228 
212 252 228 212 252 228 212 252 228 212 252 228 212 252 228 212 252 228 
212 252 228 212 252 228 212 252 228 212 252 228 212 252 228 212 252 228 
212 252 228 212 252 228 212 252 228 212 252 228 212 252 228 212 252 228 
212 252 228 212 252 228 212 252 228 212 252 228 212 252 228 212 252 228 
212 252 228 212 252 228 212 252 228 212 252 228 212 252 228 212 252 228 
212 252 228 212 252 228 212 252 228 212 252 228 212 252 228 212 252 228 
212 252 228 212 252 228 212 252 228 212 252 228 212 252 228 212 252 228 
212 252 228 212 252 228 212 252 228 212 252 228 212 252 228 212 252 228 
212 252 228 212 252 228 212 252 228 212 252 228 212 252 228 212 252 228 
212 252 228 212 252 228 212 252 228 212 252 228 212 252 228 212 252 228 
212 252 228 212 252 228 212 252 228 212 252 228 212 252 228 212 252 228 
212 252 228 212 252 228 212 252 228 212 252 228 212 252 228 212 252 228 
212 252 228 212 252 228 212 252 228 212 252 228 212 252 228 212 252 228 
212 252 228 212 252 228 212 252 228 212 252 228 212 252 228 212 252 228 
212 252 228 212 252 228 212 252 228 212 252 228 212 252 228 212 252 228 
212 252 228 212 252 228 212 252 228 212 252 228 212 252 228 212 252 228 
212 252 228 212 252 228 212 252 228 212 252 228 212 252 228 212 252 228 
212 252 228 212 252 228 212 252 228 212 252 228 212 252 228 212 252 228 
212 252 228 212 252 228 212 252 228 212 252 228 212 252 228 212 252 228 
212 252 228 212 252 228 212 252 228 212 252 228 212 252 228 212 252 228 
212 252 228 212 252 228 212 252 228 212 252 228 212 252 228 212 252 228 
212 252 228 212 252 228 212 252 228 212 252 228 212 252 228 212 252 228 
212 252 228 212 252 228 212 252 228 212 252 228 212 252 228 212 252 228 
212 252 228 212 252 228 212 252 228 212 252 228 212 252 228 212 252 228 
212 252 228 212 252 228 212 252 228 212 252 228 212 252 228 212 252 228 
212 252 228 212 252 228 212 252 228 212 252 228 212 252 228 212 252 228 
212 252 228 212 252 228 212 252 228 212 252 228 212 252 228 212 252 228 
212 252 228 212 252 228 212 252 228 212 252 228 212 252 228 212 252 228 
212 252 228 212 252 228 212 252 228 212 252 228 212 252 228 212 252 228 
212 252 228 212 252 228 212 252 228 212 252 228 212 252 228 212 252 228 
212 252 228 212 252 228 212 252 228 212 252 228 212 252 228 212 252 228 
212 252 228 212 252 228 212 252 228 212 252 228 212 252 228 212 252 228 
212 252 228 212 252 228 212 252 228 212 252 228 212 252 228 212 252 228 
212 252 228 212 252 228 212 252 228 212 252 228 212 252 228 212 252 228 
212 252 228 212 252 228 212 252 228 212 252 228 212 252 228 212 252 228 
212 252 228 212 252 228 212 252 228 212 252 228 212 252 228 212 252 228 
212 252 228 212 252 228 212 252 228 212 252 228 212 252 228 212 252 228 
212 252 228 212 252 228 212 252 228 212 252 228 212 252 228 212 252 228 
212 252 228 212 252 228 212 252 228 212 252 228 212 252 228 212 252 228 
212 252 228 212 252 228 212 252 228 212 252 228 212 252 228 212 252 228 
212 252 228 212 252 228 212 252 228 212 252 228 212 252 228 212 252 228 
212 252 228 212 252 228 212 252 228 212 252 228 212 252 228 212 252 228 
212 252 228 212 252 228 212 252 228 212 252 228 212 252 228 212 252 228 
212 252 228 212 252 228 212 252 228 212 252 228 212 252 228 212 252 228 
212 252 228 212 252 228 212 252 228 212 252 228 212 252 228 212 252 228 
212 252 228 212 252 228 212 252 228 212 252 228 212 252 228 212 252 228 
212 252 228 212 252 228 212 252 228 212 252 228 212 252 228 212 252 228 
212 252 228 212 252 228 212 252 228 212 252 228 212 252 228 212 252 228 
212 252 228 212 252 228 212 252 228 212 252 228 212 252 228 212 252 228 
212 252 228 212 252 228 212 252 228 212 252 228 212 252 228 212 252 228 
212 252 228 212 252 228 212 252 228 212 252 228 212 252 228 212 252 228 
212 252 228 212 252 228 212 252 228 212 252 228 212 252 228 212 252 228 
212 252 228 212 252 228 212 252 228 212 252 228 212 252 228 212 252 228 
212 252 228 212 252 228 212 252 228 212 252 228 212 252 228 212 252 228 
212 252 228 212 252 228 212 252 228 212 252 228 212 252 228 212 252 228 
212 252 228 212 252 228 212 252 228 212 252 228 212 252 228 212 252 228 
212 252 228 212 252 228 212 252 228 212 252 228 212 252 228 212 252 228 
212 252 228 212 252 228 212 252 228 212 252 228 212 252 228 212 252 228 
212 252 228 212 252 228 212 252 228 212 252 228 212 252 228 212 252 228 
212 252 228 212 252 228 212 252 228 212 252 228 212 252 228 212 252 228 
212 252 228 212 252 228 212 252 228 212 252 228 212 252 228 212 252 228 
212 252 228 212 252 228 212 252 228 212 252 228 212 252 228 212 252 228 
212 252 228 212 252 228 212 252 228 212 252 228 212 252 228 212 252 228 
212 252 228 212 252 228 212 252 228 212 252 228 212 252 228 212 252 228 
212 252 228 212 252 228 212 252 228 212 252 228 212 252 228 212 252 228 
212 252 228 212 252 228 212 252 228 212 252 228 212 252 228 212 252 228 
212 252 228 212 252 228 212 252 228 212 252 228 212 252 228 212 252 228 
212 252 228 212 252 228 212 252 228 212 252 228 212 252 228 212 252 228 
212 252 228 212 252 228 212 252 228 212 252 228 212 252 228 212 252 228 
212 252 228 212 252 228 212 252 228 212 252 228 212 252 228 212 252 228 
212 252 228 212 252 228 212 252 228 212 252 228 212 252 228 212 252 228 
212 252 228 212 252 228 212 252 228 212 252 228 212 252 228 212 252 228 
212 252 228 212 252 228 212 252 228 212 252 228 212 252 228 212 252 228 
212 252 228 212 252 228 212 252 228 212 252 228 212 252 228 212 252 228 
212 252 228 212 252 228 212 252 228 212 252 228 212 252 228 212 252 228 
212 252 228 212 252 228 212 252 228 212 252 228 212 252 228 212 252 228 
212 252 228 212 252 228 212 252 228 212 252 228 212 252 228 212 252 228 
212 252 228 212 252 228 212 252 228 212 252 228 212 252 228 212 252 228 
212 252 228 212 252 228 212 252 228 212 252 228 212 252 228 212 252 228 
212 252 228 212 252 228 212 252 228 212 252 228 212 252 228 212 252 228 
212 252 228 212 252 228 212 252 228 212 252 228 212 252 228 212 252 228 
212 252 228 212 252 228 212 252 228 212 252 228 212 252 228 212 252 228 
212 252 228 212 252 228 212 252 228 212 252 228 212 252 228 212 252 228 
212 252 228 212 252 228 212 252 228 212 252 228 212 252 228 212 252 228 
212 252 228 212 252 228 212 252 228 212 252 228 212 252 228 212 252 228 
212 252 228 212 252 228 212 252 228 212 252 228 212 252 228 212 252 228 
212 252 228 212 252 228 212 252 228 212 252 228 212 252 228 212 252 228 
212 252 228 212 252 228 212 252 228 212 252 228 212 252 228 212 252 228 
212 252 228 212 252 228 212 252 228 212 252 228 212 252 228 212 252 228 
212 252 228 212 252 228 212 252 228 212 252 228 212 252 228 212 252 228 
212 252 228 212 252 228 212 252 228 212 252 228 212 252 228 212 252 228 
212 252 228 212 252 228 212 252 228 212 252 228 212 252 228 212 252 228 
212 252 228 212 252 228 212 252 228 212 252 228 212 252 228 212 252 228 
212 252 228 212 252 228 212 252 228 212 252 228 212 252 228 212 252 228 
212 252 228 212 252 228 212 252 228 212 252 228 212 252 228 212 252 228 
212 252 228 212 252 228 212 252 228 212 252 228 212 252 228 212 252 228 
212 252 228 212 252 228 212 252 228 212 252 228 212 252 228 212 252 228 
212 252 228 212 252 228 212 252 228 212 252 228 212 252 228 212 252 228 
212 252 228 212 252 228 212 252 228 212 252 228 212 252 228 212 252 228 
212 252 228 212 252 228 212 252 228 212 252 228 212 252 228 212 252 228 
212 252 228 212 252 228 212 252 228 212 252 228 212 252 228 212 252 228 
212 252 228 212 252 228 212 252 228 212 252 228 212 252 228 212 252 228 
212 252 228 212 252 228 212 252 228 212 252 228 212 252 228 212 252 228 
212 252 228 212 252 228 212 252 228 212 252 228 212 252 228 212 252 228 
212 252 228 212 252 228 212 252 228 212 252 228 212 252 228 212 252 228 
212 252 228 212 252 228 212 252 228 212 252 228 212 252 228 212 252 228 
212 252 228 212 252 228 212 252 228 212 252 228 212 252 228 212 252 228 
212 252 228 212 252 228 212 252 228 212 252 228 212 252 228 212 252 228 
212 252 228 212 252 228 212 252 228 212 252 228 212 252 228 212 252 228 
212 252 228 212 252 228 212 252 228 212 252 228 212 252 228 212 252 228 
212 252 228 212 252 228 212 252 228 212 252 228 212 252 228 212 252 228 
212 252 228 212 252 228 212 252 228 212 252 228 212 252 228 212 252 228 
212 252 228 212 252 228 212 252 228 212 252 228 212 252 228 212 252 228 
212 252 228 212 252 228 212 252 228 212 252 228 212 252 228 212 252 228 
212 252 228 212 252 228 212 252 228 212 252 228 212 252 228 212 252 228 
212 252 228 212 252 228 212 252 228 212 252 228 212 252 228 212 252 228 
212 252 228 212 252 228 212 252 228 212 252 228 212 252 228 212 252 228 
212 252 228 212 252 228 212 252 228 212 252 228 212 252 228 212 252 228 
212 252 228 212 252 228 212 252 228 212 252 228 212 252 228 212 252 228 
212 252 228 212 252 228 212 252 228 212 252 228 212 252 228 212 252 228 
212 252 228 212 252 228 212 252 228 212 252 228 212 252 228 212 252 228 
212 252 228 212 252 228 212 252 228 212 252 228 212 252 228 212 252 228 
212 252 228 212 252 228 212 252 228 212 252 228 212 252 228 212 252 228 
212 252 228 212 252 228 212 252 228 212 252 228 212 252 228 212 252 228 
212 252 228 212 252 228 212 252 228 212 252 228 212 252 228 212 252 228 
212 252 228 212 252 228 212 252 228 212 252 228 212 252 228 212 252 228 
212 252 228 212 252 228 212 252 228 212 252 228 212 252 228 212 252 228 
212 252 228 212 252 228 212 252 228 212 252 228 212 252 228 212 252 228 
212 252 228 212 252 228 212 252 228 212 252 228 212 252 228 212 252 228 
212 252 228 212 252 228 212 252 228 212 252 228 212 252 228 212 252 228 
212 252 228 212 252 228 212 252 228 212 252 228 212 252 228 212 252 228 
212 252 228 212 252 228 212 252 228 212 252 228 212 252 228 212 252 228 
212 252 228 212 252 228 212 252 228 212 252 228 212 252 228 212 252 228 
212 252 228 212 252 228 212 252 228 212 252 228 212 252 228 212 252 228 
212 252 228 212 252 228 212 252 228 212 252 228 212 252 228 212 252 228 
212 252 228 212 252 228 212 252 228 212 252 228 212 252 228 212 252 228 
212 252 228 212 252 228 212 252 228 212 252 228 212 252 228 212 252 228 
212 252 228 212 252 228 212 252 228 212 252 228 212 252 228 212 252 228 
212 252 228 212 252 228 212 252 228 212 252 228 212 252 228 212 252 228 
212 252 228 212 252 228 212 252 228 212 252 228 212 252 228 212 252 228 
212 252 228 212 252 228 212 252 228 212 252 228 212 252 228 212 252 228 
212 252 228 212 252 228 212 252 228 212 252 228 212 252 228 212 252 228 
212 252 228 212 252 228 212 252 228 212 252 228 212 252 228 212 252 228 
212 252 228 212 252 228 212 252 228 212 252 228 212 252 228 212 252 228 
212 252 228 212 252 228 212 252 228 212 252 228 212 252 228 212 252 228 
212 252 228 212 252 228 212 252 228 212 252 228 212 252 228 212 252 228 
212 252 228 212 252 228 212 252 228 212 252 228 212 252 228 212 252 228 
212 252 228 212 252 228 212 252 228 212 252 228 212 252 228 212 252 228 
212 252 228 212 252 228 212 252 228 212 252 228 212 252 228 212 252 228 
212 252 228 212 252 228 212 252 228 212 252 228 212 252 228 212 252 228 
212 252 228 212 252 228 212 252 228 212 252 228 212 252 228 212 252 228 
212 252 228 212 252 228 212 252 228 212 252 228 212 252 228 212 252 228 
212 252 228 212 252 228 212 252 228 212 252 228 212 252 228 212 252 228 
212 252 228 212 252 228 212 252 228 212 252 228 212 252 228 212 252 228 
212 252 228 212 252 228 212 252 228 212 252 228 212 252 228 212 252 228 
212 252 228 212 252 228 212 252 228 212 252 228 212 252 228 212 252 228 
212 252 228 212 252 228 212 252 228 212 252 228 212 252 228 212 252 228 
212 252 228 212 252 228 212 252 228 212 252 228 212 252 228 212 252 228 
212 252 228 212 252 228 212 252 228 212 252 228 212 252 228 212 252 228 
212 252 228 212 252 228 212 252 228 212 252 228 212 252 228 212 252 228 
212 252 228 212 252 228 212 252 228 212 252 228 212 252 228 212 252 228 
212 252 228 212 252 228 212 252 228 212 252 228 212 252 228 212 252 228 
212 252 228 212 252 228 212 252 228 212 252 228 212 252 228 212 252 228 
212 252 228 212 252 228 212 252 228 212 252 228 212 252 228 212 252 228 
212 252 228 212 252 228 212 252 228 212 252 228 212 252 228 212 252 228 
212 252 228 212 252 228 212 252 228 212 252 228 212 252 228 212 252 228 
212 252 228 212 252 228 212 252 228 212 252 228 212 252 228 212 252 228 
212 252 228 212 252 228 212 252 228 212 252 228 212 252 228 212 252 228 
212 252 228 212 252 228 212 252 228 212 252 228 212 252 228 212 252 228 
212 252 228 212 252 228 212 252 228 212 252 228 
