P3
48 76
255
212 252 228 212 252 228 212 252 228 212 252 228 212 252 228 212 252 228 
212 252 228 212 252 228 212 252 228 212 252 228 212 252 228 212 252 228 
212 252 228 212 252 228 212 252 228 212 252 228 212 252 228 212 252 228 
212 252 228 212 252 228 212 252 228 212 252 228 212 252 228 212 252 228 
212 252 228 212 252 228 212 252 228 212 252 228 212 252 228 212 252 228 
212 252 228 212 252 228 212 252 228 212 252 228 212 252 228 212 252 228 
212 252 228 212 252 228 212 252 228 212 252 228 212 252 228 212 252 228 
212 252 228 212 252 228 212 252 228 212 252 228 212 252 228 212 252 228 
212 252 228 212 252 228 212 252 228 212 252 228 212 252 228 212 252 228 
212 252 228 212 252 228 212 252 228 212 252 228 212 252 228 212 252 228 
212 252 228 212 252 228 212 252 228 212 252 228 212 252 228 212 252 228 
212 252 228 212 252 228 212 252 228 212 252 228 212 252 228 212 252 228 
212 252 228 212 252 228 212 252 228 212 252 228 212 252 228 212 252 228 
212 252 228 212 252 228 212 252 228 212 252 228 212 252 228 212 252 228 
212 252 228 212 252 228 212 252 228 212 252 228 212 252 228 212 252 228 
212 252 228 212 252 228 212 252 228 212 252 228 212 252 228 212 252 228 
212 252 228 212 252 228 212 252 228 212 252 228 212 252 228 212 252 228 
212 252 228 212 252 228 212 252 228 212 252 228 212 252 228 212 252 228 
212 252 228 212 252 228 212 252 228 148 178 158 204 249 221 132 164 144 
212 252 228 148 178 158 212 252 228 116 141 124 212 252 228 148 178 158 
100 132 108 108 132 124 164 204 179 108 126 108 108 132 124 156 188 172 
140 167 147 122 147 132 108 132 124 204 249 221 212 252 228 212 252 228 
212 252 228 212 252 228 212 252 228 212 252 228 212 252 228 212 252 228 
212 252 228 212 252 228 212 252 228 212 252 228 212 252 228 212 252 228 
212 252 228 212 252 228 212 252 228 212 252 228 212 252 228 212 252 228 
212 252 228 212 252 228 212 252 228 212 252 228 212 252 228 212 252 228 
212 252 228 212 252 228 212 252 228 99 121 108 148 178 158 69 84 75 196 235 209 
108 132 124 172 211 188 52 60 60 188 229 204 212 252 228 116 128 120 
196 235 209 188 229 204 124 156 136 212 252 228 212 252 228 107 124 116 
212 252 228 156 196 180 156 188 172 212 252 228 212 252 228 212 252 228 
212 252 228 212 252 228 212 252 228 212 252 228 212 252 228 212 252 228 
212 252 228 212 252 228 212 252 228 212 252 228 212 252 228 212 252 228 
212 252 228 212 252 228 212 252 228 212 252 228 212 252 228 212 252 228 
212 252 228 212 252 228 212 252 228 212 252 228 212 252 228 212 252 228 
212 252 228 212 252 228 107 124 116 107 124 116 148 178 158 108 140 121 
172 207 180 100 132 108 122 147 132 99 121 108 212 252 228 122 147 132 
188 229 204 188 229 204 69 84 75 116 141 124 156 196 180 90 108 97 116 141 124 
69 84 75 196 235 209 212 252 228 212 252 228 212 252 228 212 252 228 
212 252 228 212 252 228 212 252 228 212 252 228 212 252 228 212 252 228 
212 252 228 212 252 228 212 252 228 212 252 228 212 252 228 212 252 228 
212 252 228 212 252 228 212 252 228 212 252 228 212 252 228 212 252 228 
212 252 228 212 252 228 212 252 228 212 252 228 212 252 228 212 252 228 
212 252 228 140 173 156 84 99 88 204 249 221 23 22 42 204 249 221 90 108 97 
196 235 209 99 121 108 212 252 228 108 132 124 188 229 204 188 229 204 
94 116 100 164 196 180 183 223 195 99 121 108 212 252 228 156 188 172 
164 196 180 212 252 228 212 252 228 212 252 228 212 252 228 212 252 228 
212 252 228 212 252 228 212 252 228 212 252 228 212 252 228 212 252 228 
212 252 228 212 252 228 212 252 228 212 252 228 212 252 228 212 252 228 
212 252 228 212 252 228 212 252 228 212 252 228 212 252 228 212 252 228 
212 252 228 212 252 228 212 252 228 212 252 228 212 252 228 212 252 228 
212 252 228 196 244 220 212 252 228 188 229 204 212 252 228 199 244 212 
212 252 228 199 244 212 212 252 228 197 236 220 212 252 228 212 252 228 
172 207 180 156 196 180 183 223 195 196 235 209 212 252 228 212 252 228 
197 236 220 212 252 228 212 252 228 212 252 228 212 252 228 212 252 228 
212 252 228 212 252 228 212 252 228 212 252 228 212 252 228 212 252 228 
212 252 228 212 252 228 212 252 228 212 252 228 212 252 228 212 252 228 
212 252 228 212 252 228 212 252 228 212 252 228 212 252 228 212 252 228 
212 252 228 212 252 228 212 252 228 212 252 228 212 252 228 212 252 228 
212 252 228 212 252 228 212 252 228 212 252 228 212 252 228 212 252 228 
212 252 228 212 252 228 212 252 228 212 252 228 212 252 228 212 252 228 
212 252 228 212 252 228 212 252 228 212 252 228 212 252 228 212 252 228 
212 252 228 212 252 228 212 252 228 212 252 228 212 252 228 212 252 228 
212 252 228 212 252 228 212 252 228 212 252 228 212 252 228 212 252 228 
212 252 228 212 252 228 212 252 228 212 252 228 212 252 228 212 252 228 
212 252 228 212 252 228 212 252 228 212 252 228 212 252 228 212 252 228 
212 252 228 212 252 228 212 252 228 212 252 228 212 252 228 172 211 188 
156 196 180 148 178 158 132 164 144 183 223 195 148 178 158 108 132 124 
122 147 132 99 121 108 204 249 221 69 84 75 116 141 124 108 140 121 
172 207 180 156 188 172 182 212 189 148 178 158 122 147 132 122 147 132 
116 128 120 212 252 228 212 252 228 212 252 228 212 252 228 212 252 228 
212 252 228 212 252 228 212 252 228 212 252 228 212 252 228 212 252 228 
212 252 228 212 252 228 212 252 228 212 252 228 212 252 228 212 252 228 
212 252 228 212 252 228 212 252 228 212 252 228 212 252 228 212 252 228 
212 252 228 212 252 228 212 252 228 212 252 228 212 252 228 204 249 221 
108 140 121 107 124 116 116 128 120 124 156 136 148 178 158 132 164 144 
212 252 228 154 188 164 132 164 144 90 108 97 196 235 209 107 124 116 
156 196 180 94 116 100 116 141 124 212 252 228 94 116 100 156 196 180 
188 229 204 212 252 228 212 252 228 212 252 228 212 252 228 212 252 228 
212 252 228 212 252 228 212 252 228 212 252 228 212 252 228 212 252 228 
212 252 228 212 252 228 212 252 228 212 252 228 212 252 228 212 252 228 
212 252 228 212 252 228 212 252 228 212 252 228 212 252 228 212 252 228 
212 252 228 212 252 228 212 252 228 212 252 228 212 252 228 212 252 228 
113 108 116 108 140 121 122 147 132 94 116 100 156 196 180 148 178 158 
212 252 228 156 196 180 133 155 141 69 84 75 140 173 156 94 116 100 156 188 172 
99 121 108 94 116 100 212 252 228 172 211 188 148 178 158 76 95 83 212 252 228 
212 252 228 212 252 228 212 252 228 212 252 228 212 252 228 212 252 228 
212 252 228 212 252 228 212 252 228 212 252 228 212 252 228 212 252 228 
212 252 228 212 252 228 212 252 228 212 252 228 212 252 228 212 252 228 
212 252 228 212 252 228 212 252 228 212 252 228 212 252 228 212 252 228 
212 252 228 212 252 228 212 252 228 212 252 228 107 124 116 156 196 180 
156 196 180 84 99 88 212 252 228 99 121 108 124 148 156 107 124 116 
197 236 220 108 132 124 212 252 228 116 141 124 172 195 180 156 188 172 
156 196 180 140 173 156 107 124 116 124 148 156 99 121 108 212 252 228 
212 252 228 212 252 228 212 252 228 212 252 228 212 252 228 212 252 228 
212 252 228 212 252 228 212 252 228 212 252 228 212 252 228 212 252 228 
212 252 228 212 252 228 212 252 228 212 252 228 212 252 228 212 252 228 
212 252 228 212 252 228 212 252 228 212 252 228 212 252 228 212 252 228 
212 252 228 212 252 228 212 252 228 212 252 228 212 252 228 212 252 228 
212 252 228 212 252 228 212 252 228 212 252 228 212 252 228 212 252 228 
212 252 228 212 252 228 212 252 228 212 252 228 212 252 228 212 252 228 
212 252 228 212 252 228 212 252 228 212 252 228 212 252 228 212 252 228 
212 252 228 212 252 228 212 252 228 212 252 228 212 252 228 212 252 228 
212 252 228 212 252 228 212 252 228 212 252 228 212 252 228 212 252 228 
212 252 228 212 252 228 212 252 228 212 252 228 212 252 228 212 252 228 
212 252 228 212 252 228 212 252 228 212 252 228 212 252 228 212 252 228 
212 252 228 212 252 228 212 252 228 212 252 228 212 252 228 212 252 228 
212 252 228 212 252 228 212 252 228 212 252 228 212 252 228 212 252 228 
212 252 228 212 252 228 212 252 228 212 252 228 212 252 228 212 252 228 
212 252 228 212 252 228 212 252 228 212 252 228 212 252 228 212 252 228 
212 252 228 212 252 228 212 252 228 212 252 228 212 252 228 212 252 228 
212 252 228 212 252 228 212 252 228 212 252 228 212 252 228 212 252 228 
212 252 228 212 252 228 212 252 228 212 252 228 212 252 228 212 252 228 
212 252 228 212 252 228 212 252 228 212 252 228 212 252 228 212 252 228 
212 252 228 212 252 228 212 252 228 212 252 228 212 252 228 212 252 228 
212 252 228 212 252 228 212 252 228 212 252 228 212 252 228 212 252 228 
212 252 228 212 252 228 212 252 228 212 252 228 212 252 228 212 252 228 
212 252 228 212 252 228 212 252 228 212 252 228 212 252 228 212 252 228 
212 252 228 212 252 228 212 252 228 212 252 228 212 252 228 212 252 228 
212 252 228 212 252 228 212 252 228 212 252 228 212 252 228 212 252 228 
212 252 228 212 252 228 212 252 228 212 252 228 212 252 228 212 252 228 
212 252 228 212 252 228 212 252 228 212 252 228 212 252 228 212 252 228 
212 252 228 212 252 228 212 252 228 212 252 228 212 252 228 212 252 228 
212 252 228 212 252 228 212 252 228 212 252 228 212 252 228 212 252 228 
212 252 228 212 252 228 212 252 228 212 252 228 212 252 228 212 252 228 
212 252 228 212 252 228 212 252 228 212 252 228 212 252 228 212 252 228 
212 252 228 212 252 228 212 252 228 212 252 228 212 252 228 212 252 228 
212 252 228 212 252 228 212 252 228 212 252 228 212 252 228 212 252 228 
212 252 228 212 252 228 212 252 228 212 252 228 212 252 228 212 252 228 
212 252 228 212 252 228 212 252 228 212 252 228 212 252 228 212 252 228 
212 252 228 212 252 228 212 252 228 212 252 228 212 252 228 212 252 228 
212 252 228 212 252 228 212 252 228 212 252 228 212 252 228 212 252 228 
212 252 228 212 252 228 212 252 228 212 252 228 212 252 228 212 252 228 
212 252 228 212 252 228 212 252 228 212 252 228 212 252 228 212 252 228 
212 252 228 212 252 228 212 252 228 212 252 228 212 252 228 212 252 228 
212 252 228 212 252 228 212 252 228 212 252 228 212 252 228 212 252 228 
212 252 228 212 252 228 212 252 228 212 252 228 212 252 228 212 252 228 
212 252 228 212 252 228 212 252 228 212 252 228 212 252 228 212 252 228 
212 252 228 212 252 228 212 252 228 212 252 228 212 252 228 212 252 228 
212 252 228 212 252 228 212 252 228 212 252 228 212 252 228 212 252 228 
212 252 228 212 252 228 212 252 228 212 252 228 212 252 228 212 252 228 
212 252 228 212 252 228 212 252 228 212 252 228 212 252 228 212 252 228 
212 252 228 212 252 228 212 252 228 212 252 228 212 252 228 212 252 228 
212 252 228 212 252 228 212 252 228 212 252 228 212 252 228 212 252 228 
212 252 228 212 252 228 212 252 228 212 252 228 212 252 228 212 252 228 
212 252 228 212 252 228 212 252 228 212 252 228 212 252 228 212 252 228 
212 252 228 212 252 228 212 252 228 212 252 228 212 252 228 212 252 228 
212 252 228 212 252 228 212 252 228 212 252 228 212 252 228 212 252 228 
212 252 228 212 252 228 212 252 228 212 252 228 212 252 228 212 252 228 
212 252 228 212 252 228 212 252 228 212 252 228 212 252 228 212 252 228 
212 252 228 212 252 228 212 252 228 212 252 228 212 252 228 212 252 228 
212 252 228 212 252 228 212 252 228 212 252 228 212 252 228 212 252 228 
212 252 228 212 252 228 212 252 228 212 252 228 212 252 228 212 252 228 
212 252 228 212 252 228 212 252 228 212 252 228 212 252 228 212 252 228 
212 252 228 212 252 228 212 252 228 212 252 228 212 252 228 212 252 228 
212 252 228 212 252 228 212 252 228 212 252 228 212 252 228 212 252 228 
212 252 228 212 252 228 212 252 228 212 252 228 212 252 228 212 252 228 
212 252 228 212 252 228 212 252 228 212 252 228 212 252 228 212 252 228 
212 252 228 212 252 228 212 252 228 212 252 228 212 252 228 212 252 228 
212 252 228 212 252 228 212 252 228 212 252 228 212 252 228 212 252 228 
212 252 228 212 252 228 212 252 228 212 252 228 212 252 228 212 252 228 
212 252 228 212 252 228 212 252 228 212 252 228 212 252 228 212 252 228 
212 252 228 212 252 228 212 252 228 212 252 228 212 252 228 212 252 228 
212 252 228 212 252 228 212 252 228 212 252 228 212 252 228 212 252 228 
212 252 228 212 252 228 212 252 228 212 252 228 212 252 228 212 252 228 
212 252 228 212 252 228 212 252 228 212 252 228 212 252 228 212 252 228 
212 252 228 212 252 228 212 252 228 212 252 228 212 252 228 212 252 228 
212 252 228 212 252 228 212 252 228 212 252 228 212 252 228 212 252 228 
212 252 228 212 252 228 212 252 228 212 252 228 212 252 228 212 252 228 
212 252 228 212 252 228 212 252 228 212 252 228 212 252 228 212 252 228 
212 252 228 212 252 228 212 252 228 212 252 228 212 252 228 212 252 228 
212 252 228 212 252 228 212 252 228 212 252 228 212 252 228 212 252 228 
212 252 228 212 252 228 212 252 228 212 252 228 212 252 228 212 252 228 
212 252 228 212 252 228 212 252 228 212 252 228 212 252 228 212 252 228 
212 252 228 212 252 228 212 252 228 212 252 228 212 252 228 212 252 228 
212 252 228 212 252 228 212 252 228 212 252 228 212 252 228 212 252 228 
212 252 228 212 252 228 212 252 228 212 252 228 212 252 228 212 252 228 
212 252 228 212 252 228 212 252 228 212 252 228 212 252 228 212 252 228 
212 252 228 212 252 228 212 252 228 212 252 228 212 252 228 212 252 228 
212 252 228 212 252 228 212 252 228 212 252 228 212 252 228 212 252 228 
212 252 228 212 252 228 212 252 228 212 252 228 212 252 228 212 252 228 
212 252 228 212 252 228 212 252 228 212 252 228 212 252 228 212 252 228 
212 252 228 212 252 228 212 252 228 212 252 228 212 252 228 212 252 228 
212 252 228 212 252 228 212 252 228 212 252 228 212 252 228 212 252 228 
212 252 228 212 252 228 212 252 228 212 252 228 212 252 228 212 252 228 
212 252 228 212 252 228 212 252 228 212 252 228 212 252 228 212 252 228 
212 252 228 212 252 228 212 252 228 212 252 228 212 252 228 212 252 228 
212 252 228 212 252 228 212 252 228 212 252 228 212 252 228 154 188 164 
108 140 121 116 141 124 196 235 209 212 252 228 212 252 228 212 252 228 
212 252 228 212 252 228 212 252 228 212 252 228 212 252 228 212 252 228 
212 252 228 212 252 228 212 252 228 212 252 228 212 252 228 212 252 228 
212 252 228 212 252 228 212 252 228 212 252 228 212 252 228 212 252 228 
212 252 228 212 252 228 212 252 228 212 252 228 212 252 228 212 252 228 
212 252 228 212 252 228 212 252 228 212 252 228 212 252 228 212 252 228 
212 252 228 212 252 228 212 252 228 212 252 228 212 252 228 212 252 228 
212 252 228 212 252 228 212 252 228 199 244 212 52 60 60 12 8 8 68 73 70 
52 52 51 4 4 4 132 164 144 212 252 228 212 252 228 212 252 228 212 252 228 
212 252 228 212 252 228 212 252 228 212 252 228 212 252 228 212 252 228 
212 252 228 212 252 228 212 252 228 212 252 228 212 252 228 212 252 228 
212 252 228 212 252 228 212 252 228 212 252 228 212 252 228 212 252 228 
212 252 228 212 252 228 212 252 228 212 252 228 212 252 228 212 252 228 
212 252 228 212 252 228 212 252 228 212 244 221 156 196 172 84 99 88 52 68 60 
52 68 60 52 68 60 76 95 83 122 147 132 164 204 179 212 252 228 76 95 83 
42 50 44 247 244 244 247 244 244 247 244 244 196 196 195 12 20 20 148 172 148 
199 244 212 148 178 158 108 126 108 60 74 68 44 60 52 60 74 68 52 68 60 
108 126 108 196 235 209 212 252 228 212 252 228 212 252 228 212 252 228 
212 252 228 212 252 228 212 252 228 212 252 228 212 252 228 212 252 228 
212 252 228 212 252 228 212 252 228 212 252 228 212 252 228 212 252 228 
212 252 228 212 252 228 212 252 228 212 252 228 212 252 228 76 95 83 4 4 4 
84 84 84 132 132 133 132 132 133 132 132 133 100 100 100 52 60 60 4 4 4 12 20 20 
4 4 4 220 223 224 247 244 244 247 244 244 247 244 244 247 244 244 116 128 120 
12 8 8 4 4 4 12 20 20 68 73 70 132 132 133 132 132 133 132 132 133 132 132 133 
52 60 60 12 20 20 156 188 172 212 252 228 212 252 228 212 252 228 212 252 228 
212 252 228 212 252 228 212 252 228 212 252 228 212 252 228 212 252 228 
212 252 228 212 252 228 212 252 228 212 252 228 212 252 228 212 252 228 
212 252 228 212 252 228 212 252 228 172 211 188 4 4 4 220 223 224 247 244 244 
247 244 244 247 244 244 247 244 244 247 244 244 247 244 244 247 244 244 
148 140 146 4 4 4 247 244 244 247 244 244 247 244 244 247 244 244 247 244 244 
162 156 162 12 20 20 220 223 224 247 244 244 247 244 244 247 244 244 
247 244 244 247 244 244 247 244 244 247 244 244 162 156 162 28 36 36 212 252 228 
212 252 228 212 252 228 212 252 228 212 252 228 212 252 228 212 252 228 
212 252 228 212 252 228 212 252 228 212 252 228 212 252 228 212 252 228 
212 252 228 212 252 228 212 252 228 212 252 228 212 252 228 212 252 228 
105 135 151 42 50 44 247 244 244 247 244 244 247 244 244 247 244 244 
247 244 244 247 244 244 247 244 244 247 244 244 236 244 244 4 4 4 207 211 207 
247 244 244 247 244 244 247 244 244 247 244 244 116 128 120 68 60 68 247 244 244 
247 244 244 247 244 244 247 244 244 247 244 244 247 244 244 247 244 244 
247 244 244 196 196 195 4 4 4 212 252 228 212 252 228 212 252 228 212 252 228 
212 252 228 212 252 228 212 252 228 212 252 228 212 252 228 212 252 228 
212 252 228 212 252 228 212 252 228 212 252 228 212 252 228 212 252 228 
212 252 228 212 252 228 212 252 228 188 229 204 4 4 4 196 196 195 247 244 244 
247 244 244 247 244 244 247 244 244 247 244 244 247 244 244 207 211 207 
132 124 126 4 4 4 84 84 84 247 244 244 247 244 244 247 244 244 207 211 207 
12 20 20 42 50 44 162 156 162 236 236 237 247 244 244 247 244 244 247 244 244 
247 244 244 247 244 244 247 244 244 100 100 100 42 50 44 212 252 228 
212 252 228 212 252 228 212 252 228 212 252 228 212 252 228 212 252 228 
212 252 228 212 252 228 212 252 228 212 252 228 212 252 228 212 252 228 
212 252 228 212 252 228 212 252 228 212 252 228 212 252 228 212 252 228 
212 252 228 140 173 156 4 4 4 23 22 42 68 66 60 113 108 116 68 66 60 52 60 60 
4 4 4 4 4 4 42 50 44 4 4 4 10 11 20 36 36 28 84 84 84 68 60 68 4 4 4 113 108 116 
4 4 4 12 20 20 4 4 4 12 20 20 68 66 60 68 60 68 99 121 108 68 60 68 12 20 20 
28 36 36 172 211 188 212 252 228 212 252 228 212 252 228 212 252 228 
212 252 228 212 252 228 212 252 228 212 252 228 212 252 228 212 252 228 
212 252 228 212 252 228 212 252 228 212 252 228 212 252 228 212 252 228 
212 252 228 212 252 228 212 252 228 212 252 228 212 252 228 196 235 209 
124 156 136 116 128 120 108 132 124 108 140 121 108 132 124 156 196 180 
204 249 221 212 252 228 4 4 4 196 196 195 161 169 163 132 132 133 132 132 133 
207 211 207 247 244 244 4 4 4 156 188 172 188 229 204 156 188 172 107 124 116 
108 140 121 113 108 116 108 132 124 156 188 172 212 252 228 212 252 228 
212 252 228 212 252 228 212 252 228 212 252 228 212 252 228 212 252 228 
212 252 228 212 252 228 212 252 228 212 252 228 212 252 228 212 252 228 
212 252 228 212 252 228 212 252 228 212 252 228 212 252 228 212 252 228 
212 252 228 212 252 228 212 252 228 212 252 228 212 252 228 212 252 228 
212 252 228 212 252 228 212 252 228 212 252 228 212 252 228 212 252 228 
4 4 4 196 196 195 247 244 244 247 244 244 247 244 244 247 244 244 247 244 244 
4 12 8 156 188 172 212 252 228 212 252 228 212 252 228 212 252 228 212 252 228 
212 252 228 212 252 228 212 252 228 212 252 228 212 252 228 212 252 228 
212 252 228 212 252 228 212 252 228 212 252 228 212 252 228 212 252 228 
212 252 228 212 252 228 212 252 228 212 252 228 212 252 228 212 252 228 
212 252 228 212 252 228 212 252 228 212 252 228 212 252 228 212 252 228 
212 252 228 212 252 228 212 252 228 212 252 228 212 252 228 212 252 228 
212 252 228 212 252 228 212 252 228 212 252 228 4 4 4 196 196 195 247 244 244 
247 244 244 247 244 244 247 244 244 247 244 244 4 4 4 156 196 172 212 252 228 
212 252 228 212 252 228 212 252 228 212 252 228 212 252 228 212 252 228 
212 252 228 212 252 228 212 252 228 212 252 228 212 252 228 212 252 228 
212 252 228 212 252 228 212 252 228 212 252 228 212 252 228 212 252 228 
212 252 228 212 252 228 212 252 228 212 252 228 212 252 228 212 252 228 
212 252 228 212 252 228 212 252 228 212 252 228 212 252 228 212 252 228 
212 252 228 212 252 228 212 252 228 212 252 228 212 252 228 212 252 228 
212 252 228 212 252 228 4 4 4 196 196 195 247 244 244 247 244 244 247 244 244 
247 244 244 247 244 244 4 4 4 172 195 180 212 252 228 212 252 228 212 252 228 
212 252 228 212 252 228 212 252 228 212 252 228 212 252 228 212 252 228 
212 252 228 212 252 228 212 252 228 212 252 228 212 252 228 212 252 228 
212 252 228 212 252 228 212 252 228 212 252 228 212 252 228 212 252 228 
212 252 228 212 252 228 212 252 228 212 252 228 212 252 228 212 252 228 
212 252 228 212 252 228 212 252 228 212 252 228 212 252 228 212 252 228 
212 252 228 212 252 228 212 252 228 212 252 228 212 252 228 212 252 228 
4 4 4 196 196 195 247 244 244 247 244 244 247 244 244 247 244 244 247 244 244 
4 4 4 164 204 179 212 252 228 212 252 228 212 252 228 212 252 228 212 252 228 
212 252 228 212 252 228 212 252 228 212 252 228 212 252 228 212 252 228 
212 252 228 212 252 228 212 252 228 212 252 228 212 252 228 212 252 228 
212 252 228 212 252 228 212 252 228 212 252 228 212 252 228 212 252 228 
212 252 228 212 252 228 212 252 228 212 252 228 212 252 228 212 252 228 
212 252 228 212 252 228 212 252 228 212 252 228 212 252 228 212 252 228 
212 252 228 212 252 228 212 252 228 212 252 228 4 4 4 196 196 195 247 244 244 
247 244 244 247 244 244 247 244 244 247 244 244 4 12 8 156 188 172 212 252 228 
212 252 228 212 252 228 212 252 228 212 252 228 212 252 228 212 252 228 
212 252 228 212 252 228 212 252 228 212 252 228 212 252 228 212 252 228 
212 252 228 212 252 228 212 252 228 212 252 228 212 252 228 212 252 228 
212 252 228 212 252 228 212 252 228 212 252 228 212 252 228 212 252 228 
172 207 180 116 128 120 108 140 121 108 140 121 107 124 116 108 126 108 
108 140 121 108 126 108 116 128 120 107 124 116 108 126 108 108 140 121 
107 124 116 108 126 108 4 4 4 207 211 207 247 244 244 247 244 244 247 244 244 
247 244 244 247 244 244 12 8 8 76 95 83 108 126 108 132 164 144 164 204 179 
156 196 172 212 252 228 212 252 228 212 252 228 212 252 228 212 252 228 
212 252 228 212 252 228 212 252 228 212 252 228 212 252 228 212 252 228 
212 252 228 212 252 228 212 252 228 212 252 228 212 252 228 212 252 228 
212 252 228 212 252 228 212 252 228 212 252 228 52 60 60 44 60 52 68 60 68 
68 73 70 68 73 70 68 73 70 68 73 70 68 73 70 68 73 70 68 73 70 68 73 70 
68 73 70 68 73 70 68 73 70 84 84 84 247 244 244 247 244 244 247 244 244 
247 244 244 247 244 244 247 244 244 84 84 84 68 73 70 68 73 70 52 60 60 
4 4 4 4 4 4 4 4 4 42 50 44 108 126 108 188 229 204 212 252 228 212 252 228 
212 252 228 212 252 228 212 252 228 212 252 228 212 252 228 212 252 228 
212 252 228 212 252 228 212 252 228 212 252 228 212 252 228 212 252 228 
212 252 228 212 252 228 212 252 228 68 73 70 196 196 195 247 244 244 
247 244 244 247 244 244 247 244 244 247 244 244 247 244 244 247 244 244 
247 244 244 247 244 244 247 244 244 247 244 244 247 244 244 247 244 244 
247 244 244 247 244 244 247 244 244 247 244 244 247 244 244 247 244 244 
247 244 244 247 244 244 247 244 244 247 244 244 247 244 244 247 244 244 
196 196 195 162 156 162 42 50 44 12 20 20 108 126 108 212 252 228 212 252 228 
212 252 228 212 252 228 212 252 228 212 252 228 212 252 228 212 252 228 
212 252 228 212 252 228 212 252 228 212 252 228 212 252 228 212 252 228 
212 252 228 212 252 228 52 60 60 196 196 195 247 244 244 247 244 244 
247 244 244 247 244 244 247 244 244 247 244 244 247 244 244 247 244 244 
247 244 244 247 244 244 247 244 244 247 244 244 247 244 244 247 244 244 
247 244 244 247 244 244 247 244 244 247 244 244 247 244 244 247 244 244 
247 244 244 247 244 244 247 244 244 247 244 244 247 244 244 247 244 244 
247 244 244 247 244 244 207 211 207 12 20 20 76 95 83 212 252 228 212 252 228 
212 252 228 212 252 228 212 252 228 212 252 228 212 252 228 212 252 228 
212 252 228 212 252 228 212 252 228 212 252 228 212 252 228 212 252 228 
212 252 228 52 60 60 207 211 207 247 244 244 247 244 244 247 244 244 
247 244 244 247 244 244 247 244 244 247 244 244 247 244 244 247 244 244 
247 244 244 247 244 244 247 244 244 247 244 244 247 244 244 247 244 244 
247 244 244 247 244 244 247 244 244 247 244 244 247 244 244 247 244 244 
247 244 244 247 244 244 247 244 244 247 244 244 247 244 244 247 244 244 
247 244 244 247 244 244 236 236 237 12 20 20 107 124 116 212 252 228 
212 252 228 212 252 228 212 252 228 212 252 228 212 252 228 212 252 228 
212 252 228 212 252 228 212 252 228 212 252 228 212 252 228 212 252 228 
212 252 228 52 60 60 196 196 195 247 244 244 247 244 244 247 244 244 
247 244 244 247 244 244 247 244 244 247 244 244 247 244 244 247 244 244 
247 244 244 247 244 244 247 244 244 247 244 244 247 244 244 247 244 244 
247 244 244 247 244 244 247 244 244 247 244 244 247 244 244 247 244 244 
247 244 244 247 244 244 247 244 244 247 244 244 247 244 244 247 244 244 
247 244 244 247 244 244 247 244 244 207 211 207 4 4 4 188 229 204 212 252 228 
212 252 228 212 252 228 212 252 228 212 252 228 212 252 228 212 252 228 
212 252 228 212 252 228 212 252 228 212 252 228 212 252 228 212 252 228 
52 60 60 196 196 195 247 244 244 247 244 244 247 244 244 247 244 244 
247 244 244 247 244 244 247 244 244 247 244 244 247 244 244 247 244 244 
247 244 244 247 244 244 247 244 244 247 244 244 247 244 244 247 244 244 
247 244 244 247 244 244 247 244 244 247 244 244 247 244 244 247 244 244 
247 244 244 247 244 244 247 244 244 247 244 244 247 244 244 247 244 244 
247 244 244 247 244 244 247 244 244 52 60 60 84 99 88 212 252 228 212 252 228 
212 252 228 212 252 228 212 252 228 212 252 228 212 252 228 212 252 228 
212 252 228 212 252 228 212 252 228 212 252 228 212 252 228 52 60 60 100 100 100 
132 132 133 132 132 133 132 132 133 132 132 133 132 132 133 132 132 133 
132 132 133 132 132 133 132 132 133 132 132 133 132 132 133 132 132 133 
132 132 133 132 132 133 132 132 133 116 141 124 132 132 133 132 132 133 
132 132 133 132 132 133 132 132 133 178 178 178 247 244 244 247 244 244 
247 244 244 247 244 244 247 244 244 247 244 244 247 244 244 247 244 244 
247 244 244 185 194 190 20 20 11 212 252 228 212 252 228 212 252 228 
212 252 228 212 252 228 212 252 228 212 252 228 212 252 228 212 252 228 
212 252 228 212 252 228 212 252 228 212 252 228 140 173 156 52 68 60 68 60 68 
52 60 60 60 74 68 52 60 60 52 60 60 60 74 68 52 60 60 52 68 60 52 68 60 
52 60 60 60 74 68 52 60 60 52 60 60 60 74 68 52 60 60 60 74 68 52 60 60 
60 74 68 52 60 60 60 74 68 52 60 60 12 20 20 4 4 4 107 124 116 247 244 244 
247 244 244 247 244 244 247 244 244 247 244 244 247 244 244 247 244 244 
247 244 244 12 20 20 154 188 164 212 252 228 212 252 228 212 252 228 
212 252 228 212 252 228 212 252 228 212 252 228 212 252 228 212 252 228 
212 252 228 212 252 228 212 252 228 212 252 228 212 252 228 212 252 228 
212 252 228 212 252 228 212 252 228 212 252 228 212 252 228 212 252 228 
212 252 228 212 252 228 212 252 228 212 252 228 212 252 228 212 252 228 
212 252 228 212 252 228 212 252 228 212 252 228 212 252 228 212 252 228 
212 252 228 212 252 228 212 252 228 156 196 180 52 52 51 68 60 68 247 244 244 
247 244 244 247 244 244 247 244 244 247 244 244 247 244 244 247 244 244 
68 73 70 107 124 116 212 252 228 212 252 228 212 252 228 212 252 228 
212 252 228 212 252 228 212 252 228 212 252 228 212 252 228 212 252 228 
212 252 228 212 252 228 212 252 228 212 252 228 212 252 228 212 252 228 
212 252 228 212 252 228 212 252 228 212 252 228 212 252 228 212 252 228 
212 252 228 212 252 228 212 252 228 212 252 228 212 252 228 212 252 228 
212 252 228 212 252 228 212 252 228 212 252 228 212 252 228 212 252 228 
212 252 228 212 252 228 212 252 228 188 229 204 12 20 20 207 211 207 
247 244 244 247 244 244 247 244 244 247 244 244 247 244 244 247 244 244 
132 132 133 60 74 68 212 252 228 212 252 228 212 252 228 212 252 228 
212 252 228 212 252 228 212 252 228 212 252 228 212 252 228 212 252 228 
212 252 228 212 252 228 212 252 228 212 252 228 212 252 228 212 252 228 
212 252 228 212 252 228 212 252 228 212 252 228 212 252 228 212 252 228 
212 252 228 212 252 228 212 252 228 212 252 228 212 252 228 212 252 228 
212 252 228 212 252 228 212 252 228 212 252 228 212 252 228 212 252 228 
212 252 228 212 252 228 212 252 228 212 252 228 69 84 75 113 108 116 
247 244 244 247 244 244 247 244 244 247 244 244 247 244 244 247 244 244 
132 132 124 52 60 60 212 252 228 212 252 228 212 252 228 212 252 228 
212 252 228 212 252 228 212 252 228 212 252 228 212 252 228 212 252 228 
212 252 228 212 252 228 212 252 228 212 252 228 212 252 228 212 252 228 
212 252 228 212 252 228 212 252 228 212 252 228 212 252 228 212 252 228 
212 252 228 212 252 228 212 252 228 212 252 228 212 252 228 212 252 228 
212 252 228 212 252 228 212 252 228 212 252 228 212 252 228 212 252 228 
212 252 228 212 252 228 212 252 228 212 252 228 133 155 141 28 36 36 247 244 244 
247 244 244 247 244 244 247 244 244 247 244 244 247 244 244 196 196 195 
12 20 20 212 252 228 212 252 228 212 252 228 212 252 228 212 252 228 
212 252 228 212 252 228 212 252 228 212 252 228 212 252 228 212 252 228 
212 252 228 212 252 228 212 252 228 212 252 228 212 252 228 212 252 228 
212 252 228 212 252 228 212 252 228 212 252 228 212 252 228 212 252 228 
212 252 228 212 252 228 212 252 228 212 252 228 212 252 228 212 252 228 
212 252 228 212 252 228 212 252 228 212 252 228 212 252 228 212 252 228 
212 252 228 212 252 228 212 252 228 197 236 220 4 4 4 207 211 207 247 244 244 
247 244 244 247 244 244 247 244 244 247 244 244 196 196 195 4 4 4 212 252 228 
212 252 228 212 252 228 212 252 228 212 252 228 212 252 228 212 252 228 
212 252 228 212 252 228 212 252 228 212 252 228 212 252 228 212 252 228 
212 252 228 212 252 228 212 252 228 212 252 228 212 252 228 212 252 228 
212 252 228 212 252 228 212 252 228 212 252 228 212 252 228 212 252 228 
212 252 228 212 252 228 212 252 228 212 252 228 212 252 228 212 252 228 
212 252 228 212 252 228 212 252 228 212 252 228 212 252 228 212 252 228 
212 252 228 212 252 228 84 99 88 42 50 44 132 132 133 132 132 133 132 132 133 
116 128 120 132 132 133 100 100 100 4 4 12 212 252 228 212 252 228 212 252 228 
212 252 228 212 252 228 212 252 228 212 252 228 212 252 228 212 252 228 
212 252 228 212 252 228 212 252 228 212 252 228 212 252 228 212 252 228 
212 252 228 212 252 228 212 252 228 212 252 228 212 252 228 212 252 228 
212 252 228 212 252 228 212 252 228 212 252 228 212 252 228 212 252 228 
212 252 228 212 252 228 212 252 228 212 252 228 212 252 228 212 252 228 
212 252 228 212 252 228 212 252 228 212 252 228 212 252 228 212 252 228 
204 249 221 84 99 88 68 60 68 60 74 68 52 60 60 52 68 60 60 74 68 52 60 60 
99 121 108 212 252 228 212 252 228 212 252 228 212 252 228 212 252 228 
212 252 228 212 252 228 212 252 228 212 252 228 212 252 228 212 252 228 
212 252 228 212 252 228 212 252 228 212 252 228 212 252 228 212 252 228 
212 252 228 212 252 228 212 252 228 212 252 228 212 252 228 212 252 228 
212 252 228 212 252 228 212 252 228 212 252 228 212 252 228 212 252 228 
212 252 228 212 252 228 212 252 228 212 252 228 212 252 228 212 252 228 
212 252 228 212 252 228 212 252 228 212 252 228 212 252 228 212 252 228 
212 252 228 212 252 228 212 252 228 212 252 228 212 252 228 212 252 228 
212 252 228 212 252 228 212 252 228 212 252 228 212 252 228 212 252 228 
212 252 228 212 252 228 212 252 228 212 252 228 212 252 228 212 252 228 
212 252 228 212 252 228 212 252 228 212 252 228 212 252 228 212 252 228 
212 252 228 212 252 228 212 252 228 212 252 228 212 252 228 212 252 228 
212 252 228 212 252 228 212 252 228 212 252 228 212 252 228 212 252 228 
212 252 228 212 252 228 212 252 228 212 252 228 212 252 228 212 252 228 
212 252 228 212 252 228 212 252 228 212 252 228 212 252 228 212 252 228 
212 252 228 212 252 228 212 252 228 212 252 228 212 252 228 212 252 228 
212 252 228 212 252 228 212 252 228 212 252 228 212 252 228 212 252 228 
212 252 228 212 252 228 212 252 228 212 252 228 212 252 228 212 252 228 
212 252 228 212 252 228 212 252 228 212 252 228 212 252 228 212 252 228 
212 252 228 212 252 228 212 252 228 212 252 228 212 252 228 212 252 228 
212 252 228 212 252 228 212 252 228 212 252 228 212 252 228 212 252 228 
212 252 228 212 252 228 212 252 228 212 252 228 212 252 228 212 252 228 
212 252 228 212 252 228 212 252 228 212 252 228 212 252 228 212 252 228 
212 252 228 212 252 228 212 252 228 212 252 228 212 252 228 212 252 228 
212 252 228 212 252 228 212 252 228 212 252 228 212 252 228 212 252 228 
212 252 228 212 252 228 212 252 228 212 252 228 212 252 228 212 252 228 
212 252 228 212 252 228 212 252 228 212 252 228 212 252 228 212 252 228 
212 252 228 212 252 228 212 252 228 212 252 228 212 252 228 212 252 228 
212 252 228 212 252 228 212 252 228 212 252 228 212 252 228 212 252 228 
212 252 228 212 252 228 212 252 228 212 252 228 212 252 228 212 252 228 
212 252 228 212 252 228 212 252 228 212 252 228 212 252 228 212 252 228 
212 252 228 212 252 228 212 252 228 212 252 228 212 252 228 212 252 228 
212 252 228 212 252 228 212 252 228 212 252 228 212 252 228 212 252 228 
212 252 228 212 252 228 212 252 228 212 252 228 212 252 228 212 252 228 
212 252 228 212 252 228 212 252 228 212 252 228 212 252 228 212 252 228 
212 252 228 212 252 228 212 252 228 212 252 228 212 252 228 212 252 228 
212 252 228 212 252 228 212 252 228 212 252 228 212 252 228 212 252 228 
212 252 228 212 252 228 212 252 228 212 252 228 212 252 228 212 252 228 
212 252 228 212 252 228 212 252 228 212 252 228 212 252 228 212 252 228 
212 252 228 212 252 228 212 252 228 212 252 228 212 252 228 212 252 228 
212 252 228 212 252 228 212 252 228 212 252 228 212 252 228 212 252 228 
212 252 228 212 252 228 212 252 228 212 252 228 212 252 228 212 252 228 
212 252 228 212 252 228 212 252 228 212 252 228 212 252 228 212 252 228 
212 252 228 212 252 228 212 252 228 212 252 228 212 252 228 212 252 228 
212 252 228 212 252 228 212 252 228 212 252 228 212 252 228 212 252 228 
212 252 228 212 252 228 212 252 228 212 252 228 212 252 228 212 252 228 
212 252 228 212 252 228 212 252 228 212 252 228 212 252 228 212 252 228 
212 252 228 212 252 228 212 252 228 212 252 228 212 252 228 212 252 228 
212 252 228 212 252 228 212 252 228 212 252 228 212 252 228 212 252 228 
212 252 228 212 252 228 212 252 228 212 252 228 212 252 228 212 252 228 
212 252 228 212 252 228 212 252 228 212 252 228 212 252 228 212 252 228 
212 252 228 212 252 228 212 252 228 212 252 228 212 252 228 212 252 228 
212 252 228 212 252 228 212 252 228 212 252 228 212 252 228 212 252 228 
212 252 228 212 252 228 212 252 228 212 252 228 212 252 228 212 252 228 
212 252 228 212 252 228 212 252 228 212 252 228 212 252 228 212 252 228 
212 252 228 212 252 228 212 252 228 212 252 228 212 252 228 212 252 228 
212 252 228 212 252 228 212 252 228 212 252 228 212 252 228 212 252 228 
212 252 228 212 252 228 212 252 228 212 252 228 212 252 228 212 252 228 
212 252 228 212 252 228 212 252 228 212 252 228 212 252 228 212 252 228 
212 252 228 212 252 228 212 252 228 212 252 228 212 252 228 212 252 228 
212 252 228 212 252 228 212 252 228 212 252 228 212 252 228 212 252 228 
212 252 228 212 252 228 212 252 228 212 252 228 212 252 228 212 252 228 
212 252 228 212 252 228 212 252 228 212 252 228 212 252 228 212 252 228 
212 252 228 212 252 228 212 252 228 212 252 228 212 252 228 212 252 228 
212 252 228 212 252 228 212 252 228 212 252 228 212 252 228 212 252 228 
212 252 228 212 252 228 212 252 228 212 252 228 212 252 228 212 252 228 
212 252 228 212 252 228 212 252 228 212 252 228 212 252 228 212 252 228 
212 252 228 212 252 228 212 252 228 212 252 228 212 252 228 212 252 228 
212 252 228 212 252 228 212 252 228 212 252 228 212 252 228 212 252 228 
212 252 228 212 252 228 212 252 228 212 252 228 212 252 228 212 252 228 
212 252 228 212 252 228 212 252 228 212 252 228 212 252 228 212 252 228 
212 252 228 212 252 228 212 252 228 212 252 228 212 252 228 212 252 228 
212 252 228 212 252 228 212 252 228 212 252 228 212 252 228 212 252 228 
212 252 228 212 252 228 212 252 228 212 252 228 212 252 228 212 252 228 
212 252 228 212 252 228 212 252 228 212 252 228 212 252 228 212 252 228 
212 252 228 212 252 228 212 252 228 212 252 228 212 252 228 212 252 228 
212 252 228 212 252 228 212 252 228 212 252 228 212 252 228 212 252 228 
212 252 228 212 252 228 212 252 228 212 252 228 212 252 228 212 252 228 
212 252 228 212 252 228 212 252 228 212 252 228 212 252 228 212 252 228 
212 252 228 212 252 228 212 252 228 212 252 228 212 252 228 212 252 228 
212 252 228 212 252 228 212 252 228 212 252 228 212 252 228 212 252 228 
212 252 228 212 252 228 212 252 228 212 252 228 212 252 228 212 252 228 
212 252 228 212 252 228 212 252 228 212 252 228 212 252 228 212 252 228 
212 252 228 212 252 228 212 252 228 212 252 228 212 252 228 212 252 228 
212 252 228 212 252 228 212 252 228 212 252 228 212 252 228 212 252 228 
212 252 228 212 252 228 212 252 228 212 252 228 212 252 228 212 252 228 
212 252 228 212 252 228 212 252 228 212 252 228 212 252 228 212 252 228 
212 252 228 212 252 228 212 252 228 212 252 228 212 252 228 212 252 228 
212 252 228 212 252 228 212 252 228 212 252 228 212 252 228 212 252 228 
212 252 228 212 252 228 212 252 228 212 252 228 212 252 228 212 252 228 
212 252 228 212 252 228 212 252 228 212 252 228 212 252 228 212 252 228 
212 252 228 212 252 228 212 252 228 212 252 228 212 252 228 212 252 228 
212 252 228 212 252 228 212 252 228 212 252 228 212 252 228 212 252 228 
212 252 228 212 252 228 212 252 228 212 252 228 212 252 228 212 252 228 
212 252 228 212 252 228 212 252 228 212 252 228 212 252 228 212 252 228 
212 252 228 212 252 228 212 252 228 212 252 228 212 252 228 212 252 228 
212 252 228 212 252 228 212 252 228 212 252 228 212 252 228 212 252 228 
212 252 228 212 252 228 212 252 228 212 252 228 212 252 228 212 252 228 
212 252 228 212 252 228 212 252 228 212 252 228 212 252 228 212 252 228 
212 252 228 212 252 228 212 252 228 212 252 228 212 252 228 212 252 228 
212 252 228 212 252 228 212 252 228 212 252 228 212 252 228 212 252 228 
212 252 228 212 252 228 212 252 228 212 252 228 212 252 228 212 252 228 
212 252 228 212 252 228 212 252 228 212 252 228 212 252 228 212 252 228 
212 252 228 212 252 228 212 252 228 212 252 228 212 252 228 212 252 228 
212 252 228 212 252 228 212 252 228 212 252 228 212 252 228 212 252 228 
212 252 228 212 252 228 212 252 228 212 252 228 212 252 228 212 252 228 
212 252 228 212 252 228 212 252 228 212 252 228 212 252 228 212 252 228 
212 252 228 212 252 228 212 252 228 212 252 228 212 252 228 212 252 228 
212 252 228 212 252 228 212 252 228 212 252 228 212 252 228 212 252 228 
212 252 228 212 252 228 212 252 228 212 252 228 212 252 228 212 252 228 
212 252 228 212 252 228 212 252 228 212 252 228 212 252 228 212 252 228 
212 252 228 212 252 228 212 252 228 212 252 228 212 252 228 212 252 228 
212 252 228 212 252 228 212 252 228 212 252 228 212 252 228 212 252 228 
212 252 228 212 252 228 212 252 228 212 252 228 212 252 228 212 252 228 
212 252 228 212 252 228 212 252 228 212 252 228 212 252 228 212 252 228 
212 252 228 212 252 228 212 252 228 212 252 228 212 252 228 212 252 228 
212 252 228 212 252 228 212 252 228 212 252 228 212 252 228 212 252 228 
212 252 228 212 252 228 212 252 228 212 252 228 212 252 228 212 252 228 
212 252 228 212 252 228 212 252 228 212 252 228 212 252 228 212 252 228 
212 252 228 212 252 228 212 252 228 212 252 228 212 252 228 212 252 228 
212 252 228 212 252 228 212 252 228 212 252 228 212 252 228 212 252 228 
212 252 228 212 252 228 212 252 228 212 252 228 212 252 228 212 252 228 
212 252 228 212 252 228 212 252 228 212 252 228 212 252 228 212 252 228 
212 252 228 212 252 228 212 252 228 212 252 228 212 252 228 212 252 228 
212 252 228 212 252 228 212 252 228 212 252 228 212 252 228 212 252 228 
212 252 228 212 252 228 212 252 228 212 252 228 212 252 228 212 252 228 
212 252 228 212 252 228 212 252 228 212 252 228 212 252 228 212 252 228 
212 252 228 212 252 228 212 252 228 212 252 228 212 252 228 212 252 228 
212 252 228 212 252 228 212 252 228 212 252 228 212 252 228 212 252 228 
212 252 228 212 252 228 212 252 228 212 252 228 212 252 228 212 252 228 
212 252 228 212 252 228 212 252 228 212 252 228 212 252 228 212 252 228 
212 252 228 212 252 228 212 252 228 212 252 228 212 252 228 212 252 228 
212 252 228 212 252 228 212 252 228 212 252 228 212 252 228 212 252 228 
212 252 228 212 252 228 212 252 228 212 252 228 212 252 228 212 252 228 
212 252 228 212 252 228 212 252 228 212 252 228 212 252 228 212 252 228 
212 252 228 212 252 228 212 252 228 212 252 228 212 252 228 212 252 228 
212 252 228 212 252 228 212 252 228 212 252 228 212 252 228 212 252 228 
212 252 228 212 252 228 212 252 228 212 252 228 212 252 228 212 252 228 
212 252 228 212 252 228 212 252 228 212 252 228 212 252 228 212 252 228 
212 252 228 212 252 228 212 252 228 212 252 228 212 252 228 212 252 228 
212 252 228 212 252 228 212 252 228 212 252 228 212 252 228 212 252 228 
212 252 228 212 252 228 212 252 228 212 252 228 212 252 228 212 252 228 
212 252 228 212 252 228 212 252 228 212 252 228 212 252 228 212 252 228 
212 252 228 212 252 228 212 252 228 212 252 228 212 252 228 212 252 228 
212 252 228 212 252 228 212 252 228 212 252 228 212 252 228 212 252 228 
212 252 228 212 252 228 212 252 228 212 252 228 212 252 228 212 252 228 
212 252 228 212 252 228 212 252 228 212 252 228 212 252 228 212 252 228 
212 252 228 212 252 228 212 252 228 212 252 228 212 252 228 212 252 228 
212 252 228 212 252 228 212 252 228 212 252 228 212 252 228 212 252 228 
212 252 228 212 252 228 212 252 228 212 252 228 212 252 228 212 252 228 
212 252 228 212 252 228 212 252 228 212 252 228 212 252 228 212 252 228 
212 252 228 212 252 228 212 252 228 212 252 228 212 252 228 212 252 228 
212 252 228 212 252 228 212 252 228 212 252 228 212 252 228 212 252 228 
212 252 228 212 252 228 212 252 228 212 252 228 212 252 228 212 252 228 
212 252 228 212 252 228 212 252 228 212 252 228 212 252 228 212 252 228 
212 252 228 212 252 228 212 252 228 212 252 228 212 252 228 212 252 228 
212 252 228 212 252 228 212 252 228 212 252 228 212 252 228 212 252 228 
212 252 228 212 252 228 212 252 228 212 252 228 212 252 228 212 252 228 
212 252 228 212 252 228 212 252 228 212 252 228 212 252 228 212 252 228 
212 252 228 212 252 228 212 252 228 212 252 228 212 252 228 212 252 228 
212 252 228 212 252 228 212 252 228 212 252 228 212 252 228 212 252 228 
212 252 228 212 252 228 212 252 228 212 252 228 212 252 228 212 252 228 
212 252 228 212 252 228 212 252 228 212 252 228 212 252 228 212 252 228 
212 252 228 212 252 228 212 252 228 212 252 228 212 252 228 212 252 228 
212 252 228 212 252 228 212 252 228 212 252 228 212 252 228 212 252 228 
212 252 228 212 252 228 212 252 228 212 252 228 212 252 228 212 252 228 
212 252 228 212 252 228 212 252 228 212 252 228 212 252 228 212 252 228 
212 252 228 212 252 228 212 252 228 212 252 228 212 252 228 212 252 228 
212 252 228 212 252 228 212 252 228 212 252 228 212 252 228 212 252 228 
212 252 228 212 252 228 212 252 228 212 252 228 212 252 228 212 252 228 
212 252 228 212 252 228 212 252 228 212 252 228 212 252 228 212 252 228 
212 252 228 212 252 228 212 252 228 212 252 228 212 252 228 212 252 228 
212 252 228 212 252 228 212 252 228 212 252 228 212 252 228 212 252 228 
212 252 228 212 252 228 212 252 228 212 252 228 212 252 228 212 252 228 
212 252 228 212 252 228 212 252 228 212 252 228 212 252 228 212 252 228 
212 252 228 212 252 228 212 252 228 212 252 228 212 252 228 212 252 228 
212 252 228 212 252 228 212 252 228 212 252 228 212 252 228 212 252 228 
212 252 228 212 252 228 212 252 228 212 252 228 212 252 228 212 252 228 
212 252 228 212 252 228 212 252 228 212 252 228 212 252 228 212 252 228 
212 252 228 212 252 228 212 252 228 212 252 228 212 252 228 212 252 228 
212 252 228 212 252 228 212 252 228 212 252 228 212 252 228 212 252 228 
212 252 228 212 252 228 212 252 228 212 252 228 212 252 228 212 252 228 
212 252 228 212 252 228 212 252 228 212 252 228 212 252 228 212 252 228 
212 252 228 212 252 228 212 252 228 212 252 228 212 252 228 212 252 228 
212 252 228 212 252 228 212 252 228 212 252 228 212 252 228 212 252 228 
212 252 228 
